<svg width="30" height="18" viewBox="0 0 30 18" fill="none" xmlns="http://www.w3.org/2000/svg">
<g clip-path="url(#clip0_472_265094)">
<path d="M7.7569 17.2498C7.6667 17.2498 7.57973 17.2279 7.4992 17.1841L0.257704 13.1219C0.0966391 13.0312 0 12.8653 0 12.6869V4.56264C0 4.38426 0.0998604 4.21839 0.257704 4.12764C0.41877 4.03688 0.615269 4.03688 0.773113 4.12764L8.0146 8.18977C8.17567 8.28053 8.27231 8.4464 8.27231 8.62478V16.7491C8.27231 16.9274 8.17245 17.0933 8.0146 17.1841C7.93407 17.2279 7.8471 17.2529 7.7569 17.2529V17.2498ZM1.03404 12.399L7.24149 15.8822V8.91583L1.03404 5.43265V12.399Z" fill="#3E44E7"/>
<path d="M7.7569 9.12925C7.6667 9.12925 7.57973 9.10734 7.4992 9.06353L0.257704 4.99826C0.0998604 4.91064 0 4.74477 0 4.56326C0 4.38174 0.0998604 4.21901 0.257704 4.12825L7.4992 0.0661143C7.66026 -0.0246423 7.85676 -0.0246423 8.0146 0.0661143L15.2561 4.12825C15.4172 4.21901 15.5138 4.38487 15.5138 4.56326C15.5138 4.74164 15.4139 4.90751 15.2561 4.99826L8.0146 9.0604C7.93407 9.10421 7.8471 9.12612 7.7569 9.12612V9.12925ZM1.54945 4.56326L7.7569 8.04643L13.9644 4.56326L7.7569 1.08008L1.54945 4.56326Z" fill="#3E44E7"/>
<path d="M29.4844 13.1883C29.3942 13.1883 29.3073 13.1664 29.2267 13.1225L21.9852 9.0604C21.8242 8.96964 21.7275 8.80378 21.7275 8.62539V0.50112C21.7275 0.322736 21.8274 0.156871 21.9852 0.0661143C22.1463 -0.0246423 22.3428 -0.0246423 22.5007 0.0661143L29.7421 4.12825C29.9032 4.21901 29.9998 4.38487 29.9998 4.56326V12.6875C29.9998 12.8659 29.9 13.0318 29.7421 13.1225C29.6616 13.1664 29.5746 13.1883 29.4844 13.1883ZM22.7584 8.33435L28.9658 11.8175V4.8543L22.7584 1.37113V8.33748V8.33435Z" fill="#3E44E7"/>
<path d="M22.2431 17.2501C22.1529 17.2501 22.0659 17.2282 21.9854 17.1844L14.7439 13.1223C14.5828 13.0315 14.4862 12.8657 14.4862 12.6873C14.4862 12.5089 14.5861 12.343 14.7439 12.2523L21.9854 8.19014C22.1465 8.09938 22.343 8.09938 22.5008 8.19014L29.7423 12.2523C29.9034 12.343 30 12.5089 30 12.6873C30 12.8657 29.9001 13.0315 29.7423 13.1223L22.5008 17.1844C22.4203 17.2282 22.3333 17.2501 22.2431 17.2501ZM16.0357 12.6873L22.2431 16.1705L28.4506 12.6873L22.2431 9.20411L16.0357 12.6873Z" fill="#3E44E7"/>
<path d="M7.75662 17.2504C7.66642 17.2504 7.57945 17.2285 7.49892 17.1847C7.33785 17.0939 7.24121 16.9281 7.24121 16.7497V8.62539C7.24121 8.44701 7.34107 8.28115 7.49892 8.19039L21.9819 0.0661143C22.143 -0.0246423 22.3395 -0.0246423 22.4973 0.0661143C22.6584 0.156871 22.755 0.322736 22.755 0.50112V8.62539C22.755 8.80378 22.6551 8.96964 22.4973 9.0604L8.01755 17.1847C7.93701 17.2285 7.85004 17.2504 7.75984 17.2504H7.75662ZM8.27203 8.91331V15.8797L21.7242 8.33435V1.37113L15.2558 4.99826L8.27203 8.91331Z" fill="#3E44E7"/>
</g>
<defs>
<clipPath id="clip0_472_265094">
<rect width="30" height="17.25" fill="white"/>
</clipPath>
</defs>
</svg>
