<svg width="37" height="48" viewBox="0 0 37 48" fill="none" xmlns="http://www.w3.org/2000/svg">
<path d="M18.5 33C19.3284 33 20 32.3284 20 31.5V20.1213L23.4393 23.5607C24.0251 24.1464 24.9749 24.1464 25.5607 23.5607C26.1464 22.9749 26.1464 22.0251 25.5607 21.4393L19.5607 15.4393C18.9749 14.8536 18.0251 14.8536 17.4393 15.4393L11.4393 21.4393C10.8536 22.0251 10.8536 22.9749 11.4393 23.5607C12.0251 24.1464 12.9749 24.1464 13.5607 23.5607L17 20.1213V31.5C17 32.3284 17.6716 33 18.5 33Z" fill="#3E44E7"/>
<path d="M6.5 0C3.18629 0 0.5 2.68629 0.5 6V42C0.5 45.3137 3.18629 48 6.5 48H30.5C33.8137 48 36.5 45.3137 36.5 42V6C36.5 2.68629 33.8137 0 30.5 0H6.5ZM6.5 3H30.5C32.1569 3 33.5 4.34315 33.5 6V42C33.5 43.6569 32.1569 45 30.5 45H6.5C4.84315 45 3.5 43.6569 3.5 42V6C3.5 4.34315 4.84315 3 6.5 3Z" fill="#3E44E7"/>
</svg>
