<svg width="177" height="40" viewBox="0 0 177 40" fill="none" xmlns="http://www.w3.org/2000/svg">
<path d="M83.4106 6.46332L77.7669 3.00576C71.3988 -0.895531 71.3988 -10.147 77.7669 -14.0483L78.1883 -14.3065C81.3932 -16.2699 85.4284 -16.2705 88.6338 -14.308L95.1071 -10.3447L88.6338 -14.308C85.4284 -16.2705 81.3932 -16.2699 78.1883 -14.3065L77.7668 -14.0483C71.3988 -10.147 71.3988 -0.895529 77.7669 3.00577L83.4106 6.46332L102.982 -5.52126L83.4106 6.46332Z" fill="white"/>
<path d="M82.8247 -18.5909L42.5099 6.09833L62.3698 -6.06381L82.8247 -18.5909Z" fill="white"/>
<path d="M42.541 6.09632C42.5242 6.09744 42.5099 6.08411 42.5099 6.06727V-17.5675C42.5099 -17.6992 42.3626 -17.778 42.2511 -17.7078C42.226 -17.692 42.1967 -17.6834 42.167 -17.6834C42.1419 -17.6834 42.1172 -17.6769 42.0941 -17.667C42.0371 -17.6423 41.9765 -17.6279 41.9149 -17.6242C41.8113 -17.6257 41.7094 -17.6527 41.6174 -17.7031C41.4881 -17.7845 41.3198 -17.6916 41.3198 -17.5389V-15.1268C41.3198 -14.5843 41.6079 -14.0827 42.0765 -13.8093L42.2496 -13.7083C42.3637 -13.6407 42.4533 -13.5345 42.504 -13.4067C42.5547 -13.2789 42.5637 -13.1368 42.5295 -13.003C42.4953 -12.8691 42.4199 -12.7513 42.3152 -12.6682C42.2106 -12.5851 42.0827 -12.5414 41.9521 -12.5443C41.8479 -12.5411 41.745 -12.5684 41.6546 -12.6232C41.5234 -12.7015 41.357 -12.607 41.357 -12.4543V-10.056C41.357 -9.50178 41.6514 -8.98927 42.13 -8.70997L42.2868 -8.61849C42.4217 -8.53411 42.5198 -8.39669 42.5599 -8.23603C42.5999 -8.07538 42.5786 -7.90445 42.5006 -7.76034C42.448 -7.66564 42.3734 -7.58687 42.2838 -7.5316C42.1943 -7.47632 42.0929 -7.44639 41.9893 -7.44469C41.8843 -7.445 41.7814 -7.47571 41.6917 -7.53348C41.5606 -7.61173 41.3942 -7.51725 41.3942 -7.36454V-4.9737C41.3942 -4.42098 41.6877 -3.90985 42.1651 -3.63129L42.324 -3.53861C42.4589 -3.45422 42.557 -3.3168 42.5971 -3.15615C42.6371 -2.9955 42.6158 -2.82455 42.5378 -2.68045C42.4867 -2.58442 42.4123 -2.50458 42.3225 -2.44911C42.2326 -2.39364 42.1304 -2.36452 42.0265 -2.3648C41.9223 -2.36161 41.8194 -2.38893 41.7289 -2.44372C41.5997 -2.52514 41.4314 -2.43225 41.4314 -2.2795V0.132572C41.4314 0.67506 41.7195 1.17673 42.1881 1.45013L42.3612 1.55113C42.4289 1.59198 42.4883 1.64677 42.5358 1.71227C42.5833 1.77776 42.6181 1.85264 42.638 1.93255C42.6579 2.01247 42.6626 2.09581 42.6518 2.17767C42.641 2.25953 42.6149 2.33829 42.575 2.40931C42.5224 2.50401 42.4478 2.58278 42.3582 2.63806C42.2687 2.69333 42.1672 2.72323 42.0636 2.72493C41.9587 2.72462 41.8558 2.69393 41.7661 2.63616C41.635 2.55791 41.4686 2.65239 41.4686 2.8051V5.75542C41.4686 5.96237 41.5761 6.15446 41.7525 6.26266L41.9854 6.40549C42.0334 6.43493 42.0939 6.43493 42.1419 6.40549L42.5581 6.15019C42.584 6.1343 42.5713 6.09431 42.541 6.09632Z" fill="white"/>
<path d="M0.737214 6.27104C0.909584 6.16364 1.01435 5.97492 1.01435 5.77183V-17.527C1.01435 -17.675 0.850222 -17.7641 0.726129 -17.6834C0.634561 -17.6316 0.532386 -17.6045 0.428609 -17.6045C0.324832 -17.6045 0.222644 -17.6316 0.131076 -17.6834C0.00183716 -17.7648 -0.166443 -17.6719 -0.166443 -17.5192V5.76664C-0.166443 5.97274 -0.0582485 6.16472 0.117441 6.27248C0.307393 6.38898 0.548087 6.38888 0.737214 6.27104Z" fill="white"/>
<path d="M12.7294 15.4492L1.01434 8.27823L12.7294 15.4492Z" fill="white"/>
<path d="M-0.175659 10.3059C-0.175659 10.8482 0.104975 11.3519 0.566125 11.6373L0.716926 11.7306C0.848057 11.8089 1.01446 11.7144 1.01446 11.5617V9.15059C1.01446 8.60828 0.733826 8.10459 0.272675 7.8192L0.121874 7.72588C-0.00925659 7.64763 -0.175659 7.74212 -0.175659 7.89482V10.3059Z" fill="white"/>
<path d="M0.121874 22.9754C-0.00925659 22.8972 -0.175659 22.9917 -0.175659 23.1444V25.5554C-0.175659 26.0977 0.104975 26.6014 0.566125 26.8868L0.716926 26.9801C0.848051 27.0584 1.01446 26.9639 1.01446 26.8112V24.4001C1.01446 23.8578 0.733842 23.3541 0.272718 23.0688L0.121874 22.9754Z" fill="white"/>
<path d="M0.716926 21.8953C0.716926 21.8984 0.718544 21.9012 0.721186 21.9028L0.789462 21.9435C0.888624 22.0027 1.01446 21.9313 1.01446 21.8158V19.319C1.01446 18.772 0.729079 18.2646 0.261614 17.9805L0.121874 17.8955C-0.00925659 17.8173 -0.175659 17.9118 -0.175659 18.0645V20.8256C-0.175659 21.1499 -0.00648339 21.4507 0.270634 21.6191L0.712728 21.8878C0.715335 21.8894 0.716926 21.8922 0.716926 21.8953Z" fill="white"/>
<path d="M0.716926 16.8105C0.848051 16.8888 1.01446 16.7943 1.01446 16.6416V14.2367C1.01446 13.6912 0.72987 13.1852 0.2637 12.9019L0.121874 12.8157C-0.00737281 12.7343 -0.175659 12.8272 -0.175659 12.9799V15.4058C-0.175659 15.9412 0.103647 16.4378 0.561163 16.7159L0.716926 16.8105Z" fill="white"/>
<path d="M1.01446 32.2376V29.13C1.01446 28.8057 0.845285 28.5049 0.568167 28.3364L0.126073 28.0677C0.123466 28.0661 0.121874 28.0633 0.121874 28.0602C0.121874 28.0572 0.120256 28.0543 0.117615 28.0527L0.0493384 28.012C-0.0498239 27.9528 -0.175659 28.0243 -0.175659 28.1398V30.6365C-0.175659 31.1836 0.109709 31.691 0.577159 31.9751L0.716926 32.06L1.00613 32.2422C1.00975 32.2445 1.01446 32.2419 1.01446 32.2376Z" fill="white"/>
<path d="M1.6001 7.18339L13.8917 14.7095L1.6001 7.18339L15.9397 -1.60158C19.1449 -3.56515 23.1803 -3.56557 26.3859 -1.60269L40.7341 7.18339L26.3859 -1.60269C23.1803 -3.56558 19.1449 -3.56515 15.9397 -1.60159L1.6001 7.18339Z" fill="white"/>
<path d="M20.5768 20.253L12.7295 15.4492L20.5768 20.253Z" fill="white"/>
<path d="M21.7576 20.253L42.2125 7.72586L21.7576 20.253Z" fill="white"/>
<path d="M20.8743 -4.97879C20.8018 -5.02439 20.7401 -5.08677 20.6937 -5.1611C20.6836 -5.17727 20.6772 -5.19563 20.6768 -5.21469C20.6762 -5.24114 20.6735 -5.26775 20.6646 -5.2927C20.6497 -5.33506 20.6382 -5.37872 20.6304 -5.42318C20.6258 -5.44906 20.6233 -5.49503 20.6233 -5.5213C20.6233 -5.68096 20.4483 -5.77886 20.3122 -5.69534L1.40812 5.90802C1.21548 6.02626 1.09808 6.23607 1.09808 6.46211V6.49943C1.09808 6.70356 1.2047 6.89287 1.37926 6.9987C1.56628 7.11209 1.80099 7.11144 1.98738 6.99703L20.8861 -4.60304C21.0289 -4.69067 21.0223 -4.90029 20.8743 -4.97879Z" fill="white"/>
<path d="M0.716831 6.64086C0.846077 6.72227 1.01436 6.62938 1.01436 6.47663V6.46075C1.01436 6.30218 0.84053 6.20497 0.705364 6.28787C0.57531 6.36764 0.576381 6.55705 0.707394 6.63523L0.716831 6.64086Z" fill="white"/>
<path d="M1.01434 8.27823L12.7294 15.4492L20.5767 20.253L1.01434 8.27823Z" fill="white"/>
<path d="M1.01441 8.27823L0.121826 7.72586L1.01441 8.27823Z" fill="white"/>
<path d="M62.6674 20.618L43.0957 32.6025L62.6674 20.618L68.3111 24.0755C74.6792 27.9768 74.6792 37.2283 68.3111 41.1296L67.8892 41.3881C64.6845 43.3513 60.6497 43.3521 57.4444 41.39L43.3467 32.7604L57.4444 41.39C60.6497 43.3521 64.6845 43.3513 67.8892 41.3881L68.3111 41.1296C74.6792 37.2283 74.6792 27.9768 68.3111 24.0755L62.6674 20.618Z" fill="white"/>
<path d="M21.7576 44.2222L41.6175 32.06L62.0724 19.5329L21.7576 44.2222Z" fill="white"/>
<path d="M42.2125 7.72589L62.0724 -4.43625L42.2125 7.72589Z" fill="white"/>
<path d="M62.0534 -5.50126C62.0655 -5.51408 62.0719 -5.53113 62.0724 -5.54875C62.0748 -5.63585 62.0971 -5.72118 62.1373 -5.79745C62.1821 -5.87928 62.2461 -5.94728 62.3233 -5.99472L-nan -nanL62.3233 -5.99472L43.3887 5.60077C42.8139 5.9528 42.4634 6.57838 42.4634 7.25245C42.4663 7.35357 42.4403 7.45323 42.389 7.53848C42.34 7.63453 42.2657 7.71338 42.1752 7.76536L61.4936 -4.06518C61.83 -4.27119 62.035 -4.63727 62.035 -5.03172V-5.45508C62.035 -5.47225 62.0416 -5.48877 62.0534 -5.50126Z" fill="white"/>
<path d="M42.2125 7.72587C42.303 7.67389 42.3773 7.59508 42.4263 7.49902C42.3773 7.59508 42.303 7.67389 42.2125 7.72587Z" fill="white"/>
<path d="M42.2126 6.62108C42.2809 6.6641 42.3397 6.72202 42.3851 6.79083C42.4009 6.81479 42.4078 6.81298 42.4078 6.84167C42.4078 6.86487 42.413 6.91799 42.4209 6.93979C42.4412 6.99547 42.4525 7.05445 42.4543 7.11428V7.16358V6.42662C42.4543 6.27434 42.2875 6.18092 42.1576 6.26054C42.0275 6.34038 42.0356 6.53214 42.172 6.6007L42.2126 6.62108Z" fill="white"/>
<path d="M21.802 44.2292C21.7764 44.2252 21.7575 44.203 21.7575 44.177V20.5624C21.7575 20.4304 21.6136 20.3487 21.5002 20.4164L21.4951 20.4194C21.4721 20.4331 21.4458 20.4404 21.419 20.4404C21.397 20.4404 21.3753 20.4455 21.355 20.4539C21.2934 20.4793 21.2285 20.4947 21.1624 20.4996C21.0611 20.5042 20.9608 20.4767 20.8742 20.4206C20.7431 20.3424 20.5767 20.4369 20.5767 20.5896V22.9804C20.5767 23.5332 20.8702 24.0443 21.3476 24.3228L21.5064 24.4155C21.6429 24.4983 21.743 24.635 21.7848 24.7958C21.8267 24.9566 21.8068 25.1284 21.7296 25.2737C21.6755 25.3692 21.5992 25.4483 21.508 25.5036C21.4169 25.5588 21.3139 25.5884 21.2089 25.5893C21.107 25.5877 21.0075 25.5571 20.9207 25.5006C20.7896 25.4223 20.6232 25.5168 20.6232 25.6695V28.0604C20.6232 28.6131 20.9167 29.1242 21.394 29.4027L21.5529 29.4954C21.6644 29.5658 21.7512 29.6729 21.8 29.8004C21.8488 29.928 21.857 30.069 21.8233 30.2019C21.7896 30.3348 21.7159 30.4524 21.6134 30.5368C21.5108 30.6212 21.3851 30.6677 21.2554 30.6692C21.1549 30.6665 21.0563 30.6395 20.9672 30.5903C20.8379 30.5089 20.6696 30.6018 20.6696 30.7545V33.1666C20.6696 33.7091 20.9577 34.2107 21.4263 34.4841L21.5994 34.5852C21.7359 34.6679 21.836 34.8046 21.8778 34.9654C21.9196 35.1262 21.8998 35.298 21.8225 35.4433C21.768 35.5376 21.6914 35.6153 21.6002 35.6689C21.5089 35.7225 21.4062 35.7501 21.3019 35.7491C21.2008 35.751 21.1012 35.7237 21.0137 35.6702C20.8825 35.5919 20.7161 35.6864 20.7161 35.8391V38.2672C20.7161 38.8274 21.0136 39.3454 21.4975 39.6278L21.6459 39.7144C21.7824 39.7971 21.8825 39.9338 21.9243 40.0946C21.9661 40.2554 21.9462 40.4272 21.869 40.5725C21.8149 40.668 21.7387 40.7472 21.6475 40.8024C21.5564 40.8577 21.4533 40.8872 21.3484 40.8882C21.2465 40.8866 21.147 40.8559 21.0601 40.7994C20.929 40.7211 20.7626 40.8156 20.7626 40.9683V43.9252C20.7626 44.1283 20.8674 44.317 21.0398 44.4244L21.2382 44.548C21.3057 44.5901 21.3912 44.5904 21.459 44.5488L21.8214 44.3266C21.8633 44.3009 21.8506 44.237 21.802 44.2292Z" fill="white"/>
<path d="M-nan -nanL41.9615 7.80482H41.915C41.8101 7.80452 41.7072 7.77379 41.6175 7.71602L-nan -nanL41.6175 7.71602L41.0358 7.37665C40.8215 7.25158 40.5557 7.25454 40.3442 7.38437L21.4622 18.9742C21.3241 19.0589 21.323 19.2592 21.4601 19.3455C21.5365 19.39 21.6003 19.4551 21.6452 19.534C21.6522 19.5462 21.6572 19.5596 21.6584 19.5736C21.6609 19.605 21.6621 19.6372 21.6723 19.667C21.6913 19.7224 21.7043 19.78 21.7111 19.8387C21.7111 19.9942 21.8814 20.0895 22.0139 20.0084L41.9733 7.78473C41.9958 7.77097 42.0045 7.78328 41.981 7.79522C41.9745 7.79851 41.968 7.80171 41.9615 7.80482L-nan -nanZ" fill="white"/>
<path d="M-nan -nanL41.6175 7.72586C41.7072 7.78363 41.8101 7.81432 41.915 7.81463C41.8101 7.81432 41.7072 7.78363 41.6175 7.72586L-nan -nanZ" fill="white"/>
<path d="M-nan -nanL42.2125 7.72587C42.303 7.67389 42.3773 7.59508 42.4263 7.49902C42.375 7.5932 42.3012 7.67141 42.2125 7.72587L-nan -nanZ" fill="white"/>
<path d="M42.4159 6.87679C42.4155 6.86807 42.4078 6.86949 42.4078 6.87822C42.4078 6.88789 42.4162 6.88883 42.416 6.87916C42.416 6.87837 42.4159 6.87758 42.4159 6.87679Z" fill="white"/>
<path d="M-nan -nanL42.5007 7.21239V7.16367C42.5023 7.17986 42.5023 7.1962 42.5007 7.21239L-nan -nanZ" fill="white"/>
<path d="M-nan -nanL20.8742 20.4305L20.5767 20.2431L20.8742 20.4206C20.9608 20.4767 21.0611 20.5042 21.1624 20.4996C21.2395 20.4939 21.315 20.4738 21.3856 20.4404C21.3154 20.4751 21.2397 20.4952 21.1624 20.4996C21.0622 20.5045 20.9627 20.4806 20.8742 20.4305L-nan -nanZ" fill="white"/>
<path d="M21.6553 19.5625C21.6583 19.5851 21.6583 19.6081 21.6553 19.6307C21.66 19.6082 21.66 19.585 21.6553 19.5625Z" fill="white"/>
<path d="M62.3906 19.374C62.4075 19.3489 62.4308 19.3285 62.459 19.3176C62.5113 19.2975 62.5657 19.2836 62.621 19.2765H62.6954C62.7876 19.2748 62.8782 19.3023 62.9557 19.3554C63.0868 19.4336 63.2532 19.3391 63.2532 19.1864V16.7717C63.2532 16.2313 62.9749 15.729 62.5167 15.4424L62.37 15.3507C62.2344 15.2683 62.1351 15.132 62.0942 14.972C62.0532 14.812 62.0738 14.6413 62.1515 14.4974C62.2291 14.3535 62.3575 14.2483 62.5083 14.2048C62.6592 14.1614 62.8201 14.1832 62.9557 14.2656C63.085 14.347 63.2532 14.2542 63.2532 14.1014V11.6719C63.2532 11.1384 62.9762 10.6431 62.5216 10.3639L62.37 10.2708C62.2344 10.1884 62.1351 10.0522 62.0942 9.89215C62.0532 9.73214 62.0738 9.56142 62.1515 9.41753C62.2291 9.27365 62.3575 9.16841 62.5083 9.12494C62.6592 9.08147 62.8201 9.10334 62.9557 9.18575C63.0868 9.26399 63.2532 9.16951 63.2532 9.01681V6.60834C63.2532 6.06468 62.971 5.56001 62.5077 5.27546L62.37 5.19087C62.3022 5.15002 62.2428 5.09525 62.1953 5.02976C62.1478 4.96427 62.113 4.88939 62.0931 4.80947C62.0732 4.72956 62.0685 4.64621 62.0793 4.56435C62.0902 4.48249 62.1163 4.40374 62.1561 4.33271C62.1937 4.26118 62.2445 4.19839 62.3054 4.14807C62.3663 4.09774 62.4361 4.06092 62.5107 4.03976C62.5852 4.0186 62.6631 4.01354 62.7395 4.02489C62.816 4.03624 62.8895 4.06379 62.9557 4.10587C63.0868 4.18411 63.2532 4.08963 63.2532 3.93693V1.55969C63.2532 1.02662 62.9787 0.531133 62.5267 0.248485L62.37 0.150447C62.2344 0.0680418 62.1351 -0.0681362 62.0942 -0.228147C62.0532 -0.388157 62.0738 -0.558884 62.1515 -0.702767C62.2291 -0.84665 62.3575 -0.951918 62.5083 -0.995389C62.6592 -1.03886 62.8201 -1.01699 62.9557 -0.934583C63.085 -0.853171 63.2532 -0.946057 63.2532 -1.09881V-4.06039C63.2532 -4.26349 63.1485 -4.45221 62.9761 -4.55961C62.787 -4.67745 62.5463 -4.67755 62.3563 -4.56104C62.1806 -4.45329 62.0724 -4.26132 62.0724 -4.05522V19.2748C62.0724 19.4103 62.2217 19.4932 62.338 19.4238C62.3589 19.4113 62.377 19.3942 62.3906 19.374Z" fill="white"/>
<path d="M62.3698 20.4305C62.3004 20.3869 62.2409 20.3279 62.1952 20.2577C62.1809 20.2357 62.1745 20.2096 62.1745 20.1833C62.1745 20.1642 62.1708 20.1452 62.1644 20.1272C62.1481 20.0813 62.1354 20.0341 62.1265 19.986C62.1213 19.9583 62.1188 19.9162 62.1188 19.888C62.1188 19.7283 61.9437 19.6302 61.8075 19.7137L41.6638 32.0502C41.7549 31.9966 41.8573 31.9685 41.9614 31.9685C42.0654 31.9685 42.1678 31.9966 42.2589 32.0502C42.8008 32.383 43.4838 32.3835 44.0261 32.0513L62.3837 20.8102C62.5286 20.7215 62.5208 20.5085 62.3698 20.4305Z" fill="white"/>
<path d="M62.156 19.5823C62.2093 19.4867 62.286 19.4086 62.3776 19.356C62.3867 19.3507 62.3831 19.3357 62.3726 19.3357C62.3708 19.3357 62.3691 19.3361 62.3675 19.3371L62.0723 19.5132V19.8782V19.9275C62.0667 19.8061 62.0959 19.6857 62.156 19.5823Z" fill="white"/>
<path d="M62.2118 20.2324C62.2088 20.2098 62.2088 20.1869 62.2118 20.1642V20.2324Z" fill="white"/>
<path d="M21.7576 -9.8624C21.7576 -9.64728 21.8694 -9.44763 22.0528 -9.33525L40.3788 1.89188C40.7907 2.14424 41.3199 1.84782 41.3199 1.36473C41.3199 1.14962 41.2081 0.949965 41.0247 0.837589L22.6987 -10.3895C22.2868 -10.6419 21.7576 -10.3455 21.7576 -9.8624Z" fill="white"/>
<path d="M41.6174 2.67566C41.7071 2.73343 41.81 2.76412 41.9149 2.76443C42.0185 2.76273 42.12 2.7328 42.2095 2.67752C42.2991 2.62225 42.3737 2.54348 42.4263 2.44878C42.4661 2.37775 42.4922 2.299 42.5031 2.21714C42.5139 2.13528 42.5092 2.05197 42.4893 1.97205C42.4694 1.89214 42.4346 1.81723 42.3871 1.75173C42.3396 1.68624 42.2802 1.63147 42.2124 1.59063C41.8003 1.35015 41.2827 1.64833 41.2827 2.12549C41.2827 2.35457 41.4092 2.56523 41.6116 2.67257L41.6174 2.67566Z" fill="white"/>
<path d="M21.7576 -5.5213C21.7588 -5.41079 21.7318 -5.30199 21.6794 -5.20647C21.627 -5.11094 21.5512 -5.03226 21.4601 -4.97879C21.3247 -4.89803 21.3235 -4.70244 21.4578 -4.62L40.3842 6.99703C40.5706 7.11144 40.8053 7.11209 40.9923 6.99871C41.1668 6.89288 41.2735 6.70356 41.2735 6.49942V6.4621C41.2735 6.23607 41.1561 6.02626 40.9634 5.90802L22.0594 -5.69528C21.9254 -5.77754 21.7536 -5.67849 21.7576 -5.5213Z" fill="white"/>
<path d="M41.6268 6.63523C41.7578 6.55705 41.759 6.36768 41.6289 6.28792C41.4937 6.20498 41.3198 6.30229 41.3198 6.46093C41.3198 6.61848 41.4915 6.71596 41.6268 6.63523Z" fill="white"/>
<path d="M-nan -nanL42.5008 7.21301C42.4947 7.31276 42.4694 7.41013 42.4264 7.49907C42.4777 7.41383 42.5036 7.31413 42.5008 7.21301L-nan -nanZ" fill="white"/>
<path d="M-nan -nanL42.2125 6.62115C42.2929 6.67175 42.36 6.74297 42.4077 6.82829C42.36 6.74297 42.2929 6.67175 42.2125 6.62115L-nan -nanZ" fill="white"/>
<path d="M-nan -nanL42.4264 7.49907C42.4694 7.41013 42.4947 7.31276 42.5008 7.21301L-nan -nanL42.5008 7.21301C42.4947 7.31276 42.4694 7.41013 42.4264 7.49907L-nan -nanZ" fill="white"/>
<path d="M-nan -nanL42.4449 6.92694C42.4744 6.99157 42.4903 7.06226 42.4914 7.13407C42.4892 7.06241 42.4734 6.99196 42.4449 6.92694L-nan -nanZ" fill="white"/>
<path d="M42.2126 7.73572C42.1328 7.77243 42.0481 7.79574 41.9615 7.80477C42.0481 7.79574 42.1328 7.77243 42.2126 7.73572Z" fill="white"/>
<path d="M41.9149 7.82455C41.9149 7.8191 41.9193 7.81469 41.9248 7.81469H41.9614C42.0479 7.80565 42.1326 7.78238 42.2124 7.74567L-nan -nanL42.2124 7.74567C42.1255 7.80162 42.0263 7.83217 41.9248 7.83432C41.9193 7.83443 41.9149 7.83001 41.9149 7.82455Z" fill="white"/>
<path d="M-nan -nanL41.3198 7.18339V7.05545C41.3198 6.95575 41.2108 6.89436 41.1255 6.94605L41.0189 7.01069C40.8904 7.08858 40.892 7.27556 41.0218 7.35128L41.6638 7.72589C41.5639 7.67927 41.4786 7.60354 41.4177 7.5075C41.3568 7.41147 41.3228 7.29909 41.3198 7.18339L-nan -nanZ" fill="white"/>
<path d="M-nan -nanL41.6175 7.72586C41.7072 7.78363 41.8101 7.81432 41.915 7.81463L-nan -nanL41.915 7.81463C41.8101 7.81432 41.7072 7.78363 41.6175 7.72586L-nan -nanZ" fill="white"/>
<path d="M41.3199 7.18336C41.3186 7.29387 41.3456 7.40267 41.398 7.4982C41.4504 7.59372 41.5262 7.67239 41.6174 7.72586L-nan -nanL41.6174 7.72586C41.7069 7.78434 41.8099 7.81529 41.9149 7.81529C42.02 7.81529 42.123 7.78434 42.2124 7.72586C42.3012 7.6714 42.375 7.59319 42.4263 7.49901L-nan -nanL42.4263 7.49901C42.4693 7.41007 42.4946 7.3127 42.5007 7.21295C42.5047 7.18682 42.5047 7.16016 42.5007 7.13402C42.4998 7.07431 42.4886 7.01537 42.4679 6.96005C42.4597 6.93789 42.4542 6.91464 42.4542 6.89098C42.4542 6.86279 42.4474 6.8348 42.4319 6.81125C42.3864 6.74215 42.3275 6.68398 42.2589 6.64083C42.076 6.53168 41.8476 6.53307 41.6661 6.64443L41.6287 6.66731C41.4628 6.7691 41.3517 6.94041 41.3264 7.13347L41.3199 7.18336Z" fill="white"/>
<path d="M105.344 -5.52127L119.692 3.2648C122.898 5.22768 126.933 5.22726 130.138 3.2637L144.478 -5.52127L130.138 3.2637C126.933 5.22725 122.898 5.22768 119.692 3.2648L105.344 -5.52127Z" fill="white"/>
<path d="M145.956 -6.06378L165.816 6.09836L145.956 -6.06378Z" fill="white"/>
<path d="M166.411 -17.6045C166.372 -17.6082 166.334 -17.6163 166.297 -17.6286C166.255 -17.6424 166.211 -17.6499 166.167 -17.6505C166.162 -17.6505 166.158 -17.6506 166.153 -17.6508C166.127 -17.6519 166.102 -17.661 166.08 -17.6748C165.966 -17.7471 165.816 -17.6646 165.816 -17.529V5.7962C165.816 6.00231 165.924 6.1943 166.1 6.30205C166.29 6.41855 166.531 6.41845 166.72 6.30062C166.892 6.19322 166.997 6.00449 166.997 5.80139V2.84452C166.997 2.69182 166.831 2.59734 166.699 2.67558C166.613 2.73303 166.513 2.76377 166.411 2.76436C166.307 2.76463 166.205 2.73554 166.115 2.68007C166.025 2.6246 165.951 2.54473 165.9 2.44871C165.86 2.37768 165.834 2.29893 165.823 2.21707C165.812 2.13521 165.817 2.05189 165.837 1.97198C165.857 1.89206 165.891 1.81716 165.939 1.75166C165.987 1.68617 166.046 1.6314 166.114 1.59056L166.265 1.49743C166.72 1.21821 166.997 0.722937 166.997 0.1894V-2.24007C166.997 -2.39282 166.829 -2.48571 166.699 -2.4043C166.612 -2.34983 166.512 -2.32249 166.411 -2.3254C166.307 -2.32299 166.204 -2.35119 166.114 -2.40689C166.023 -2.46258 165.949 -2.54361 165.9 -2.64105C165.86 -2.71207 165.834 -2.7908 165.823 -2.87266C165.812 -2.95452 165.817 -3.03786 165.837 -3.11778C165.857 -3.19769 165.891 -3.27259 165.939 -3.33808C165.987 -3.40357 166.046 -3.45834 166.114 -3.49919L166.251 -3.58379C166.715 -3.86832 166.997 -4.37298 166.997 -4.91664V-7.32512C166.997 -7.47783 166.831 -7.5723 166.699 -7.49405C166.613 -7.43661 166.513 -7.40587 166.411 -7.40528C166.281 -7.40683 166.156 -7.45332 166.053 -7.53769C165.951 -7.62205 165.877 -7.73965 165.843 -7.87259C165.81 -8.00552 165.818 -8.1465 165.867 -8.27404C165.915 -8.40159 166.002 -8.50871 166.114 -8.57908L166.251 -8.66368C166.715 -8.94821 166.997 -9.45289 166.997 -9.99656V-12.405C166.997 -12.5577 166.831 -12.6522 166.699 -12.5739C166.612 -12.5195 166.512 -12.4921 166.411 -12.495C166.281 -12.4922 166.153 -12.5358 166.048 -12.6189C165.943 -12.702 165.868 -12.8198 165.834 -12.9537C165.8 -13.0875 165.809 -13.2296 165.859 -13.3574C165.91 -13.4853 166 -13.5914 166.114 -13.659L166.275 -13.758C166.724 -14.0335 166.997 -14.5224 166.997 -15.0489V-17.513C166.997 -17.6543 166.84 -17.7393 166.722 -17.6623C166.713 -17.6567 166.704 -17.6517 166.694 -17.6479C166.604 -17.612 166.507 -17.5972 166.411 -17.6045Z" fill="white"/>
<path d="M84.0056 8.27823L88.8962 11.267L84.0056 8.27823Z" fill="white"/>
<path d="M84.004 9.35973C84.005 8.68939 83.6522 8.06827 83.0759 7.72588C82.9499 7.64829 82.7877 7.73891 82.7877 7.88686V10.3217C82.7877 10.86 83.0672 11.3598 83.5259 11.6416L83.6709 11.7306C83.7851 11.7982 83.8746 11.9043 83.9254 12.0321C83.9761 12.1599 83.985 12.3021 83.9508 12.4359C83.9166 12.5697 83.8412 12.6876 83.7366 12.7707C83.6319 12.8538 83.5041 12.8974 83.3734 12.8945C83.2723 12.8974 83.1724 12.8701 83.0852 12.8156C82.9559 12.7342 82.7877 12.8271 82.7877 12.9799V15.4093C82.7877 15.9429 83.0647 16.4381 83.5193 16.7174L83.6709 16.8105C83.7387 16.8513 83.7981 16.9061 83.8456 16.9716C83.8931 17.0371 83.9279 17.112 83.9478 17.1919C83.9677 17.2718 83.9724 17.3552 83.9616 17.437C83.9507 17.5189 83.9246 17.5976 83.8848 17.6687C83.8336 17.7647 83.7593 17.8445 83.6694 17.9C83.5795 17.9555 83.4774 17.9846 83.3734 17.9843C83.2714 17.9837 83.1716 17.953 83.0852 17.8955C82.9541 17.8173 82.7877 17.9118 82.7877 18.0645V20.4729C82.7877 21.0166 83.0699 21.5213 83.5332 21.8058L83.6709 21.8904C83.7387 21.9312 83.7981 21.986 83.8456 22.0515C83.8931 22.117 83.9279 22.1919 83.9478 22.2718C83.9677 22.3517 83.9724 22.4351 83.9616 22.5169C83.9507 22.5988 83.9246 22.6775 83.8848 22.7486C83.8352 22.846 83.7612 22.927 83.671 22.9827C83.5807 23.0384 83.4778 23.0666 83.3734 23.0642C83.2728 23.0626 83.174 23.0355 83.0852 22.9853C82.9559 22.9039 82.7877 22.9967 82.7877 23.1495V25.579C82.7877 26.1125 83.0647 26.6078 83.5193 26.887L83.6709 26.9802C83.7851 27.0477 83.8746 27.1539 83.9254 27.2817C83.9761 27.4095 83.985 27.5516 83.9508 27.6854C83.9166 27.8193 83.8412 27.9371 83.7366 28.0202C83.6319 28.1034 83.5041 28.1469 83.3734 28.1441C83.2723 28.147 83.1724 28.1196 83.0852 28.0652C82.9559 27.9837 82.7877 28.0766 82.7877 28.2294V30.6589C82.7877 31.1924 83.0647 31.6877 83.5193 31.9669L83.6709 32.06C83.8003 32.1415 83.9688 32.0487 83.969 31.8958L84.004 9.35973Z" fill="white"/>
<path d="M104.758 20.253L114.837 14.088L104.758 20.253Z" fill="white"/>
<path d="M123.725 7.18339L111.443 14.7095L123.725 7.18339L109.387 -1.60083C106.181 -3.56478 102.145 -3.56479 98.9391 -1.60083L84.6007 7.18339L98.9391 -1.60083C102.145 -3.56478 106.181 -3.56479 109.387 -1.60083L123.725 7.18339Z" fill="white"/>
<path d="M103.568 20.253L88.8962 11.267L103.568 20.253Z" fill="white"/>
<path d="M103.879 -4.97633C103.876 -4.97792 103.873 -4.97877 103.87 -4.97877C103.867 -4.97877 103.864 -4.97961 103.862 -4.9812L103.587 -5.14989C103.216 -5.37776 102.748 -5.37807 102.377 -5.15071L83.706 6.28238C83.5717 6.36463 83.5728 6.56015 83.7081 6.64086C84.2561 6.97398 84.9444 6.97277 85.4913 6.63773L103.917 -4.65058C104.03 -4.71959 104.03 -4.88316 103.917 -4.95245L103.879 -4.97633Z" fill="white"/>
<path d="M104.465 -4.9812C104.462 -4.97961 104.459 -4.97877 104.456 -4.97877C104.453 -4.97877 104.45 -4.97792 104.447 -4.97633L104.409 -4.95245C104.296 -4.88316 104.296 -4.71959 104.409 -4.65058L123.405 6.98691C123.602 7.10759 123.85 7.10828 124.047 6.98869C124.443 6.74906 124.445 6.17506 124.05 5.93333L105.949 -5.1507C105.578 -5.37807 105.11 -5.37776 104.739 -5.14989L104.465 -4.9812Z" fill="white"/>
<path d="M103.266 20.0667C103.398 20.1481 103.568 20.0531 103.568 19.8979C103.567 19.7874 103.594 19.6786 103.646 19.583C103.699 19.4875 103.774 19.4088 103.866 19.3554C104.003 19.269 104.001 19.0688 103.863 18.984L84.949 7.37433C84.7581 7.25718 84.5176 7.25714 84.3267 7.37423C84.1503 7.4824 84.0428 7.67445 84.0428 7.88136V7.91201C84.0428 8.13935 84.1617 8.35016 84.3562 8.46785L88.9334 11.2374L103.266 20.0667Z" fill="white"/>
<path d="M-nan -nanL83.9033 6.84803C83.9059 6.86876 83.9065 6.8897 83.905 6.91052C83.9042 6.9213 83.9055 6.93217 83.9094 6.94225C83.9274 6.98854 83.9413 7.03646 83.9509 7.08539C83.9573 7.1176 83.9573 7.15062 83.9591 7.1834V7.18772C83.9591 7.34551 84.132 7.44231 84.2665 7.3598L84.4165 7.26785C84.4788 7.22965 84.4778 7.13882 84.4147 7.102L83.9004 6.80191C83.8654 6.7815 83.8574 6.78967 83.8829 6.82118C83.8899 6.8299 83.8967 6.83885 83.9033 6.84803L-nan -nanZ" fill="white"/>
<path d="M83.7081 7.72588C83.6287 7.76376 83.5438 7.78711 83.457 7.79494H83.4105C83.3086 7.79435 83.2087 7.76361 83.1223 7.70617L-nan -nanL83.1223 7.70617L83.7355 8.07047C83.8752 8.15345 84.0521 8.05279 84.0521 7.89032C84.0521 7.72929 83.878 7.62845 83.7383 7.70855L83.7081 7.72588Z" fill="white"/>
<path d="M-nan -nanL83.9034 6.84802C83.9067 6.87388 83.9067 6.90008 83.9034 6.92594C83.9067 6.90008 83.9067 6.87388 83.9034 6.84802L-nan -nanZ" fill="white"/>
<path d="M-nan -nanL83.9964 7.13406C84.01 7.26108 83.9839 7.38937 83.922 7.49905C83.8709 7.59603 83.7973 7.67751 83.7081 7.73577L-nan -nanL83.7081 7.73577L83.8979 7.62253C83.9647 7.58266 84.0057 7.51057 84.0057 7.43275V7.19928C84.0057 7.19527 84.0052 7.19127 84.0044 7.18735C84.0006 7.16979 83.998 7.15199 83.9964 7.13406L-nan -nanZ" fill="white"/>
<path d="M146.254 -4.43625L158.797 3.24769L146.254 -4.43625Z" fill="white"/>
<path d="M145.659 44.5872L130.968 35.5913L145.659 44.5872L165.221 32.6026L145.659 44.5872Z" fill="white"/>
<path d="M126.096 32.6025L140.433 23.8194C143.64 21.8549 147.677 21.8555 150.884 23.8209L160.349 29.6237L150.884 23.8209C147.677 21.8555 143.64 21.8549 140.433 23.8194L126.096 32.6025Z" fill="white"/>
<path d="M114.837 14.0881L145.064 -4.43625L125.204 7.72589L114.837 14.0881Z" fill="white"/>
<path d="M145.064 19.5329L104.758 44.2222L124.605 32.0625C124.607 32.0609 124.61 32.06 124.613 32.06C124.616 32.06 124.619 32.0592 124.622 32.0576L145.064 19.5329Z" fill="white"/>
<path d="M104.163 19.168L111.443 14.7095L104.163 19.168Z" fill="white"/>
<path d="M125.204 6.62112C125.293 6.67691 125.367 6.7561 125.42 6.8511C125.472 6.94611 125.5 7.05372 125.502 7.16362C125.503 7.27413 125.476 7.38294 125.423 7.47846C125.371 7.57399 125.295 7.65269 125.204 7.70615L144.755 -4.2671C144.947 -4.38445 145.064 -4.59297 145.064 -4.81766V-4.8496C145.064 -5.05264 144.959 -5.24132 144.787 -5.3487C144.598 -5.46655 144.358 -5.46736 144.168 -5.35077L125.215 6.28274C125.091 6.35889 125.085 6.53707 125.204 6.62112Z" fill="white"/>
<path d="M104.751 44.2222C104.75 44.2222 104.749 44.2213 104.749 44.2201V20.6014C104.749 20.4534 104.587 20.3628 104.461 20.4404C104.369 20.4922 104.267 20.5193 104.163 20.5193C104.059 20.5193 103.957 20.4922 103.866 20.4404C103.734 20.3622 103.568 20.4566 103.568 20.6093V43.8891C103.568 44.096 103.676 44.2881 103.852 44.3963L104.075 44.5333C104.129 44.5663 104.197 44.5663 104.251 44.5333L104.752 44.226C104.754 44.2249 104.753 44.2222 104.751 44.2222Z" fill="white"/>
<path d="M-nan -nanL124.618 7.72588L124.037 7.38684C123.823 7.26161 123.556 7.26489 123.345 7.39536L111.49 14.7095L104.51 18.9843C104.372 19.0689 104.37 19.2691 104.507 19.3554C104.597 19.4104 104.672 19.4895 104.724 19.5846C104.776 19.6798 104.804 19.7878 104.805 19.8979C104.805 20.0533 104.975 20.1487 105.108 20.0676L114.874 14.0881L125.25 7.72588C125.165 7.78484 125.064 7.81571 124.962 7.81465C124.842 7.82408 124.721 7.79302 124.618 7.72588L-nan -nanZ" fill="white"/>
<path d="M124.618 7.72586C124.708 7.78363 124.811 7.81432 124.916 7.81463C125.018 7.81569 125.118 7.78482 125.204 7.72586C125.295 7.67239 125.371 7.59372 125.423 7.4982C125.475 7.40267 125.503 7.29387 125.501 7.18336C125.5 7.07346 125.471 6.96584 125.419 6.87084C125.367 6.77584 125.293 6.69662 125.204 6.64083C125.027 6.53182 124.804 6.53093 124.626 6.63853L124.594 6.65784C124.199 6.89711 124.198 7.47056 124.593 7.71062L124.618 7.72586Z" fill="white"/>
<path d="M104.751 20.253C104.755 20.253 104.758 20.2498 104.758 20.2458V19.8979C104.758 19.7878 104.73 19.6798 104.677 19.5847C104.625 19.4895 104.551 19.4105 104.461 19.3554C104.279 19.2409 104.047 19.2409 103.866 19.3554C103.774 19.4089 103.699 19.4876 103.646 19.5831C103.594 19.6786 103.567 19.7874 103.568 19.8979V19.9066C103.568 20.1214 103.681 20.3205 103.866 20.4306C103.957 20.4824 104.059 20.5095 104.163 20.5095C104.267 20.5095 104.369 20.4824 104.461 20.4306L104.747 20.2541C104.748 20.2534 104.75 20.253 104.751 20.253Z" fill="white"/>
<path d="M145.939 -4.53571C145.774 -4.69232 145.524 -4.71846 145.33 -4.59945L145.315 -4.5902C145.159 -4.49455 145.064 -4.32474 145.064 -4.14178V19.2333C145.064 19.3654 145.208 19.4471 145.321 19.3794L145.339 19.3686C145.353 19.36 145.37 19.3554 145.387 19.3554C145.401 19.3554 145.414 19.3523 145.427 19.347C145.486 19.3215 145.548 19.3045 145.612 19.2962H145.687C145.779 19.2933 145.87 19.3208 145.947 19.3751L-nan -nanL145.947 19.3751L146.055 19.4394C146.138 19.4893 146.244 19.4291 146.244 19.3317V16.8092C146.244 16.2596 145.955 15.7507 145.482 15.47L145.315 15.3704C145.196 15.2781 145.115 15.1427 145.085 14.9903C145.055 14.8378 145.079 14.679 145.153 14.5444C145.227 14.4098 145.345 14.3089 145.485 14.2611C145.624 14.2133 145.776 14.2219 145.91 14.2854C146.039 14.3668 146.207 14.2739 146.207 14.1211V11.7091C146.207 11.1666 145.919 10.6649 145.451 10.3915L145.277 10.2905C145.201 10.2544 145.133 10.2017 145.077 10.1357C145.021 10.0698 144.979 9.99217 144.954 9.90784C144.928 9.82352 144.919 9.73441 144.928 9.64632C144.937 9.55822 144.964 9.47309 145.006 9.3965C145.048 9.31991 145.104 9.25356 145.172 9.20177C145.24 9.14997 145.317 9.11392 145.399 9.0959C145.481 9.07788 145.565 9.07831 145.647 9.09719C145.728 9.11607 145.805 9.15296 145.873 9.20547C146.004 9.28372 146.17 9.18925 146.17 9.03656V6.63078C146.17 6.07509 145.875 5.5612 145.395 5.28114L145.24 5.19087C145.105 5.10648 145.007 4.96908 144.967 4.80842C144.927 4.64777 144.948 4.47683 145.026 4.33272C145.065 4.26086 145.117 4.19787 145.178 4.14744C145.24 4.09701 145.311 4.06014 145.386 4.03901C145.461 4.01789 145.54 4.01294 145.617 4.02442C145.694 4.03589 145.768 4.06358 145.835 4.10587C145.966 4.18412 146.133 4.08964 146.133 3.93694V1.57722C146.133 1.03511 145.847 0.533112 145.381 0.256221L145.203 0.150454C145.085 0.058176 145.003 -0.0772104 144.973 -0.229676C144.943 -0.382141 144.968 -0.540923 145.041 -0.675518C145.115 -0.810114 145.233 -0.911022 145.373 -0.958839C145.513 -1.00666 145.664 -0.998019 145.798 -0.934577C145.927 -0.853165 146.096 -0.946051 146.096 -1.0988V-4.17068C146.096 -4.30874 146.039 -4.44072 145.939 -4.53571Z" fill="white"/>
<path d="M-nan -nanL145.166 20.2332V20.178C145.166 20.1689 145.164 20.16 145.16 20.1519C145.127 20.0858 145.11 20.0121 145.11 19.9373V19.8063C145.11 19.7039 144.998 19.641 144.911 19.6945L124.655 32.0994C124.745 32.0458 124.846 32.0177 124.948 32.0177C125.051 32.0177 125.152 32.0458 125.241 32.0994C125.814 32.4335 126.523 32.4256 127.088 32.0788L145.401 20.8386C145.535 20.7562 145.534 20.5606 145.399 20.4798C145.299 20.4243 145.218 20.3383 145.166 20.2332L-nan -nanZ" fill="white"/>
<path d="M145.082 19.9373C145.066 19.8146 145.089 19.6898 145.147 19.5823C145.203 19.4884 145.279 19.4109 145.369 19.3567C145.379 19.3511 145.375 19.3357 145.364 19.3357C145.362 19.3357 145.36 19.3362 145.359 19.3371L145.264 19.3937C145.14 19.4678 145.064 19.6018 145.064 19.7464V19.816C145.064 19.8571 145.082 19.8962 145.082 19.9373Z" fill="white"/>
<path d="M145.947 19.3554C145.953 19.3554 145.959 19.357 145.964 19.3601L146.254 19.5329L145.964 19.3601C145.959 19.357 145.953 19.3554 145.947 19.3554Z" fill="white"/>
<path d="M166.132 7.73574C166.12 7.73574 166.108 7.73249 166.098 7.72633L166.073 7.71171C165.96 7.64405 165.816 7.72575 165.816 7.85778V10.3206C165.816 10.8658 166.099 11.3718 166.564 11.6571L166.699 11.7405C166.813 11.8077 166.902 11.9129 166.953 12.0397C167.004 12.1665 167.013 12.3076 166.98 12.4409C166.947 12.5741 166.873 12.692 166.77 12.7759C166.667 12.8598 166.541 12.905 166.411 12.9044C166.307 12.9076 166.204 12.8803 166.114 12.8255C165.982 12.7472 165.816 12.8417 165.816 12.9944V15.4029C165.816 15.9466 166.098 16.4512 166.562 16.7357L166.699 16.8203C166.836 16.9031 166.936 17.0398 166.978 17.2006C167.02 17.3614 167 17.5332 166.922 17.6785C166.87 17.7732 166.795 17.852 166.706 17.9072C166.616 17.9625 166.515 17.9924 166.411 17.9941C166.306 17.9938 166.203 17.9631 166.114 17.9054C165.982 17.8271 165.816 17.9216 165.816 18.0743V20.4828C165.816 21.0264 166.098 21.5311 166.562 21.8156L166.699 21.9002C166.836 21.983 166.936 22.1197 166.978 22.2805C167.02 22.4413 167 22.6131 166.922 22.7584C166.871 22.8544 166.797 22.9343 166.707 22.9897C166.617 23.0452 166.515 23.0743 166.411 23.074C166.308 23.0725 166.206 23.0455 166.114 22.9951C165.984 22.9137 165.816 23.0066 165.816 23.1594V25.5888C165.816 26.1224 166.093 26.6176 166.548 26.8969L166.699 26.99C166.813 27.0572 166.902 27.1624 166.953 27.2892C167.004 27.416 167.013 27.5571 166.98 27.6904C166.947 27.8237 166.873 27.9415 166.77 28.0254C166.667 28.1093 166.541 28.1545 166.411 28.1539C166.307 28.1571 166.204 28.1298 166.114 28.075C165.982 27.9968 165.816 28.0912 165.816 28.244V30.6348C165.816 31.1875 166.11 31.6986 166.587 31.9772L166.746 32.0699C166.872 32.1475 167.034 32.0569 167.034 31.9089V8.9669C167.034 8.53899 166.812 8.14177 166.447 7.91782L166.167 7.74559C166.156 7.73915 166.144 7.73574 166.132 7.73574Z" fill="white"/>
<path d="M166.699 32.0597C166.699 32.06 166.7 32.0601 166.7 32.0601C166.702 32.0601 166.703 32.0569 166.701 32.0556L165.816 31.5175L166.699 32.0597Z" fill="white"/>
<path d="M176.787 12.8157C172.584 10.2414 172.582 4.13204 176.787 1.561C172.582 4.13204 172.584 10.2414 176.787 12.8157Z" fill="white"/>
<path d="M167.281 7.37413C167.105 7.48237 166.997 7.67452 166.997 7.88154V7.90824C166.997 8.13198 167.113 8.33963 167.304 8.4565L175.846 13.6891C176.258 13.9415 176.787 13.645 176.787 13.1619C176.787 12.9468 176.676 12.7471 176.492 12.6348L167.903 7.37394C167.712 7.25701 167.472 7.25708 167.281 7.37413Z" fill="white"/>
<path d="M166.705 7.72454C166.701 7.73174 166.695 7.73744 166.688 7.74031C166.626 7.76438 166.561 7.77942 166.495 7.78505H166.411H166.328C166.253 7.78065 166.181 7.76053 166.114 7.72587L166.686 8.07752C166.822 8.16101 166.997 8.06321 166.997 7.9037V7.82874C166.997 7.70187 166.858 7.62416 166.75 7.6907L166.717 7.71104C166.712 7.71427 166.707 7.71896 166.705 7.72454Z" fill="white"/>
<path d="M166.709 7.72588L166.997 7.54834L166.709 7.72588Z" fill="white"/>
<path d="M166.997 1.36475C166.997 1.84783 167.526 2.14427 167.938 1.89193L176.492 -3.34791C176.676 -3.46029 176.787 -3.65996 176.787 -3.8751C176.787 -4.35818 176.258 -4.65461 175.846 -4.40228L167.292 0.837568C167.109 0.949944 166.997 1.14961 166.997 1.36475Z" fill="white"/>
<path d="M-nan -nanL165.9 2.41911C165.951 2.51514 166.025 2.59501 166.115 2.65048C166.205 2.70595 166.307 2.73504 166.411 2.73477C166.513 2.73417 166.613 2.70344 166.7 2.64599C166.884 2.53589 166.997 2.33685 166.997 2.12197V2.05505C166.997 1.60166 166.5 1.32368 166.114 1.56096C166.046 1.60181 165.987 1.65658 165.939 1.72207C165.892 1.78756 165.857 1.86247 165.837 1.94239C165.817 2.0223 165.812 2.10562 165.823 2.18748C165.834 2.26934 165.86 2.34809 165.9 2.41911L-nan -nanZ" fill="white"/>
<path d="M166.997 6.48509C166.997 6.6922 167.105 6.88444 167.281 6.99273C167.472 7.10976 167.712 7.10993 167.903 6.99317L176.492 1.74191C176.675 1.62954 176.787 1.42965 176.787 1.21424C176.787 0.731152 176.258 0.434559 175.846 0.686595L167.304 5.91042C167.113 6.02719 166.997 6.23488 166.997 6.4587V6.48509Z" fill="white"/>
<path d="M166.709 6.64086C166.835 6.71845 166.997 6.62783 166.997 6.47988V6.45946C166.997 6.30213 166.824 6.20616 166.69 6.28936C166.563 6.36875 166.565 6.55491 166.694 6.63185L166.709 6.64086Z" fill="white"/>
<path d="M166.699 6.64048C166.699 6.64071 166.7 6.64083 166.7 6.64083C166.703 6.64083 166.703 6.63764 166.701 6.63641L166.411 6.46329L166.699 6.64048Z" fill="white"/>
<path d="M166.997 7.18341C166.997 7.3431 167.172 7.44104 167.308 7.35755C167.438 7.27783 167.438 7.08898 167.308 7.00925C167.172 6.92576 166.997 7.02372 166.997 7.18341Z" fill="white"/>
<path d="M166.707 6.62086C166.708 6.62107 166.709 6.62143 166.71 6.62195C166.777 6.6637 166.835 6.72121 166.878 6.78994C166.89 6.80845 166.897 6.82958 166.897 6.85142C166.898 6.8816 166.901 6.91191 166.911 6.94041C166.929 6.99347 166.943 7.04845 166.95 7.10449C166.95 7.10449 166.95 7.10451 166.95 7.15383V6.83019C166.95 6.81056 166.94 6.79226 166.924 6.78155L166.701 6.63641C166.693 6.63124 166.698 6.61889 166.707 6.62086Z" fill="white"/>
<path d="M-nan -nanL166.114 7.73572C166.181 7.77038 166.253 7.7905 166.328 7.7949C166.253 7.7905 166.181 7.77038 166.114 7.73572L-nan -nanZ" fill="white"/>
<path d="M-nan -nanL166.923 7.47928C166.877 7.58299 166.802 7.66915 166.709 7.72588C166.888 7.61554 166.997 7.4202 166.997 7.20982V7.18338C167.004 7.28804 166.978 7.39211 166.923 7.47928L-nan -nanZ" fill="white"/>
<path d="M166.709 6.64087V6.6515V6.64087H166.699H166.709Z" fill="white"/>
<path d="M-nan -nanL166.997 7.183C166.997 7.183 166.997 7.18299 166.997 7.17942C166.997 7.175 167 7.1748 167 7.17922C167 7.19357 166.999 7.20791 166.997 7.22211C167 7.20928 167 7.19583 166.997 7.183L-nan -nanZ" fill="white"/>
<path d="M-nan -nanL166.923 7.47928C166.868 7.57667 166.791 7.65803 166.699 7.716L-nan -nanL166.699 7.716C166.795 7.66348 166.873 7.58078 166.923 7.47928L-nan -nanZ" fill="white"/>
<path d="M-nan -nanL166.895 6.84802C166.898 6.87388 166.898 6.90008 166.895 6.92594C166.898 6.90008 166.898 6.87388 166.895 6.84802L-nan -nanZ" fill="white"/>
<path d="M-14.2804 42.3283L-4.8034 36.5286C-1.59817 34.5671 2.43614 34.5681 5.64042 36.5311L6.05731 36.7865C12.4267 40.6886 12.425 49.9427 6.05418 53.8425L5.63944 54.0964C2.43557 56.0575 -1.59715 56.0578 -4.80125 54.0969L-14.2804 48.2959L-4.80125 54.0969C-1.59715 56.0578 2.43557 56.0575 5.63945 54.0963L6.05418 53.8425C12.425 49.9427 12.4267 40.6886 6.0573 36.7865L5.64042 36.5311C2.43614 34.5681 -1.59817 34.5671 -4.8034 36.5286L-14.2804 42.3283Z" fill="white"/>
<path d="M-20.0357 44.7647C-19.4885 45.1033 -18.7971 45.1044 -18.2489 44.7674L-14.2805 42.3283L0.119289 33.516C0.257393 33.4315 0.258688 33.2314 0.121691 33.1451C-0.420191 32.8123 -1.1031 32.8121 -1.64516 33.1446L-5.63359 35.5913L-20.0377 44.4063C-20.172 44.4885 -20.171 44.684 -20.0357 44.7647Z" fill="white"/>
<path d="M43.0957 32.6026L43.3467 32.7604L43.0957 32.6026Z" fill="white"/>
<path d="M62.0302 45.2861C62.0606 45.2728 62.0838 45.2462 62.0898 45.2136C62.0981 45.1681 62.1102 45.1235 62.126 45.0803C62.1332 45.0607 62.1375 45.04 62.1375 45.019C62.1375 44.9882 62.146 44.9578 62.1642 44.933C62.2092 44.8719 62.2629 44.8184 62.3234 44.7746L-nan -nanL62.3234 44.7746L62.4375 44.7028C62.522 44.6495 62.5212 44.526 62.436 44.4739L43.3003 32.7505C43.1468 32.654 42.9516 32.6536 42.7977 32.7495L42.7389 32.7861C42.5676 32.8928 42.4636 33.0803 42.4636 33.2821V33.3163C42.4636 33.5409 42.5802 33.7493 42.7716 33.8668L61.7595 45.5216C61.8598 45.5832 61.9887 45.511 61.9887 45.3933V45.3537C61.9887 45.3249 62.0038 45.2976 62.0302 45.2861Z" fill="white"/>
<path d="M-nan -nanL42.51 32.6026V32.7328C42.51 32.8351 42.6224 32.8975 42.7092 32.8434L42.8187 32.7752C42.946 32.6958 42.9455 32.5102 42.8176 32.4317L42.2125 32.0601C42.303 32.1143 42.3783 32.1932 42.4305 32.2885C42.4828 32.3839 42.5103 32.4923 42.51 32.6026L-nan -nanZ" fill="white"/>
<path d="M21.4642 45.8472C21.4616 45.8488 21.46 45.8516 21.46 45.8547C21.46 45.8578 21.4584 45.8606 21.4558 45.8622L1.01434 58.3867L41.3199 33.6877L21.4642 45.8472Z" fill="white"/>
<path d="M41.3247 32.6075C41.3216 32.6043 41.32 32.6001 41.3201 32.5957C41.3227 32.4882 41.3509 32.3831 41.4019 32.29C41.454 32.195 41.5282 32.1158 41.6175 32.0601L22.7165 43.6349C22.1208 43.9998 21.7576 44.6481 21.7576 45.3467C21.7582 45.4431 21.7358 45.5381 21.6925 45.6229C21.6379 45.7203 21.5612 45.8016 21.4694 45.8596L40.7929 34.0163C41.1261 33.8121 41.3293 33.4493 41.3293 33.0585V32.6191C41.3293 32.6148 41.3276 32.6107 41.3247 32.6075Z" fill="white"/>
<path d="M-nan -nanL41.3198 32.6026C41.3205 32.4925 41.3483 32.3845 41.4005 32.2893C41.4527 32.1941 41.5275 32.1151 41.6174 32.0601L-nan -nanL41.6174 32.0601C41.5281 32.1158 41.4538 32.195 41.4017 32.29C41.3496 32.385 41.3214 32.4927 41.3198 32.6026L-nan -nanZ" fill="white"/>
<path d="M42.2219 33.5208C42.0345 33.4058 41.7966 33.403 41.6079 33.5157C41.4292 33.6223 41.3198 33.815 41.3198 34.023V57.3004C41.3198 57.4531 41.4862 57.5476 41.6174 57.4693C41.7068 57.4109 41.8098 57.3799 41.9149 57.3799C42.02 57.3799 42.1229 57.4109 42.2124 57.4693C42.3435 57.5476 42.5099 57.4531 42.5099 57.3004V34.0329C42.5099 33.8245 42.3995 33.6297 42.2219 33.5208Z" fill="white"/>
<path d="M42.203 33.5044C42.3383 33.5851 42.51 33.4876 42.51 33.3301C42.51 33.1714 42.3361 33.0741 42.2009 33.1571C42.0708 33.2368 42.072 33.4262 42.203 33.5044Z" fill="white"/>
<path d="M-nan -nanL41.3198 32.6124V33.3278C41.3198 33.4864 41.4926 33.5845 41.6288 33.5032C41.7597 33.4251 41.762 33.2362 41.633 33.1549L41.6174 33.1451C41.53 33.0895 41.457 33.0117 41.4051 32.9187C41.3531 32.8257 41.3238 32.7204 41.3198 32.6124L-nan -nanZ" fill="white"/>
<path d="M-nan -nanL42.2124 32.06C42.1214 32.0065 42.019 31.9784 41.9149 31.9784C41.8108 31.9784 41.7084 32.0065 41.6174 32.06C41.5275 32.115 41.4527 32.1941 41.4005 32.2892C41.3483 32.3844 41.3205 32.4924 41.3198 32.6025C41.3238 32.7105 41.3531 32.8158 41.4051 32.9088C41.457 33.0018 41.53 33.0796 41.6174 33.1352C41.7995 33.2499 42.0311 33.2513 42.2146 33.1387L42.228 33.1305C42.4032 33.0231 42.5099 32.8324 42.5099 32.6269V32.5926C42.5085 32.484 42.4804 32.3777 42.4282 32.2842C42.3759 32.1907 42.3015 32.1134 42.2124 32.06L-nan -nanZ" fill="white"/>
<path d="M105.344 45.317L119.693 36.5303C122.898 34.5677 126.933 34.5678 130.138 36.5303L139.606 42.3283L130.129 36.5286C126.924 34.5671 122.889 34.5681 119.685 36.5311L105.344 45.317L119.686 54.0963C122.89 56.0575 126.923 56.0578 130.127 54.0969L139.606 48.2959L130.136 54.0952C126.932 56.0571 122.899 56.0578 119.694 54.0972L105.344 45.317Z" fill="white"/>
<path d="M126.096 32.6026L130.968 35.5913L126.096 32.6026Z" fill="white"/>
<path d="M126.421 32.802C126.222 32.6796 125.971 32.6796 125.771 32.8019C125.376 33.0447 125.376 33.6198 125.772 33.8622L139.606 42.3283L143.59 44.7723C144.134 45.1061 144.82 45.1031 145.361 44.7647C145.497 44.684 145.498 44.4885 145.363 44.4062L130.968 35.5913L126.421 32.802Z" fill="white"/>
<path d="M124.618 33.1451C124.527 33.0916 124.451 33.0129 124.399 32.9174C124.346 32.8219 124.319 32.7131 124.321 32.6026C124.322 32.4938 124.349 32.3872 124.4 32.2924C124.45 32.1976 124.522 32.1177 124.609 32.0601L105.071 44.0307C104.877 44.1497 104.758 44.361 104.758 44.5888V44.6256C104.758 44.8287 104.863 45.0174 105.035 45.1248C105.224 45.2426 105.464 45.2434 105.654 45.1268L124.602 33.4964C124.73 33.4178 124.738 33.2349 124.618 33.1451Z" fill="white"/>
<path d="M-nan -nanL124.618 32.06C124.531 32.1177 124.459 32.1976 124.409 32.2924C124.358 32.3871 124.331 32.4938 124.33 32.6025C124.329 32.7131 124.356 32.8219 124.408 32.9174C124.46 33.0129 124.536 33.0916 124.627 33.1451C124.803 33.2595 125.03 33.2625 125.209 33.1527L125.242 33.1323C125.633 32.8927 125.626 32.3229 125.23 32.0919L125.176 32.06C125.09 32.0117 124.994 31.9864 124.897 31.9864C124.8 31.9864 124.704 32.0117 124.618 32.06L-nan -nanZ" fill="white"/>
<path d="M82.8249 33.6877L81.9044 34.2499L82.8249 33.6877Z" fill="white"/>
<path d="M103.865 45.8547C103.865 45.8516 103.864 45.8488 103.861 45.8472L84.0056 33.6877L124.32 58.3867L103.87 45.8622C103.867 45.8606 103.865 45.8578 103.865 45.8547Z" fill="white"/>
<path d="M103.568 45.3171C103.568 44.6368 103.215 44.0054 102.635 43.6498L84.9775 32.8207C84.5685 32.5699 84.0428 32.8641 84.0428 33.3439C84.0428 33.5574 84.1538 33.7556 84.3359 33.8672L103.903 45.8596C103.807 45.8089 103.725 45.7319 103.666 45.6365C103.607 45.5412 103.573 45.4309 103.568 45.3171Z" fill="white"/>
<path d="M83.7255 32.0888C83.7323 32.0893 83.7388 32.0922 83.7437 32.0968L83.8197 32.1685C83.8391 32.1851 83.8569 32.2036 83.8729 32.2237C83.8947 32.2509 83.905 32.2854 83.904 32.3202C83.9037 32.3309 83.904 32.3415 83.9048 32.3521C83.9073 32.386 83.9069 32.42 83.9035 32.4537C83.9034 32.4543 83.9034 32.4549 83.9035 32.4554C83.9048 32.4637 83.9034 32.4634 83.9034 32.4551V32.2783C83.9034 32.2714 83.8998 32.2649 83.894 32.2612L83.7074 32.1437C83.6811 32.1271 83.6946 32.0865 83.7255 32.0888Z" fill="white"/>
<path d="M83.7203 33.5255C83.5307 33.4073 83.2904 33.4073 83.1008 33.5255C82.9292 33.6324 82.8248 33.8204 82.8248 34.0226V36.9809C82.8248 37.1336 82.9912 37.228 83.1223 37.1498C83.1886 37.1077 83.2621 37.0802 83.3385 37.0688C83.415 37.0575 83.4928 37.0625 83.5674 37.0837C83.642 37.1049 83.7118 37.1417 83.7727 37.192C83.8336 37.2423 83.8844 37.3051 83.922 37.3766C83.9618 37.4477 83.9879 37.5264 83.9987 37.6083C84.0095 37.6901 84.0049 37.7735 83.9849 37.8534C83.965 37.9333 83.9303 38.0082 83.8827 38.0737C83.8352 38.1392 83.7758 38.194 83.7081 38.2348L83.5703 38.3194C83.1071 38.6039 82.8248 39.1086 82.8248 39.6522V42.0608C82.8248 42.2135 82.9912 42.3079 83.1223 42.2297C83.1895 42.1889 83.2636 42.1625 83.3403 42.1521C83.4171 42.1416 83.495 42.1473 83.5697 42.1689C83.6444 42.1904 83.7144 42.2273 83.7756 42.2775C83.8368 42.3277 83.8881 42.3902 83.9266 42.4615C83.9651 42.5327 83.9899 42.6113 83.9998 42.6927C84.0096 42.7742 84.0042 42.8569 83.9839 42.9361C83.9636 43.0153 83.9288 43.0895 83.8815 43.1545C83.8342 43.2195 83.7752 43.2739 83.7081 43.3147L83.5565 43.4078C83.1018 43.6871 82.8248 44.1823 82.8248 44.7158V47.1454C82.8248 47.2981 82.9931 47.391 83.1223 47.3096C83.258 47.2417 83.4129 47.2308 83.5559 47.2789C83.6989 47.327 83.8195 47.4306 83.8935 47.569C83.9676 47.7074 83.9896 47.8704 83.9552 48.0253C83.9208 48.1802 83.8326 48.3156 83.7081 48.4044L83.5703 48.4891C83.1071 48.7736 82.8248 49.2782 82.8248 49.8219V52.2304C82.8248 52.3831 82.9912 52.4776 83.1223 52.3993C83.1895 52.3585 83.2636 52.3321 83.3403 52.3217C83.4171 52.3113 83.495 52.317 83.5697 52.3385C83.6444 52.36 83.7144 52.3969 83.7756 52.4471C83.8368 52.4974 83.8881 52.5599 83.9266 52.6311C83.9651 52.7023 83.9899 52.7809 83.9998 52.8624C84.0096 52.9438 84.0042 53.0265 83.9839 53.1057C83.9636 53.185 83.9288 53.2592 83.8815 53.3241C83.8342 53.3891 83.7752 53.4435 83.7081 53.4843L83.5704 53.5689C83.1071 53.8535 82.8248 54.3581 82.8248 54.9018V57.3103C82.8248 57.463 82.9912 57.5574 83.1223 57.4792C83.2001 57.4351 83.2855 57.4083 83.3734 57.4003H83.4571C83.5176 57.4024 83.5772 57.4161 83.633 57.4406C83.6458 57.4463 83.6596 57.4496 83.6736 57.4496C83.6901 57.4496 83.7063 57.4541 83.7204 57.4625L83.7391 57.4736C83.8524 57.5413 83.9963 57.4596 83.9963 57.3276V34.0226C83.9963 33.8204 83.892 33.6324 83.7203 33.5255Z" fill="white"/>
<path d="M83.9971 32.6304C83.9947 32.6335 83.9966 32.634 83.9971 32.6378C83.9983 32.6463 83.999 32.655 83.9994 32.6636C84.0011 32.7017 83.9997 32.7401 84.0002 32.7782C84.0005 32.7972 83.9997 32.8163 83.9978 32.8353C83.997 32.8445 83.9963 32.8452 83.9963 32.8545C83.9963 32.8907 83.9884 32.9355 83.9685 32.9657C83.9252 33.0317 83.868 33.0864 83.8011 33.1253L83.7854 33.1352C83.6564 33.2165 83.6587 33.4053 83.7896 33.4835C83.9258 33.5647 84.0986 33.4666 84.0986 33.308V32.6915C84.0986 32.6392 84.0289 32.5889 83.9971 32.6304Z" fill="white"/>
<path d="M63.2532 45.6721L81.9044 34.2498L63.2532 45.6721Z" fill="white"/>
<path d="M63.2532 45.6722L81.9044 34.2499L82.8249 33.6877L63.2532 45.6722Z" fill="white"/>
<path d="M82.8414 33.2894C82.831 33.0879 82.722 32.9045 82.55 32.799C82.3535 32.6785 82.106 32.6785 81.9096 32.7991L62.9976 44.4073C62.8616 44.4908 62.859 44.6876 62.9928 44.7746C63.084 44.828 63.1598 44.9067 63.2122 45.0023C63.2646 45.0978 63.2916 45.2066 63.2903 45.3171C63.2903 45.4725 63.4606 45.5679 63.5932 45.4868L82.5358 33.8873C82.7369 33.7642 82.8544 33.541 82.8423 33.3056L82.8414 33.2894Z" fill="white"/>
<path d="M83.95 32.365C83.9503 32.3584 83.9506 32.3518 83.9507 32.3451C83.9509 32.3375 83.9482 32.3374 83.9498 32.3448C83.9499 32.3452 83.95 32.3457 83.95 32.3462V32.365Z" fill="white"/>
<path d="M83.9963 32.5527C83.9963 32.5545 83.9985 32.5546 83.9987 32.5528C84.0004 32.5317 83.9999 32.5105 83.9971 32.4895C83.9967 32.4864 83.9963 32.4865 83.9963 32.4896C83.9963 32.4968 83.9963 32.5136 83.9963 32.5527Z" fill="white"/>
<path d="M83.7772 32.1284C83.7726 32.1241 83.7759 32.1202 83.7805 32.1245C83.785 32.1287 83.7817 32.1327 83.7772 32.1284Z" fill="white"/>
<path d="M83.1223 33.145C82.9912 33.0668 82.8248 33.1613 82.8248 33.314V33.3264C82.8248 33.4849 82.9981 33.5825 83.1336 33.5003C83.2618 33.4226 83.2648 33.2376 83.1391 33.1559L83.1223 33.145Z" fill="white"/>
<path d="M-nan -nanL83.9033 32.9379C83.8582 33.0252 83.7904 33.0971 83.7081 33.145L83.4105 33.3324L83.7081 33.145C83.7904 33.0971 83.8582 33.0252 83.9033 32.9379L-nan -nanZ" fill="white"/>
<path d="M83.9871 32.7209C83.9923 32.7634 83.9923 32.8066 83.9871 32.8491C83.9923 32.8066 83.9923 32.7634 83.9871 32.7209Z" fill="white"/>
<path d="M-nan -nanL83.457 33.2536H83.4105C83.3086 33.253 83.2087 33.2222 83.1223 33.1648C83.298 33.279 83.5241 33.2807 83.7014 33.169L83.7081 33.1648C83.6316 33.2137 83.5459 33.244 83.457 33.2536L-nan -nanZ" fill="white"/>
<path d="M83.9409 32.3031C83.9413 32.3103 83.9381 32.3105 83.9392 32.3033C83.9396 32.3011 83.94 32.2989 83.9404 32.2968L-nan -nanL83.9404 32.2968C83.9406 32.2989 83.9408 32.301 83.9409 32.3031Z" fill="white"/>
<path d="M-nan -nanL83.7081 33.145C83.7905 33.0971 83.8582 33.0252 83.9034 32.9379L-nan -nanL83.9034 32.9379C83.8557 33.0232 83.7885 33.0944 83.7081 33.145L-nan -nanZ" fill="white"/>
<path d="M82.8249 38.431C82.8249 37.9479 82.2957 37.6514 81.8837 37.9037L63.5486 49.1311C63.3651 49.2434 63.2532 49.4431 63.2532 49.6583C63.2532 50.1414 63.7824 50.4379 64.1943 50.1856L82.5294 38.9582C82.713 38.8459 82.8249 38.6462 82.8249 38.431Z" fill="white"/>
<path d="M83.7081 38.2348C83.7758 38.194 83.8352 38.1392 83.8827 38.0737C83.9303 38.0082 83.965 37.9334 83.9849 37.8534C84.0049 37.7735 84.0095 37.6902 83.9987 37.6083C83.9879 37.5265 83.9618 37.4477 83.922 37.3767C83.8844 37.3052 83.8336 37.2424 83.7727 37.192C83.7118 37.1417 83.642 37.1049 83.5674 37.0837C83.4928 37.0626 83.415 37.0575 83.3385 37.0689C83.2621 37.0802 83.1886 37.1078 83.1223 37.1498C82.9378 37.2599 82.8248 37.459 82.8248 37.6738V37.7408C82.8248 38.1942 83.3218 38.4721 83.7081 38.2348Z" fill="white"/>
<path d="M146.84 45.317L161.191 54.0976C164.395 56.0581 168.427 56.0575 171.631 54.0963L176.788 50.9395L171.631 54.0963C168.427 56.0575 164.395 56.0581 161.191 54.0976L146.84 45.317L161.19 36.5298C164.394 34.5675 168.428 34.5673 171.633 36.5293L176.788 39.6848L171.633 36.5293C168.428 34.5673 164.394 34.5675 161.19 36.5298L146.84 45.317Z" fill="white"/>
<path d="M166.114 33.1451C165.566 32.812 164.877 32.8132 164.33 33.1482L145.879 44.4524C145.779 44.5137 145.779 44.6592 145.88 44.7193L145.952 44.7621C145.955 44.7637 145.956 44.7666 145.956 44.7697C145.956 44.7727 145.958 44.7755 145.96 44.7771L146.378 45.0333C146.661 45.2074 147.018 45.2077 147.302 45.034L166.111 33.5161C166.249 33.4316 166.251 33.2314 166.114 33.1451Z" fill="white"/>
<path d="M166.699 32.074C166.705 32.0714 166.712 32.0719 166.718 32.0755C166.782 32.1169 166.837 32.1729 166.878 32.2392C166.89 32.2573 166.897 32.278 166.897 32.2994C166.897 32.301 166.897 32.3026 166.897 32.3042C166.897 32.3317 166.901 32.3592 166.91 32.385C166.93 32.4391 166.943 32.4956 166.95 32.5532V32.3429C166.95 32.2958 166.926 32.2521 166.886 32.2274L166.696 32.1105C166.682 32.1017 166.683 32.0806 166.699 32.074Z" fill="white"/>
<path d="M-nan -nanL166.495 33.2536H166.411C166.306 33.2533 166.203 33.2226 166.114 33.1648C166.296 33.2793 166.527 33.2793 166.709 33.1648C166.645 33.2112 166.572 33.2416 166.495 33.2536L-nan -nanZ" fill="white"/>
<path d="M-nan -nanL166.699 33.1451C166.798 33.0917 166.876 33.0049 166.923 32.8985L-nan -nanL166.923 32.8985C166.873 33.0025 166.795 33.0884 166.699 33.1451L-nan -nanZ" fill="white"/>
<path d="M166.709 32.0601V32.0707V32.0601H166.699H166.709Z" fill="white"/>
<path d="M-nan -nanL166.988 32.6326C166.988 32.6326 166.997 32.6118 166.988 32.6326L-nan -nanZ" fill="white"/>
<path d="M-nan -nanL166.895 32.2672C166.898 32.2931 166.898 32.3193 166.895 32.3451C166.898 32.3193 166.898 32.2931 166.895 32.2672L-nan -nanZ" fill="white"/>
<path d="M158.796 3.24771L165.816 7.54837L158.796 3.24771Z" fill="white"/>
<path d="M146.254 -4.43625L158.797 3.24769L165.816 7.54835L146.254 -4.43625Z" fill="white"/>
<path d="M-nan -nanL146.254 -5.52127V-4.82554C146.254 -4.58366 146.379 -4.35914 146.586 -4.2326L164.838 6.97086C165.25 7.22349 165.779 6.92734 165.779 6.44441C165.779 6.22943 165.667 6.02991 165.484 5.91763L145.919 -6.06378C146.016 -6.0148 146.099 -5.93824 146.158 -5.84252C146.217 -5.74679 146.25 -5.63562 146.254 -5.52127L-nan -nanZ" fill="white"/>
<path d="M165.825 7.14392C165.833 7.07522 165.848 7.00778 165.871 6.94312C165.877 6.92579 165.881 6.90761 165.881 6.88921C165.881 6.86227 165.888 6.83562 165.903 6.81345C165.951 6.74526 166.009 6.68672 166.076 6.64086L166.086 6.63522C166.217 6.55704 166.218 6.36769 166.088 6.28792C165.953 6.20498 165.779 6.30229 165.779 6.46093V7.12162C165.779 7.14837 165.825 7.17068 165.825 7.14392Z" fill="white"/>
<path d="M165.816 7.54834L166.114 7.72588L165.816 7.54834Z" fill="white"/>
<path d="M165.946 7.57563C165.916 7.53542 165.885 7.47807 165.866 7.43183C165.837 7.3633 165.823 7.28855 165.825 7.21301C165.825 7.21301 165.825 7.21301 165.825 7.21301V7.57797L166.123 7.75551C166.065 7.71827 166.014 7.66972 165.972 7.61246C165.961 7.59635 165.958 7.59156 165.946 7.57563Z" fill="white"/>
<path d="M166.114 7.72592C166.064 7.69111 166.02 7.64777 165.983 7.59769C166.02 7.64777 166.064 7.69111 166.114 7.72592Z" fill="white"/>
<path d="M-nan -nanL166.7 7.73572C166.634 7.76245 166.565 7.77905 166.495 7.78503C166.565 7.77905 166.634 7.76245 166.7 7.73572L-nan -nanZ" fill="white"/>
<path d="M166.114 7.72592C166.064 7.69125 166.02 7.64789 165.983 7.59769C166.02 7.64777 166.064 7.69111 166.114 7.72592Z" fill="white"/>
<path d="M-nan -nanL166.486 7.79497C166.556 7.789 166.625 7.7724 166.69 7.74567L-nan -nanL166.69 7.74567C166.626 7.77568 166.556 7.7924 166.486 7.79497L-nan -nanZ" fill="white"/>
<path d="M-nan -nanL165.881 6.91708C165.853 6.9896 165.834 7.06597 165.825 7.14396C165.834 7.06597 165.853 6.9896 165.881 6.91708L-nan -nanZ" fill="white"/>
<path d="M-nan -nanL165.918 6.84799C165.966 6.76268 166.033 6.69143 166.114 6.64083L166.411 6.46329L166.114 6.64083C166.035 6.69427 165.969 6.76492 165.918 6.84799L-nan -nanZ" fill="white"/>
<path d="M-nan -nanL165.9 7.49907C165.9 7.49907 165.9 7.49907 165.946 7.55825C165.874 7.45878 165.832 7.3384 165.825 7.21301C165.823 7.31413 165.849 7.41383 165.9 7.49907L-nan -nanZ" fill="white"/>
<path d="M-nan -nanL165.946 7.60751C165.85 7.50515 165.793 7.36765 165.788 7.22281L-nan -nanL165.788 7.22281C165.797 7.3666 165.853 7.50261 165.946 7.60751L-nan -nanZ" fill="white"/>
<path d="M-nan -nanL166.7 6.62118L166.52 6.51065C166.453 6.46946 166.369 6.46887 166.302 6.50911L166.114 6.62118C166.203 6.56758 166.304 6.53942 166.407 6.53942C166.509 6.53942 166.61 6.56758 166.7 6.62118L-nan -nanZ" fill="white"/>
<path d="M166.709 6.62115C166.786 6.66859 166.85 6.73661 166.895 6.81844C166.85 6.73661 166.786 6.66859 166.709 6.62115Z" fill="white"/>
<path d="M-nan -nanL166.932 6.92694C166.959 6.99308 166.978 7.06272 166.988 7.13407C166.978 7.06272 166.959 6.99308 166.932 6.92694L-nan -nanZ" fill="white"/>
<path d="M-nan -nanL166.114 7.72586C166.181 7.76052 166.253 7.78064 166.328 7.78504H166.411C166.309 7.79378 166.206 7.77335 166.114 7.72586L-nan -nanZ" fill="white"/>
<path d="M-nan -nanL166.988 7.22281C166.989 7.31313 166.967 7.40213 166.923 7.47928C166.967 7.40213 166.989 7.31313 166.988 7.22281L-nan -nanZ" fill="white"/>
<path d="M166.699 6.62109C166.61 6.5675 166.509 6.53934 166.407 6.53934C166.304 6.53934 166.203 6.5675 166.114 6.62109C166.044 6.66476 165.985 6.72378 165.939 6.79396C165.925 6.81596 165.918 6.84201 165.918 6.86826C165.918 6.88744 165.915 6.90639 165.908 6.92447C165.886 6.98879 165.87 7.05585 165.863 7.12416V7.19319C165.868 7.33803 165.924 7.47553 166.021 7.57789C166.057 7.6281 166.101 7.67146 166.151 7.70613C166.241 7.7639 166.343 7.79459 166.448 7.7949H166.523C166.597 7.7905 166.67 7.77038 166.737 7.73572C166.828 7.67775 166.905 7.59638 166.96 7.49899L-nan -nanL166.96 7.49899C167.001 7.4281 167.023 7.34721 167.025 7.26447C167.025 7.24987 167.026 7.23529 167.027 7.22073C167.029 7.19841 167.028 7.1759 167.025 7.15375C167.017 7.09771 167.004 7.04271 166.985 6.98965C166.975 6.96114 166.972 6.93083 166.972 6.90065C166.971 6.87881 166.964 6.85768 166.952 6.83917C166.909 6.77001 166.851 6.71221 166.783 6.6704L166.699 6.62109Z" fill="white"/>
<path d="M146.254 0.299615C146.254 0.513342 146.365 0.711702 146.547 0.823352L164.875 12.0517C165.287 12.304 165.816 12.0076 165.816 11.5246C165.816 11.3094 165.704 11.1097 165.521 10.9974L147.189 -0.22424C146.78 -0.474767 146.254 -0.180244 146.254 0.299615Z" fill="white"/>
<path d="M145.956 -0.98387C145.822 -1.04731 145.671 -1.05595 145.531 -1.00813C145.391 -0.960315 145.273 -0.859437 145.199 -0.724842C145.126 -0.590246 145.101 -0.431435 145.131 -0.278969C145.161 -0.126504 145.243 0.00888276 145.361 0.10116C145.771 0.344883 146.291 0.0448685 146.291 -0.432308C146.291 -0.656277 146.17 -0.864226 145.974 -0.973649L145.956 -0.98387Z" fill="white"/>
<path d="M166.114 12.8156C166.204 12.8704 166.307 12.8977 166.411 12.8945C166.541 12.8951 166.667 12.85 166.77 12.7661C166.873 12.6822 166.947 12.5643 166.98 12.431C167.013 12.2978 167.004 12.1566 166.953 12.0299C166.902 11.9031 166.813 11.7978 166.699 11.7306C166.313 11.4933 165.816 11.7713 165.816 12.2247V12.2916C165.816 12.5065 165.929 12.7055 166.114 12.8156Z" fill="white"/>
<path d="M146.254 5.38711C146.254 5.60223 146.366 5.80188 146.549 5.91426L164.875 17.1414C165.287 17.3937 165.816 17.0973 165.816 16.6142C165.816 16.3991 165.704 16.1995 165.521 16.0871L147.195 4.85997C146.783 4.60761 146.254 4.90403 146.254 5.38711Z" fill="white"/>
<path d="M145.956 4.10588C145.889 4.0636 145.815 4.0359 145.738 4.02443C145.661 4.01295 145.582 4.0179 145.507 4.03903C145.432 4.06015 145.361 4.09702 145.299 4.14745C145.237 4.19789 145.186 4.26087 145.147 4.33273C145.069 4.47684 145.048 4.64778 145.088 4.80844C145.128 4.96909 145.226 5.10649 145.361 5.19088C145.773 5.43137 146.291 5.13319 146.291 4.65603C146.291 4.42696 146.164 4.21631 145.962 4.10897L145.956 4.10588Z" fill="white"/>
<path d="M166.114 17.8955C166.203 17.9533 166.306 17.984 166.411 17.9843C166.515 17.9826 166.616 17.9527 166.706 17.8974C166.795 17.8421 166.87 17.7634 166.922 17.6687C167 17.5234 167.02 17.3515 166.978 17.1907C166.936 17.0299 166.836 16.8932 166.699 16.8105C166.313 16.5732 165.816 16.8512 165.816 17.3046V17.3715C165.816 17.5864 165.929 17.7854 166.114 17.8955Z" fill="white"/>
<path d="M146.254 10.467C146.254 10.6822 146.366 10.8818 146.549 10.9942L164.875 22.2213C165.287 22.4737 165.816 22.1772 165.816 21.6942C165.816 21.479 165.704 21.2794 165.521 21.167L147.195 9.9399C146.783 9.68754 146.254 9.98396 146.254 10.467Z" fill="white"/>
<path d="M145.999 9.20834C145.971 9.1933 145.944 9.17527 145.917 9.15764C145.86 9.11993 145.797 9.09278 145.731 9.07747C145.649 9.05858 145.564 9.05812 145.483 9.07614C145.401 9.09416 145.324 9.13025 145.256 9.18204C145.188 9.23384 145.131 9.30018 145.089 9.37677C145.047 9.45336 145.021 9.53846 145.012 9.62656C145.003 9.71465 145.012 9.80376 145.037 9.88809C145.063 9.97241 145.105 10.0501 145.161 10.116C145.217 10.1819 145.285 10.2347 145.361 10.2708C145.773 10.5112 146.291 10.214 146.291 9.73681V9.69394C146.291 9.49049 146.179 9.30368 145.999 9.20834Z" fill="white"/>
<path d="M166.114 22.9853C166.206 23.0357 166.308 23.0627 166.411 23.0642C166.515 23.0645 166.617 23.0354 166.707 22.9799C166.797 22.9244 166.871 22.8446 166.922 22.7486C167 22.6033 167.02 22.4315 166.978 22.2707C166.936 22.1099 166.836 21.9732 166.699 21.8904C166.313 21.6531 165.816 21.9311 165.816 22.3845V22.4558C165.816 22.6687 165.925 22.8667 166.105 22.9802L166.114 22.9853Z" fill="white"/>
<path d="M146.254 15.5567C146.254 15.7719 146.366 15.9716 146.549 16.084L164.869 27.3072C165.284 27.5612 165.816 27.2628 165.816 26.7765C165.816 26.5599 165.704 26.3588 165.519 26.2457L147.195 15.0292C146.783 14.777 146.254 15.0735 146.254 15.5567Z" fill="white"/>
<path d="M145.956 14.2656C145.822 14.2022 145.671 14.1936 145.531 14.2414C145.391 14.2892 145.273 14.3901 145.199 14.5247C145.126 14.6593 145.101 14.8181 145.131 14.9705C145.161 15.123 145.243 15.2584 145.361 15.3507C145.771 15.5944 146.291 15.2944 146.291 14.8172C146.291 14.5932 146.17 14.3853 145.974 14.2759L145.956 14.2656Z" fill="white"/>
<path d="M166.114 28.0652C166.204 28.12 166.307 28.1473 166.411 28.1441C166.541 28.1447 166.667 28.0995 166.77 28.0156C166.873 27.9317 166.947 27.8139 166.98 27.6806C167.013 27.5474 167.004 27.4062 166.953 27.2795C166.902 27.1527 166.813 27.0474 166.699 26.9802C166.313 26.7429 165.816 27.0209 165.816 27.4743V27.5412C165.816 27.7561 165.929 27.9551 166.114 28.0652Z" fill="white"/>
<path d="M165.221 32.6026L160.349 29.6237L165.221 32.6026Z" fill="white"/>
<path d="M145.659 20.618L160.349 29.6237L165.221 32.6025L145.659 20.618Z" fill="white"/>
<path d="M146.565 19.7238C146.429 19.6403 146.254 19.7382 146.254 19.8979C146.254 20.0082 146.227 20.1166 146.174 20.2119C146.122 20.3073 146.047 20.3861 145.956 20.4404C145.821 20.5212 145.82 20.7168 145.954 20.7992L164.873 32.4116C165.064 32.5287 165.304 32.5288 165.495 32.4117C165.671 32.3035 165.779 32.1115 165.779 31.9045V31.8775C165.779 31.6538 165.663 31.4462 165.472 31.3292L146.565 19.7238Z" fill="white"/>
<path d="M-nan -nanL145.687 19.2764C145.779 19.2769 145.869 19.3043 145.947 19.3554C145.87 19.3011 145.779 19.2735 145.687 19.2764L-nan -nanZ" fill="white"/>
<path d="M-nan -nanL145.408 19.3356C145.473 19.3055 145.542 19.2856 145.612 19.2764C145.542 19.2856 145.473 19.3055 145.408 19.3356L-nan -nanZ" fill="white"/>
<path d="M-nan -nanL145.082 19.9374C145.082 20.0169 145.101 20.0951 145.138 20.1643C145.101 20.0951 145.082 20.0169 145.082 19.9374L-nan -nanZ" fill="white"/>
<path d="M-nan -nanL145.166 20.2333C145.214 20.3186 145.281 20.3898 145.361 20.4404L145.659 20.618L145.361 20.4404C145.281 20.3898 145.214 20.3186 145.166 20.2333L-nan -nanZ" fill="white"/>
<path d="M145.938 19.3554C145.941 19.3554 145.942 19.3519 145.94 19.3505C145.863 19.3025 145.776 19.2769 145.687 19.2764H145.612C145.542 19.2856 145.473 19.3055 145.408 19.3356C145.301 19.3898 145.21 19.4754 145.148 19.5822C145.09 19.6898 145.067 19.8146 145.082 19.9373C145.082 20.0054 145.096 20.0725 145.123 20.1338C145.132 20.1541 145.138 20.1758 145.138 20.1981C145.138 20.2211 145.144 20.244 145.156 20.2634C145.202 20.3354 145.263 20.3959 145.333 20.4404C145.517 20.5498 145.745 20.5498 145.929 20.4404C146.019 20.3861 146.094 20.3073 146.147 20.2119C146.199 20.1166 146.226 20.0082 146.226 19.8979V19.5798C146.226 19.5507 146.211 19.5238 146.186 19.5089L145.937 19.3603C145.934 19.3589 145.935 19.3554 145.938 19.3554Z" fill="white"/>
<path d="M165.816 31.9207C165.816 32.0734 165.982 32.1679 166.114 32.0896C166.203 32.0361 166.304 32.0079 166.406 32.0079C166.509 32.0079 166.61 32.0361 166.699 32.0896L166.125 31.737C165.99 31.6539 165.816 31.7512 165.816 31.9099V31.9207Z" fill="white"/>
<path d="M165.221 32.6026L166.114 33.1451L165.221 32.6026Z" fill="white"/>
<path d="M166.114 33.1451C166.023 33.0916 165.947 33.0129 165.894 32.9174C165.842 32.8219 165.815 32.7131 165.816 32.6026C165.816 32.4558 165.655 32.3658 165.53 32.4426L165.51 32.4551C165.38 32.5349 165.382 32.7249 165.515 32.8009L166.114 33.1451Z" fill="white"/>
<path d="M-nan -nanL166.988 32.6321C166.99 32.7257 166.968 32.8181 166.923 32.8985C166.968 32.8181 166.99 32.7257 166.988 32.6321L-nan -nanZ" fill="white"/>
<path d="M-nan -nanL166.709 32.0699C166.786 32.1173 166.85 32.1853 166.895 32.2671C166.85 32.1853 166.786 32.1173 166.709 32.0699L-nan -nanZ" fill="white"/>
<path d="M-nan -nanL166.932 32.3461C166.961 32.4113 166.98 32.4813 166.988 32.5532C166.979 32.4816 166.96 32.4118 166.932 32.3461L-nan -nanZ" fill="white"/>
<path d="M-nan -nanL166.411 33.2536C166.306 33.2533 166.203 33.2226 166.114 33.1648L-nan -nanL166.114 33.1648C166.203 33.2226 166.306 33.2533 166.411 33.2536L-nan -nanZ" fill="white"/>
<path d="M-nan -nanL166.495 33.2535C166.566 33.2492 166.636 33.229 166.7 33.1944C166.636 33.229 166.566 33.2492 166.495 33.2535L-nan -nanZ" fill="white"/>
<path d="M-nan -nanL166.932 32.3461C166.935 32.3241 166.935 32.3018 166.933 32.2797C166.933 32.2714 166.93 32.2634 166.926 32.2562C166.881 32.1793 166.82 32.1152 166.746 32.0699L-nan -nanL166.746 32.0699C166.657 32.0163 166.556 31.9881 166.453 31.9881C166.35 31.9881 166.25 32.0163 166.16 32.0699C165.976 32.18 165.863 32.3791 165.863 32.5939V32.6124C165.865 32.7791 165.929 32.9381 166.04 33.056C166.151 33.1738 166.301 33.2411 166.458 33.2437H166.541C166.613 33.2393 166.682 33.2192 166.746 33.1845C166.839 33.1331 166.917 33.0544 166.969 32.9577L-nan -nanL166.969 32.9577C167.014 32.8783 167.036 32.7873 167.034 32.6951C167.034 32.6926 167.034 32.6901 167.034 32.6876C167.034 32.6786 167.034 32.6546 167.034 32.6327C167.034 32.6192 167.033 32.6057 167.031 32.5924C167.015 32.5039 166.981 32.4199 166.932 32.3461L-nan -nanZ" fill="white"/>
<path d="M-nan -nanL-0.0826612 6.87759C-0.0322918 6.79452 0.0342967 6.72387 0.112597 6.67043L0.155127 6.64505C0.27109 6.57585 0.272107 6.40824 0.156993 6.33764L0.124141 6.31749C-0.011096 6.23455 -0.184937 6.33186 -0.184937 6.49051V7.18337C-0.184328 7.07212 -0.148285 6.96436 -0.0826612 6.87759L-nan -nanZ" fill="white"/>
<path d="M-nan -nanL0.372868 6.62117H0.447251C0.541064 6.62891 0.632595 6.65568 0.716878 6.70006L-nan -nanL0.716878 6.70006L0.461377 6.5476C0.435486 6.53215 0.403205 6.53215 0.377314 6.5476L0.159008 6.67788C0.148598 6.68409 0.153003 6.70006 0.165125 6.70006C0.167217 6.70006 0.169271 6.69951 0.171088 6.69848C0.234413 6.66237 0.302398 6.63633 0.372868 6.62117L-nan -nanZ" fill="white"/>
<path d="M-0.0827386 11.9575C-0.0442359 11.8856 0.00740047 11.8226 0.069135 11.7722C0.130869 11.7218 0.201464 11.6849 0.276792 11.6638C0.352121 11.6427 0.430669 11.6377 0.507831 11.6492C0.584992 11.6606 0.659208 11.6883 0.726157 11.7306L-nan -nanL0.726157 11.7306L0.38698 11.5327C0.12519 11.38 -0.203613 11.5688 -0.203613 11.8719V12.2816C-0.203613 12.4973 -0.0928706 12.698 0.089674 12.813L0.0939199 12.8156C-0.0347897 12.7249 -0.125188 12.5847 -0.158158 12.4245C-0.191127 12.2643 -0.164083 12.0969 -0.0827386 11.9575Z" fill="white"/>
<path d="M-nan -nanL-0.0827386 17.0374C-0.0442359 16.9655 0.00740047 16.9025 0.069135 16.8521C0.130869 16.8016 0.201464 16.7648 0.276792 16.7436C0.352121 16.7225 0.430669 16.7175 0.507831 16.729C0.584992 16.7405 0.659208 16.7682 0.726157 16.8105L-nan -nanL0.726157 16.8105L0.38698 16.6126C0.12519 16.4598 -0.203613 16.6487 -0.203613 16.9517V17.3715C-0.203613 17.5864 -0.0906011 17.7854 0.0939199 17.8955C-0.0347897 17.8048 -0.125188 17.6645 -0.158158 17.5044C-0.191127 17.3442 -0.164083 17.1767 -0.0827386 17.0374L-nan -nanZ" fill="white"/>
<path d="M-nan -nanL-0.0827386 22.1272C-0.00473888 21.9823 0.124121 21.8761 0.275686 21.8318C0.427251 21.7874 0.589197 21.8085 0.726157 21.8904C0.314027 21.6499 -0.203613 21.9472 -0.203613 22.4244V22.4514C-0.203613 22.6663 -0.0906011 22.8653 0.0939199 22.9754C0.0295535 22.9323 -0.0261203 22.8761 -0.0698851 22.81C-0.11365 22.7439 -0.144641 22.6692 -0.161066 22.5904C-0.177491 22.5115 -0.179021 22.43 -0.165577 22.3505C-0.152134 22.2709 -0.123981 22.195 -0.0827386 22.1272L-nan -nanZ" fill="white"/>
<path d="M-nan -nanL-0.0827386 27.2071C-0.0442359 27.1352 0.00740047 27.0722 0.069135 27.0218C0.130869 26.9714 0.201464 26.9345 0.276792 26.9134C0.352121 26.8922 0.430669 26.8873 0.507831 26.8988C0.584992 26.9102 0.659208 26.9379 0.726157 26.9802L-nan -nanL0.726157 26.9802L0.386986 26.7823C0.125197 26.6295 -0.203613 26.8184 -0.203613 27.1215V27.5393C-0.203613 27.7497 -0.0945174 27.945 0.0846132 28.0554C-0.0419216 27.9649 -0.130194 27.8257 -0.161449 27.6673C-0.192704 27.5088 -0.164469 27.3437 -0.0827386 27.2071L-nan -nanZ" fill="white"/>
<path d="M0.100987 32.0729C0.11461 32.0645 0.130314 32.06 0.146335 32.06C0.16076 32.06 0.174888 32.0563 0.187842 32.0499C0.246011 32.0214 0.308774 32.0047 0.372869 32.0008H0.447252C0.541065 32.0086 0.632596 32.0353 0.716879 32.0797L-nan -nanL0.716879 32.0797L0.0975578 31.7184C-0.0400533 31.6381 -0.212891 31.7373 -0.212891 31.8967V31.9274C-0.212891 32.0757 -0.0500756 32.1664 0.0760452 32.0883L0.100987 32.0729Z" fill="white"/>
<path d="M-nan -nanL-0.0828511 32.9379C-0.0828511 32.9379 -0.0828511 32.9036 -0.0828511 32.8808C-0.0828511 32.8729 -0.0845151 32.8652 -0.0875076 32.8579C-0.108025 32.808 -0.121184 32.7551 -0.126583 32.7012C-0.129285 32.6741 -0.129342 32.6297 -0.129342 32.6026C-0.129342 32.4565 -0.289966 32.3673 -0.413981 32.4446L-0.438054 32.4596C-0.565392 32.5389 -0.564798 32.7245 -0.436955 32.803L0.168191 33.1747C0.063575 33.125 -0.0240822 33.0423 -0.0828511 32.9379L-nan -nanZ" fill="white"/>
<path d="M0.00551051 32.1274C-0.108739 32.2155 -0.175654 32.3517 -0.175654 32.496V32.6321C-0.175654 32.6321 -0.175654 32.6321 -0.175654 32.6814C-0.192448 32.536 -0.159448 32.389 -0.0826716 32.2671C-0.0289607 32.1742 0.0477638 32.099 0.138777 32.0496C0.147502 32.0448 0.144233 32.0304 0.134305 32.0304C0.132273 32.0304 0.130299 32.0311 0.128691 32.0323L0.00551051 32.1274Z" fill="white"/>
<path d="M13.8917 14.7095L21.1625 19.168L13.8917 14.7095Z" fill="white"/>
<path d="M1.91005 7.37359C1.72011 7.25703 1.4806 7.25784 1.29145 7.37569C1.1191 7.48307 1.01434 7.67177 1.01434 7.87483V7.91178C1.01434 8.13947 1.13265 8.35081 1.32674 8.46985L20.2368 20.0673C20.3693 20.1486 20.5395 20.0533 20.5395 19.8979C20.5383 19.7874 20.5653 19.6786 20.6177 19.583C20.6701 19.4875 20.7459 19.4088 20.837 19.3554C20.9709 19.2684 20.9683 19.0716 20.8323 18.9881L13.8638 14.7095L1.91005 7.37359Z" fill="white"/>
<path d="M1.01434 7.18339C1.01434 7.34138 1.18802 7.44014 1.32211 7.35659C1.44949 7.27723 1.44739 7.09082 1.31905 7.01301C1.18577 6.93221 1.01434 7.02753 1.01434 7.18339Z" fill="white"/>
<path d="M-nan -nanL0.912159 6.84803V6.91047C0.912159 6.92126 0.915045 6.93182 0.919994 6.94141C0.949609 6.99878 0.966021 7.06282 0.967823 7.1283C0.967928 7.13214 0.967943 7.13597 0.967943 7.13981C0.967943 7.14583 0.967943 7.15815 0.967943 7.1834C0.967943 6.96454 0.855597 6.75752 0.67041 6.64087C0.765573 6.6882 0.848526 6.75929 0.912159 6.84803L-nan -nanZ" fill="white"/>
<path d="M0.716863 7.72588C0.640731 7.76378 0.558905 7.78716 0.475128 7.79494H0.428637C0.323693 7.79463 0.220813 7.76394 0.131104 7.70617L0.747467 8.07235C0.885751 8.1545 1.06087 8.05484 1.06087 7.894V7.87509C1.06087 7.7224 0.894477 7.62792 0.763355 7.70617L0.716863 7.72588Z" fill="white"/>
<path d="M1.00515 7.21297C0.999075 7.31272 0.973756 7.41009 0.930762 7.49903C0.881763 7.59508 0.807459 7.6739 0.716919 7.72588L0.979113 7.56942C1.00102 7.55634 1.01444 7.53271 1.01444 7.5072V7.21456C1.01444 7.20711 1.00515 7.20552 1.00515 7.21297Z" fill="white"/>
<path d="M-nan -nanL0.121826 7.72586C0.211536 7.78363 0.314402 7.81432 0.419345 7.81463C0.314402 7.81432 0.211536 7.78363 0.121826 7.72586L-nan -nanZ" fill="white"/>
<path d="M-nan -nanL0.707458 7.72587C0.797998 7.67389 0.872303 7.59508 0.921302 7.49902L-nan -nanL0.921302 7.49902C0.871465 7.59441 0.79737 7.673 0.707458 7.72587L-nan -nanZ" fill="white"/>
<path d="M21.4601 19.3554C21.5424 19.4033 21.6102 19.4751 21.6553 19.5625C21.6102 19.4751 21.5424 19.4033 21.4601 19.3554Z" fill="white"/>
<path d="M-nan -nanL21.7483 19.8486C21.7397 19.7738 21.7209 19.7007 21.6925 19.6316C21.7209 19.7007 21.7397 19.7738 21.7483 19.8486L-nan -nanZ" fill="white"/>
<path d="M21.7484 19.8486C21.7414 19.7878 21.7277 19.7281 21.7075 19.6708C21.6984 19.6449 21.6956 19.6172 21.6948 19.5898C21.6943 19.5717 21.6886 19.5542 21.6795 19.5386C21.6348 19.462 21.5721 19.3989 21.4973 19.3554L21.4907 19.3512C21.3134 19.2395 21.0873 19.2412 20.9116 19.3554C20.8204 19.4089 20.7446 19.4876 20.6922 19.5831C20.6398 19.6786 20.6128 19.7874 20.6141 19.8979C20.6141 20.1168 20.7264 20.3238 20.9116 20.4404C20.9992 20.494 21.0988 20.5212 21.1998 20.5193C21.2658 20.5156 21.3306 20.5004 21.3919 20.4744C21.4126 20.4657 21.4236 20.4602 21.4462 20.4602C21.4724 20.4602 21.5095 20.4534 21.5312 20.4386C21.5859 20.4011 21.6345 20.3546 21.6754 20.301C21.7082 20.2579 21.7311 20.2079 21.7433 20.1552C21.7666 20.055 21.7685 19.9503 21.7484 19.8486Z" fill="white"/>
<path d="M-nan -nanL-0.0828247 6.86775C-0.0324552 6.78468 0.0341332 6.71405 0.112433 6.66061C0.0341332 6.71405 -0.0324552 6.78468 -0.0828247 6.86775L-nan -nanZ" fill="white"/>
<path d="M-0.0828247 7.51877C-0.0376782 7.60614 0.0300719 7.67801 0.112433 7.7259L-nan -nanL0.112433 7.7259C0.0300719 7.67801 -0.0376782 7.60614 -0.0828247 7.51877Z" fill="white"/>
<path d="M-nan -nanL0.12165 7.7259C0.0392882 7.67801 -0.0284619 7.60614 -0.0736084 7.51877L-nan -nanL-0.0736084 7.51877C-0.0284619 7.60614 0.0392882 7.67801 0.12165 7.7259L-nan -nanZ" fill="white"/>
<path d="M-nan -nanL0.372824 6.62115C0.302302 6.63028 0.2334 6.65022 0.168274 6.68034C0.2334 6.65022 0.302302 6.63028 0.372824 6.62115L-nan -nanZ" fill="white"/>
<path d="M-nan -nanL0.447144 6.56192C0.541166 6.56836 0.632934 6.59521 0.716771 6.64082C0.632487 6.59643 0.540956 6.56966 0.447144 6.56192L-nan -nanZ" fill="white"/>
<path d="M-nan -nanL0.939941 6.92694C0.976753 6.98894 0.996105 7.0608 0.995725 7.13407C0.994673 7.06102 0.97543 6.98956 0.939941 6.92694L-nan -nanZ" fill="white"/>
<path d="M-nan -nanL0.912177 6.84803C0.861807 6.76496 0.795219 6.69431 0.716919 6.64087L-nan -nanL0.716919 6.64087C0.795219 6.69431 0.861807 6.76496 0.912177 6.84803L-nan -nanZ" fill="white"/>
<path d="M-nan -nanL0.70757 7.73572C0.631438 7.77362 0.549598 7.797 0.46582 7.80477C0.549598 7.797 0.631438 7.77362 0.70757 7.73572L-nan -nanZ" fill="white"/>
<path d="M-nan -nanL0.121826 7.72586C0.211536 7.78363 0.314402 7.81432 0.419345 7.81463L-nan -nanL0.419345 7.81463C0.314402 7.81432 0.211536 7.78363 0.121826 7.72586L-nan -nanZ" fill="white"/>
<path d="M-nan -nanL1.00505 7.21301C0.998977 7.31276 0.973658 7.41013 0.930664 7.49907C0.973658 7.41013 0.998977 7.31276 1.00505 7.21301L-nan -nanZ" fill="white"/>
<path d="M0.419312 7.81469H0.465803C0.54958 7.80692 0.63142 7.78357 0.707552 7.74567L-nan -nanL0.707552 7.74567C0.619777 7.79773 0.519657 7.82169 0.419312 7.81469Z" fill="white"/>
<path d="M-nan -nanL0.939918 6.92688V6.86522C0.939918 6.85394 0.936882 6.84285 0.9308 6.83335C0.881621 6.7566 0.818323 6.69109 0.74466 6.64082L-nan -nanL0.74466 6.64082C0.660823 6.59521 0.569055 6.56836 0.475033 6.56192H0.400649C0.339014 6.5699 0.278616 6.58613 0.220895 6.6102C0.204425 6.61707 0.186856 6.6211 0.169012 6.6211C0.144252 6.6211 0.119863 6.6283 0.100262 6.64343C0.0352077 6.69363 -0.0205959 6.75626 -0.0642356 6.82823L-nan -nanL-0.0642356 6.82823C-0.108147 6.90399 -0.133412 6.99009 -0.137901 7.07862C-0.13877 7.09577 -0.140891 7.11285 -0.142091 7.12997C-0.142434 7.13486 -0.142595 7.13975 -0.142577 7.14465C-0.142478 7.17057 -0.138902 7.19643 -0.136797 7.22227C-0.132651 7.27316 -0.121621 7.32318 -0.104041 7.37077C-0.0967504 7.3905 -0.0921276 7.40312 -0.0921276 7.42416C-0.0921276 7.44855 -0.0866339 7.4809 -0.0739487 7.50174C-0.0296305 7.57454 0.0311613 7.6347 0.103116 7.67654L-nan -nanL0.103116 7.67654C0.192826 7.73431 0.295706 7.765 0.400649 7.76531C0.502856 7.76638 0.603096 7.7355 0.688876 7.67654C0.782216 7.62517 0.859677 7.54641 0.912026 7.44966L-nan -nanL0.912026 7.44966C0.946306 7.37875 0.969341 7.30247 0.980347 7.22391C0.985865 7.18452 0.986395 7.14275 0.986395 7.10298C0.986395 7.0965 0.986395 7.09025 0.986395 7.0847C0.981865 7.02914 0.966014 6.97529 0.939918 6.92688L-nan -nanZ" fill="white"/>
<path d="M1.01434 13.0118C1.01434 13.227 1.12617 13.4266 1.3096 13.539L19.6356 24.7661C20.0475 25.0185 20.5767 24.722 20.5767 24.239C20.5767 24.0239 20.4649 23.8242 20.2815 23.7118L1.9555 12.4847C1.54357 12.2323 1.01434 12.5288 1.01434 13.0118Z" fill="white"/>
<path d="M-nan -nanL0.930722 12.5888C0.877673 12.6823 0.802674 12.7596 0.713048 12.8132C0.623422 12.8668 0.522227 12.8948 0.419345 12.8945C0.315221 12.8977 0.212289 12.8704 0.121826 12.8157L-nan -nanL0.121826 12.8157L0.43867 13.0103C0.68642 13.1624 1.0051 12.9842 1.0051 12.6934V12.2467C1.0051 12.0363 0.896007 11.841 0.716878 11.7306C0.784617 11.7715 0.843985 11.8263 0.891522 11.8918C0.939059 11.9573 0.973812 12.0321 0.993727 12.112C1.01364 12.192 1.01832 12.2753 1.0075 12.3571C0.996685 12.439 0.970582 12.5177 0.930722 12.5888L-nan -nanZ" fill="white"/>
<path d="M20.8389 25.5041C20.8625 25.5149 20.885 25.5278 20.9076 25.5404C20.9862 25.5841 21.0735 25.6077 21.1625 25.6091C21.2675 25.6081 21.3705 25.5786 21.4617 25.5233C21.5528 25.468 21.6291 25.3889 21.6832 25.2934C21.7604 25.1481 21.7803 24.9763 21.7385 24.8155C21.6967 24.6547 21.5966 24.518 21.4601 24.4353C21.0488 24.1953 20.5303 24.4907 20.5303 24.9668V25.0229C20.5303 25.2298 20.6508 25.4178 20.8389 25.5041Z" fill="white"/>
<path d="M-nan -nanL-0.0827316 11.9575C-0.160724 12.1016 -0.182011 12.2726 -0.141977 12.4332C-0.101943 12.5939 -0.00382157 12.7313 0.131112 12.8157C0.221575 12.8705 0.32452 12.8978 0.428645 12.8946C0.559328 12.8974 0.68716 12.8539 0.791794 12.7707C0.896427 12.6876 0.971851 12.5698 1.00606 12.436C1.04027 12.3021 1.0313 12.16 0.980582 12.0322C0.929863 11.9044 0.840305 11.7982 0.726164 11.7307L-nan -nanL0.726164 11.7307C0.659216 11.6884 0.584999 11.6607 0.507838 11.6492C0.430676 11.6377 0.352128 11.6427 0.2768 11.6638C0.201471 11.685 0.130877 11.7218 0.069142 11.7723C0.00740752 11.8227 -0.0442288 11.8857 -0.0827316 11.9575L-nan -nanZ" fill="white"/>
<path d="M1.01434 18.0918C1.01434 18.3069 1.12617 18.5066 1.30959 18.619L19.6355 29.8461C20.0475 30.0985 20.5767 29.8021 20.5767 29.319C20.5767 29.1039 20.4649 28.9042 20.2814 28.7918L1.95548 17.5647C1.54356 17.3123 1.01434 17.6088 1.01434 18.0918Z" fill="white"/>
<path d="M-nan -nanL0.930722 17.6687C0.878135 17.7634 0.803492 17.8422 0.713942 17.8975C0.624391 17.9527 0.522937 17.9826 0.419345 17.9843C0.314402 17.984 0.211536 17.9533 0.121826 17.8956L-nan -nanL0.121826 17.8956L0.438664 18.0902C0.686413 18.2424 1.00511 18.0641 1.00511 17.7733V17.3267C1.00511 17.1163 0.896009 16.9209 0.716879 16.8105C0.851812 16.8949 0.949933 17.0324 0.989967 17.193C1.03 17.3537 1.00871 17.5246 0.930722 17.6687L-nan -nanZ" fill="white"/>
<path d="M20.8743 30.61C20.9634 30.6593 21.062 30.6862 21.1625 30.6889C21.2923 30.6874 21.418 30.6409 21.5205 30.5565C21.6231 30.4722 21.6968 30.3546 21.7305 30.2216C21.7642 30.0887 21.756 29.9477 21.7072 29.8202C21.6584 29.6926 21.5716 29.5855 21.4601 29.5151C21.0479 29.2747 20.5303 29.5754 20.5303 30.0526C20.5303 30.2799 20.6545 30.4903 20.8541 30.5991L20.8743 30.61Z" fill="white"/>
<path d="M-nan -nanL0.419291 17.9843C0.522884 17.9826 0.624338 17.9527 0.713888 17.8975C0.803438 17.8422 0.878081 17.7634 0.930668 17.6687C1.00866 17.5246 1.02995 17.3537 0.989914 17.193C0.94988 17.0324 0.851758 16.8949 0.716825 16.8105L-nan -nanL0.716825 16.8105C0.582777 16.7471 0.431353 16.7385 0.291664 16.7863C0.151974 16.8341 0.0338683 16.935 -0.0399471 17.0696C-0.113763 17.2042 -0.13808 17.363 -0.10823 17.5154C-0.07838 17.6679 0.00353917 17.8033 0.121772 17.8956C0.211482 17.9533 0.314348 17.984 0.419291 17.9843L-nan -nanZ" fill="white"/>
<path d="M1.01434 23.1814C1.01434 23.3966 1.12621 23.5963 1.3097 23.7087L19.6292 34.9319C20.0439 35.186 20.5767 34.8876 20.5767 34.4013C20.5767 34.1846 20.464 33.9836 20.2793 33.8705L1.95561 22.654C1.54355 22.4017 1.01434 22.6983 1.01434 23.1814Z" fill="white"/>
<path d="M0.716879 21.9002C0.831019 21.9678 0.920578 22.074 0.971297 22.2018C1.02202 22.3296 1.03097 22.4717 0.996763 22.6055C0.962551 22.7394 0.887128 22.8572 0.782494 22.9403C0.67786 23.0234 0.550029 23.0671 0.419345 23.0642C0.31575 23.0627 0.21391 23.0356 0.121826 22.9853L-nan -nanL0.121826 22.9853L0.438664 23.1799C0.686413 23.3321 1.00511 23.1538 1.00511 22.863V22.4163C1.00511 22.2059 0.896009 22.0106 0.716879 21.9002Z" fill="white"/>
<path d="M20.8743 35.69C20.9618 35.7435 21.0615 35.7707 21.1625 35.7689C21.2668 35.7699 21.3696 35.7423 21.4608 35.6887C21.552 35.6351 21.6286 35.5574 21.6832 35.4631C21.7604 35.3178 21.7803 35.146 21.7385 34.9852C21.6967 34.8244 21.5966 34.6877 21.4601 34.6049C21.0488 34.365 20.5303 34.6605 20.5303 35.1366C20.5303 35.3674 20.6591 35.5789 20.8642 35.6848L20.8743 35.69Z" fill="white"/>
<path d="M-nan -nanL0.419231 23.0642C0.549914 23.0671 0.677746 23.0234 0.78238 22.9403C0.887013 22.8572 0.962437 22.7394 0.996648 22.6055C1.03086 22.4717 1.0219 22.3296 0.971182 22.2018C0.920463 22.074 0.830905 21.9678 0.716764 21.9003L-nan -nanL0.716764 21.9003C0.579804 21.8183 0.417844 21.7973 0.266279 21.8416C0.114714 21.886 -0.0141316 21.9922 -0.0921313 22.137C-0.131787 22.2073 -0.157742 22.2852 -0.168444 22.3664C-0.179146 22.4475 -0.174386 22.53 -0.154441 22.6092C-0.134497 22.6883 -0.0997729 22.7623 -0.0523364 22.8269C-0.0048998 22.8916 0.0542877 22.9454 0.121712 22.9853L-nan -nanL0.121712 22.9853C0.213795 23.0357 0.315636 23.0627 0.419231 23.0642L-nan -nanZ" fill="white"/>
<path d="M1.01434 28.2614C1.01434 28.4766 1.12617 28.6762 1.3096 28.7886L19.6355 40.0157C20.0475 40.2681 20.5767 39.9716 20.5767 39.4886C20.5767 39.2734 20.4649 39.0738 20.2814 38.9614L1.9555 27.7343C1.54357 27.4819 1.01434 27.7784 1.01434 28.2614Z" fill="white"/>
<path d="M0.716879 26.9802C0.831019 27.0477 0.920578 27.1539 0.971297 27.2817C1.02202 27.4095 1.03097 27.5516 0.996763 27.6854C0.962551 27.8193 0.887128 27.9371 0.782494 28.0203C0.67786 28.1034 0.550029 28.147 0.419345 28.1441C0.315221 28.1473 0.212289 28.12 0.121826 28.0652L-nan -nanL0.121826 28.0652L0.438664 28.2598C0.686413 28.4119 1.00511 28.2337 1.00511 27.9429V27.4962C1.00511 27.2858 0.896007 27.0905 0.716879 26.9802Z" fill="white"/>
<path d="M20.8743 40.7698C20.9611 40.8263 21.0607 40.857 21.1625 40.8586C21.2675 40.8576 21.3705 40.8281 21.4617 40.7729C21.5528 40.7176 21.6291 40.6385 21.6832 40.543C21.7604 40.3977 21.7803 40.2258 21.7385 40.0651C21.6967 39.9043 21.5966 39.7676 21.4601 39.6848C21.0488 39.4448 20.5303 39.7403 20.5303 40.2165C20.5303 40.4473 20.6591 40.6588 20.8642 40.7647L20.8743 40.7698Z" fill="white"/>
<path d="M0.419396 28.144C0.550079 28.1469 0.677911 28.1033 0.782544 28.0202C0.887178 27.9371 0.962602 27.8192 0.996813 27.6854C1.03102 27.5515 1.02207 27.4094 0.971347 27.2816C0.920628 27.1538 0.83107 27.0477 0.716929 26.9801L-nan -nanL0.716929 26.9801C0.582537 26.8951 0.421816 26.8702 0.270118 26.9109C0.11842 26.9516 -0.0118248 27.0545 -0.0919666 27.1971C-0.172109 27.3397 -0.195588 27.5102 -0.157228 27.6711C-0.118867 27.8321 -0.0218078 27.9703 0.112584 28.0553L-nan -nanL0.112584 28.0553C0.204785 28.1153 0.311233 28.1461 0.419396 28.144Z" fill="white"/>
<path d="M20.5813 44.5669C20.5785 44.3523 20.4658 44.1541 20.2829 44.0419L1.35427 32.4331C1.22183 32.3519 1.05158 32.4472 1.05158 32.6026C1.04551 32.7023 1.02019 32.7997 0.977197 32.8886C0.928198 32.9847 0.853893 33.0635 0.763354 33.1155C0.626261 33.2018 0.627423 33.4021 0.765509 33.4868L19.6822 45.0979C19.8716 45.2142 20.1104 45.2143 20.2999 45.098C20.4773 44.9892 20.5844 44.795 20.5816 44.5868L20.5813 44.5669Z" fill="white"/>
<path d="M0.883192 32.2335C0.902643 32.2547 0.912159 32.2828 0.912159 32.3115C0.912159 32.3341 0.918669 32.3561 0.928448 32.3765C0.954648 32.431 0.968263 32.4916 0.967943 32.5532V32.2672L0.67041 32.0797C0.750412 32.1155 0.822728 32.1679 0.883192 32.2335Z" fill="white"/>
<path d="M-nan -nanL0.465837 33.2536H0.419345C0.314402 33.2533 0.211536 33.2226 0.121826 33.1648L-nan -nanL0.121826 33.1648L0.304363 33.2798C0.374629 33.324 0.464063 33.324 0.534329 33.2798L0.716878 33.1648C0.640968 33.215 0.554943 33.2454 0.465837 33.2536L-nan -nanZ" fill="white"/>
<path d="M-nan -nanL0.707458 33.1451C0.797998 33.0931 0.872303 33.0143 0.921302 32.9182L-nan -nanL0.921302 32.9182C0.871465 33.0136 0.79737 33.0922 0.707458 33.1451L-nan -nanZ" fill="white"/>
<path d="M-nan -nanL0.447144 31.9811C0.541166 31.9876 0.632934 32.0145 0.716771 32.0601C0.632487 32.0157 0.540956 31.9889 0.447144 31.9811L-nan -nanZ" fill="white"/>
<path d="M-nan -nanL0.372824 31.991C0.301493 31.9953 0.231811 32.0155 0.168274 32.0502C0.230194 32.0113 0.300863 31.9908 0.372824 31.991L-nan -nanZ" fill="white"/>
<path d="M-nan -nanL-0.0828247 32.9379C-0.0351311 33.0232 0.0320158 33.0944 0.112433 33.145L-nan -nanL0.112433 33.145C0.0300719 33.0971 -0.0376782 33.0252 -0.0828247 32.9379L-nan -nanZ" fill="white"/>
<path d="M-nan -nanL1.00505 32.6321C0.998977 32.7319 0.973658 32.8293 0.930664 32.9182C0.973658 32.8293 0.998977 32.7319 1.00505 32.6321L-nan -nanZ" fill="white"/>
<path d="M-nan -nanL0.939941 32.3461C0.976753 32.4081 0.996105 32.48 0.995725 32.5532C0.996105 32.48 0.976753 32.4081 0.939941 32.3461L-nan -nanZ" fill="white"/>
<path d="M-nan -nanL0.912177 32.2672C0.861807 32.1841 0.795219 32.1135 0.716919 32.0601L-nan -nanL0.716919 32.0601C0.795219 32.1135 0.861807 32.1841 0.912177 32.2672L-nan -nanZ" fill="white"/>
<path d="M-nan -nanL0.46582 33.2535C0.550972 33.2469 0.633616 33.2199 0.70757 33.1747C0.633616 33.2199 0.550972 33.2469 0.46582 33.2535L-nan -nanZ" fill="white"/>
<path d="M-nan -nanL0.419345 33.2536C0.314402 33.2533 0.211536 33.2226 0.121826 33.1648C0.211536 33.2226 0.314402 33.2533 0.419345 33.2536L-nan -nanZ" fill="white"/>
<path d="M0.958321 32.3807C0.947514 32.3575 0.940076 32.3326 0.940076 32.307C0.940076 32.281 0.933228 32.2552 0.918473 32.2338C0.871242 32.1651 0.812391 32.1062 0.744818 32.0601L-nan -nanL0.744818 32.0601C0.660981 32.0145 0.569214 31.9876 0.475191 31.9811H0.400808C0.257136 31.9808 0.120481 32.0602 0.0209349 32.1638C-0.011479 32.1975 -0.040076 32.2355 -0.0640774 32.2771C-0.120913 32.3886 -0.143664 32.5162 -0.129168 32.642C-0.128455 32.7001 -0.118803 32.7575 -0.100695 32.812C-0.0910585 32.8411 -0.0826768 32.8765 -0.0826768 32.9071C-0.0826768 32.9194 -0.0798231 32.9338 -0.0738015 32.9446C-0.0288638 33.0245 0.0354517 33.0904 0.112581 33.1352L-nan -nanL0.112581 33.1352C0.202291 33.193 0.305157 33.2237 0.4101 33.224H0.456592C0.541743 33.2173 0.624373 33.1904 0.698327 33.1451C0.791667 33.0937 0.869128 33.015 0.921477 32.9182L-nan -nanL0.921477 32.9182C0.953123 32.8528 0.975194 32.7827 0.98706 32.7105C0.993999 32.6683 0.99586 32.596 0.99586 32.5533C0.996171 32.4932 0.983242 32.4341 0.958321 32.3807Z" fill="white"/>
<path d="M82.8436 7.18834C82.8326 7.18543 82.8249 7.1754 82.8254 7.16403C82.8297 7.06199 82.8565 6.96233 82.9039 6.87318C82.9542 6.77841 83.0262 6.69853 83.1131 6.64086C83.2484 6.5601 83.2497 6.36452 83.1153 6.28208L64.1965 -5.33032C64.0057 -5.44747 63.7652 -5.44751 63.5743 -5.33043C63.3979 -5.22225 63.2904 -5.0302 63.2904 -4.82329V-4.79644C63.2904 -4.57268 63.4067 -4.36501 63.5976 -4.24816L82.6504 7.41877C82.7431 7.47549 82.8621 7.40883 82.8621 7.30022V7.21232C82.8621 7.20107 82.8545 7.19122 82.8436 7.18834Z" fill="white"/>
<path d="M-nan -nanL82.8248 7.19324V7.42109C82.8248 7.50018 82.8658 7.57362 82.9332 7.6151L83.1131 7.72589C83.0256 7.67121 82.9531 7.59335 82.9026 7.49998C82.852 7.4066 82.8253 7.3009 82.8248 7.19324L-nan -nanZ" fill="white"/>
<path d="M82.8248 7.18336C82.8264 7.07434 82.8546 6.96759 82.9066 6.87355C82.9586 6.77951 83.0327 6.70139 83.1217 6.64676C83.2106 6.59213 83.3114 6.56288 83.4141 6.56184C83.5169 6.56081 83.6182 6.588 83.7081 6.64083C83.5248 6.53147 83.2963 6.53146 83.1131 6.64083C83.0261 6.69851 82.9542 6.77839 82.9038 6.87316C82.8535 6.96793 82.8263 7.07458 82.8248 7.18336Z" fill="white"/>
<path d="M-nan -nanL83.9406 6.92694C83.9688 6.99263 83.9876 7.06245 83.9963 7.13407C83.9864 7.06272 83.9677 6.99308 83.9406 6.92694L-nan -nanZ" fill="white"/>
<path d="M-nan -nanL83.7081 6.62115C83.7885 6.67175 83.8557 6.74297 83.9034 6.82829C83.8557 6.74297 83.7885 6.67175 83.7081 6.62115L-nan -nanZ" fill="white"/>
<path d="M-nan -nanL83.4105 7.81463C83.3083 7.8157 83.2081 7.78482 83.1223 7.72586C83.2087 7.7833 83.3086 7.81404 83.4105 7.81463L-nan -nanZ" fill="white"/>
<path d="M-nan -nanL83.7082 7.73572C83.6288 7.77359 83.5439 7.79694 83.4572 7.80477C83.5439 7.79694 83.6288 7.77359 83.7082 7.73572L-nan -nanZ" fill="white"/>
<path d="M-nan -nanL83.9964 7.13404C83.9896 7.07781 83.9765 7.0227 83.9575 6.96982C83.9473 6.94139 83.9437 6.91103 83.943 6.88083C83.9426 6.85911 83.9354 6.8381 83.9238 6.81975C83.8776 6.74692 83.8167 6.68575 83.7454 6.64085C83.6554 6.58802 83.5542 6.56082 83.4514 6.56186C83.3486 6.56289 83.2479 6.59214 83.1589 6.64678C83.07 6.70141 82.9959 6.77953 82.9438 6.87356C82.8918 6.9676 82.8636 7.07435 82.8621 7.18338L-nan -nanL82.8621 7.18338C82.8625 7.29104 82.8893 7.39674 82.9398 7.49012C82.9903 7.58349 83.0629 7.66132 83.1503 7.716L-nan -nanL83.1503 7.716C83.2361 7.77497 83.3363 7.80587 83.4385 7.8048H83.485C83.5718 7.79698 83.6566 7.77362 83.736 7.73575C83.8252 7.67749 83.8988 7.596 83.9499 7.49903C84.0022 7.38592 84.0185 7.25782 83.9964 7.13404L-nan -nanZ" fill="white"/>
<path d="M63.2532 0.299484C63.2532 0.513285 63.3643 0.711708 63.5467 0.823358L81.8838 12.052C82.2957 12.3042 82.8249 12.0078 82.8249 11.5247C82.8249 11.3095 82.7129 11.1097 82.5293 10.9974L64.1881 -0.224507C63.7787 -0.474949 63.2532 -0.180378 63.2532 0.299484Z" fill="white"/>
<path d="M62.9558 -0.983882C62.8202 -1.06629 62.6592 -1.08816 62.5084 -1.04469C62.3576 -1.00122 62.2292 -0.895979 62.1515 -0.752096C62.0739 -0.608213 62.0532 -0.437486 62.0942 -0.277476C62.1352 -0.117465 62.2344 0.0187427 62.3701 0.101149C62.7545 0.341572 63.2533 0.0651902 63.2533 -0.388242V-0.456882C63.2533 -0.668242 63.1448 -0.864807 62.966 -0.977457L62.9558 -0.983882Z" fill="white"/>
<path d="M83.1223 12.8156C83.2095 12.8701 83.3094 12.8974 83.4106 12.8945C83.5412 12.8974 83.6691 12.8538 83.7737 12.7707C83.8784 12.6876 83.9538 12.5697 83.988 12.4359C84.0222 12.3021 84.0132 12.1599 83.9625 12.0321C83.9118 11.9043 83.8222 11.7982 83.7081 11.7306C83.3218 11.4933 82.8248 11.7713 82.8248 12.2247V12.2885C82.8248 12.5 82.9334 12.6966 83.1123 12.8093L83.1223 12.8156Z" fill="white"/>
<path d="M63.2532 5.38698C63.2532 5.60218 63.3651 5.80189 63.5486 5.91427L81.8837 17.1416C82.2957 17.3939 82.8249 17.0974 82.8249 16.6144C82.8249 16.3992 82.713 16.1995 82.5294 16.0871L64.1943 4.8597C63.7824 4.60743 63.2532 4.9039 63.2532 5.38698Z" fill="white"/>
<path d="M62.9556 4.10586C62.8894 4.06379 62.8159 4.03624 62.7395 4.02488C62.663 4.01353 62.5852 4.0186 62.5106 4.03975C62.436 4.06091 62.3662 4.09774 62.3053 4.14806C62.2444 4.19839 62.1937 4.26118 62.1561 4.33271C62.1162 4.40373 62.0901 4.48248 62.0793 4.56434C62.0685 4.6462 62.0732 4.72955 62.0931 4.80947C62.113 4.88938 62.1477 4.96426 62.1952 5.02975C62.2428 5.09525 62.3022 5.15001 62.3699 5.19086C62.7562 5.42815 63.2532 5.15019 63.2532 4.69681V4.62988C63.2532 4.415 63.1402 4.21596 62.9556 4.10586Z" fill="white"/>
<path d="M83.1223 17.8955C83.2088 17.9529 83.3086 17.9837 83.4106 17.9843C83.5145 17.9845 83.6167 17.9555 83.7066 17.9C83.7965 17.8445 83.8708 17.7647 83.922 17.6687C83.9618 17.5976 83.9879 17.5189 83.9987 17.437C84.0095 17.3552 84.0049 17.2718 83.9849 17.1919C83.965 17.112 83.9303 17.0371 83.8827 16.9716C83.8352 16.9061 83.7758 16.8513 83.7081 16.8105C83.3218 16.5732 82.8248 16.8512 82.8248 17.3045V17.3715C82.8248 17.5864 82.9378 17.7854 83.1223 17.8955Z" fill="white"/>
<path d="M63.2532 10.4669C63.2532 10.6821 63.3651 10.8818 63.5486 10.9942L81.8837 22.2216C82.2957 22.4738 82.8249 22.1774 82.8249 21.6943C82.8249 21.4791 82.713 21.2794 82.5294 21.167L64.1943 9.93963C63.7824 9.68735 63.2532 9.98382 63.2532 10.4669Z" fill="white"/>
<path d="M62.9558 9.18573C62.8202 9.10333 62.6592 9.08146 62.5084 9.12493C62.3576 9.1684 62.2292 9.27364 62.1515 9.41752C62.0739 9.5614 62.0532 9.73213 62.0942 9.89214C62.1352 10.0522 62.2344 10.1884 62.3701 10.2708C62.7564 10.508 63.2533 10.2301 63.2533 9.7767V9.70976C63.2533 9.49488 63.1403 9.29584 62.9558 9.18573Z" fill="white"/>
<path d="M83.1223 22.9853C83.2111 23.0356 83.3099 23.0626 83.4106 23.0642C83.5149 23.0666 83.6179 23.0384 83.7081 22.9827C83.7983 22.9271 83.8723 22.846 83.922 22.7486C83.9618 22.6776 83.9879 22.5988 83.9987 22.5169C84.0095 22.4351 84.0049 22.3518 83.9849 22.2719C83.965 22.1919 83.9303 22.117 83.8827 22.0515C83.8352 21.986 83.7758 21.9313 83.7081 21.8904C83.3218 21.6531 82.8248 21.9311 82.8248 22.3845V22.4558C82.8248 22.6687 82.9341 22.8667 83.1142 22.9802L83.1223 22.9853Z" fill="white"/>
<path d="M63.2532 15.5541C63.2532 15.7709 63.3659 15.972 63.5508 16.0851L81.8836 27.3018C82.2957 27.554 82.8249 27.2574 82.8249 26.7742C82.8249 26.559 82.7129 26.3592 82.5293 26.2468L64.2006 15.0233C63.7859 14.7694 63.2532 15.0678 63.2532 15.5541Z" fill="white"/>
<path d="M62.9558 14.2656C62.8202 14.1832 62.6592 14.1614 62.5084 14.2048C62.3576 14.2483 62.2292 14.3535 62.1515 14.4974C62.0739 14.6413 62.0532 14.812 62.0942 14.972C62.1352 15.132 62.2344 15.2683 62.3701 15.3507C62.7545 15.5911 63.2533 15.3147 63.2533 14.8613V14.7926C63.2533 14.5813 63.1448 14.3847 62.966 14.2721L62.9558 14.2656Z" fill="white"/>
<path d="M83.1223 28.0652C83.2095 28.1197 83.3094 28.147 83.4106 28.1441C83.5412 28.147 83.6691 28.1034 83.7737 28.0203C83.8784 27.9372 83.9538 27.8193 83.988 27.6855C84.0222 27.5516 84.0132 27.4095 83.9625 27.2817C83.9118 27.1539 83.8222 27.0478 83.7081 26.9802C83.3218 26.7429 82.8248 27.0209 82.8248 27.4743V27.5381C82.8248 27.7495 82.9334 27.9462 83.1123 28.0589L83.1223 28.0652Z" fill="white"/>
<path d="M82.8051 31.8995C82.8172 31.6641 82.6996 31.4409 82.4986 31.3178L63.5644 19.7235C63.4281 19.6401 63.2531 19.7381 63.2531 19.8979C63.2534 20.0082 63.226 20.1166 63.1737 20.2119C63.1214 20.3073 63.0461 20.3861 62.9556 20.4404C62.8235 20.5218 62.8236 20.7139 62.9559 20.795L81.8723 32.406C82.0688 32.5266 82.3163 32.5266 82.5128 32.4061C82.6848 32.3006 82.7938 32.1172 82.8042 31.9157L82.8051 31.8995Z" fill="white"/>
<path d="M62.6954 19.2765C62.7874 19.277 62.8774 19.3043 62.9558 19.3554C62.8783 19.3023 62.7877 19.2748 62.6954 19.2765Z" fill="white"/>
<path d="M-nan -nanL62.6208 19.2764C62.5503 19.2856 62.4814 19.3055 62.4163 19.3356C62.4814 19.3055 62.5503 19.2856 62.6208 19.2764L-nan -nanZ" fill="white"/>
<path d="M-nan -nanL62.3701 20.4305C62.2897 20.3799 62.2225 20.3087 62.1748 20.2234C62.2225 20.3087 62.2897 20.3799 62.3701 20.4305L-nan -nanZ" fill="white"/>
<path d="M62.1375 20.1642C62.1103 20.0947 62.0915 20.0218 62.0817 19.9472C62.0915 20.0218 62.1103 20.0947 62.1375 20.1642Z" fill="white"/>
<path d="M-nan -nanL63.2532 19.8979V19.6651C63.2532 19.5831 63.2101 19.5072 63.1397 19.4652L62.9556 19.3554C62.8773 19.3043 62.7873 19.2769 62.6953 19.2764H62.6209C62.5504 19.2856 62.4815 19.3055 62.4164 19.3356C62.3077 19.3873 62.2167 19.4735 62.1561 19.5822C62.0954 19.6924 62.0693 19.8202 62.0817 19.9472C62.0898 20.0085 62.1039 20.0687 62.1238 20.1268C62.1322 20.1515 62.1347 20.1778 62.1352 20.2039C62.1356 20.2233 62.1421 20.2421 62.1525 20.2585C62.1988 20.3327 62.2604 20.3949 62.3327 20.4404L62.3395 20.4445C62.5182 20.5511 62.7413 20.5495 62.9185 20.4404C63.0159 20.3914 63.0987 20.3148 63.1578 20.2191C63.2169 20.1234 63.2499 20.0122 63.2532 19.8979L-nan -nanZ" fill="white"/>
<path d="M83.1131 32.0601C83.1909 32.016 83.2763 31.9891 83.3641 31.9811C83.4196 31.9811 83.4748 31.9893 83.5279 32.0054L83.6413 32.0398C83.6425 32.0401 83.6437 32.0403 83.6449 32.0403C83.6577 32.0403 83.6624 32.0236 83.6515 32.0169L83.1027 31.6799C82.9731 31.6002 82.8063 31.6935 82.8063 31.8457V31.897C82.8063 32.0546 82.9824 32.1483 83.1131 32.0601Z" fill="white"/>
<path d="M83.1131 32.0601L82.8268 32.2364C82.8256 32.2371 82.8248 32.2385 82.8248 32.2399C82.8248 32.2431 82.8284 32.2451 82.8312 32.2433L83.1131 32.0601Z" fill="white"/>
<path d="M-nan -nanL83.9499 32.3658C83.9539 32.4052 83.9539 32.4448 83.9499 32.4842C83.9539 32.4448 83.9539 32.4052 83.9499 32.3658L-nan -nanZ" fill="white"/>
<path d="M-nan -nanL83.8196 32.1685L83.8255 32.1756C83.8329 32.1842 83.8353 32.1826 83.8269 32.175C83.8245 32.1728 83.822 32.1707 83.8196 32.1685L-nan -nanZ" fill="white"/>
<path d="M83.9885 32.7162C83.9883 32.717 83.9877 32.7158 83.9878 32.715C83.988 32.714 83.9888 32.7152 83.9885 32.7162Z" fill="white"/>
<path d="M83.9034 32.9373V32.8886C83.905 32.9048 83.905 32.9211 83.9034 32.9373Z" fill="white"/>
<path d="M83.4664 31.991L83.6616 32.0502L83.4664 31.991Z" fill="white"/>
<path d="M-nan -nanL83.1317 32.0601C83.2094 32.016 83.2948 31.9891 83.3827 31.9811C83.2948 31.9891 83.2094 32.016 83.1317 32.0601L-nan -nanZ" fill="white"/>
<path d="M82.825 32.6026C82.825 32.446 82.6534 32.3498 82.5191 32.43C82.388 32.5082 82.3859 32.6982 82.516 32.7779C82.6512 32.8609 82.825 32.7612 82.825 32.6026Z" fill="white"/>
<path d="M83.6616 32.0502L83.4664 31.991L83.6616 32.0502Z" fill="white"/>
<path d="M83.1131 32.0699C82.9339 32.1802 82.8248 32.3756 82.8248 32.586V32.6025C82.8243 32.4946 82.8507 32.3886 82.9013 32.295C82.952 32.2015 83.025 32.1238 83.1131 32.0699Z" fill="white"/>
<path d="M83.8258 32.1641C83.8356 32.1742 83.8289 32.1793 83.8198 32.1686C83.7965 32.1372 83.7682 32.1105 83.7361 32.0897L-nan -nanL83.7361 32.0897C83.7686 32.1109 83.7987 32.1359 83.8258 32.1641Z" fill="white"/>
<path d="M84.0017 32.4844C84.0015 32.4897 83.9963 32.4895 83.9963 32.4842C84.0003 32.4448 84.0003 32.4052 83.9963 32.3658L-nan -nanL83.9963 32.3658C84.0012 32.4052 84.003 32.4448 84.0017 32.4844Z" fill="white"/>
<path d="M-nan -nanL83.3827 31.9811C83.2948 31.9891 83.2094 32.016 83.1317 32.0601L-nan -nanL83.1317 32.0601C83.2089 32.0146 83.2946 31.9877 83.3827 31.9811L-nan -nanZ" fill="white"/>
<path d="M-nan -nanL82.8247 32.6026V32.8354C82.8247 32.9173 82.8679 32.9933 82.9382 33.0353L83.1223 33.1451C83.0311 33.0916 82.9553 33.0129 82.9029 32.9174C82.8505 32.8219 82.8235 32.7131 82.8247 32.6026L-nan -nanZ" fill="white"/>
<path d="M83.9406 32.8689C83.943 32.8492 83.9443 32.8294 83.9445 32.8095C83.9449 32.7636 83.9406 32.7176 83.9406 32.6716C83.9484 32.7371 83.9484 32.8034 83.9406 32.8689Z" fill="white"/>
<path d="M83.4105 33.2536C83.3083 33.2546 83.2081 33.2238 83.1223 33.1648C83.2087 33.2222 83.3086 33.253 83.4105 33.2536Z" fill="white"/>
<path d="M-nan -nanL83.7082 33.1451C83.6309 33.1905 83.5453 33.2175 83.4572 33.224C83.5453 33.2175 83.6309 33.1905 83.7082 33.1451L-nan -nanZ" fill="white"/>
<path d="M-nan -nanL83.9405 32.346C83.9433 32.3245 83.9437 32.3026 83.942 32.281C83.9412 32.2718 83.9381 32.2631 83.9332 32.2554C83.8972 32.1994 83.8518 32.1512 83.7993 32.1131C83.7768 32.0968 83.7492 32.0896 83.7214 32.0896C83.7064 32.0896 83.6915 32.0874 83.6772 32.0831L83.5836 32.0547C83.5305 32.0386 83.4753 32.0304 83.4198 32.0304C83.3317 32.037 83.2461 32.0639 83.1688 32.1093C83.0808 32.1633 83.0077 32.2409 82.9571 32.3345C82.9065 32.428 82.8801 32.5341 82.8806 32.642C82.8794 32.7525 82.9063 32.8613 82.9587 32.9568C83.0111 33.0523 83.0869 33.131 83.1781 33.1845C83.2639 33.2434 83.3641 33.2743 83.4663 33.2733H83.5128C83.6009 33.2667 83.6866 33.2398 83.7639 33.1944C83.8363 33.1487 83.8981 33.0864 83.9444 33.0121C83.9545 32.9959 83.9609 32.9775 83.9614 32.9585C83.9619 32.932 83.9647 32.9054 83.9735 32.8804C83.994 32.8227 84.0079 32.7625 84.0149 32.7012V32.6025C84.0055 32.5128 83.9802 32.4258 83.9405 32.346L-nan -nanZ" fill="white"/>
</svg>
