<svg width="286" height="60" viewBox="0 0 286 60" fill="none" xmlns="http://www.w3.org/2000/svg">
<mask id="mask0_40_45864" style="mask-type:alpha" maskUnits="userSpaceOnUse" x="0" y="0" width="286" height="60">
<path d="M0 15C0 6.71573 6.71573 0 15 0H271C279.284 0 286 6.71573 286 15V60H0V15Z" fill="#6368E7"/>
</mask>
<g mask="url(#mask0_40_45864)">
<path d="M0 15C0 6.71573 6.71573 0 15 0H271C279.284 0 286 6.71573 286 15V60H0V15Z" fill="#E7E8FD"/>
<mask id="mask1_40_45864" style="mask-type:alpha" maskUnits="userSpaceOnUse" x="210" y="1" width="76" height="59">
<path d="M210 1H286V60H210V1Z" fill="#4CAF50"/>
</mask>
<g mask="url(#mask1_40_45864)">
<path d="M302.411 6.46332L282.848 -5.52126L302.411 -17.5059L314.107 -10.3447L302.411 -17.5059L282.848 -5.52126L302.411 6.46332L321.982 -5.52126L302.411 6.46332Z" fill="white"/>
<path d="M301.825 -18.5909L261.51 6.09833L281.37 -6.06381L301.825 -18.5909Z" fill="white"/>
<path d="M261.51 6.09838V-17.8708L261.212 -17.6834H261.129C261.062 -17.6487 260.989 -17.6286 260.915 -17.6242C260.811 -17.6257 260.709 -17.6527 260.617 -17.7031L260.32 -17.8905V-14.2508L261.25 -13.7083C261.364 -13.6407 261.453 -13.5345 261.504 -13.4067C261.555 -13.2789 261.564 -13.1368 261.53 -13.003C261.495 -12.8691 261.42 -12.7513 261.315 -12.6682C261.211 -12.5851 261.083 -12.5414 260.952 -12.5443C260.848 -12.5411 260.745 -12.5684 260.655 -12.6232L260.357 -12.8008V-9.16101L261.287 -8.61849C261.422 -8.53411 261.52 -8.39669 261.56 -8.23603C261.6 -8.07538 261.579 -7.90445 261.501 -7.76034C261.448 -7.66564 261.373 -7.58687 261.284 -7.5316C261.194 -7.47632 261.093 -7.44639 260.989 -7.44469C260.884 -7.445 260.781 -7.47571 260.692 -7.53348L260.394 -7.71102V-4.08113L261.324 -3.53861C261.459 -3.45422 261.557 -3.3168 261.597 -3.15615C261.637 -2.9955 261.616 -2.82455 261.538 -2.68045C261.487 -2.58442 261.412 -2.50458 261.322 -2.44911C261.233 -2.39364 261.13 -2.36452 261.026 -2.3648C260.922 -2.36161 260.819 -2.38893 260.729 -2.44372L260.431 -2.63114V1.00863L261.361 1.55113C261.429 1.59198 261.488 1.64677 261.536 1.71227C261.583 1.77776 261.618 1.85264 261.638 1.93255C261.658 2.01247 261.663 2.09581 261.652 2.17767C261.641 2.25953 261.615 2.33829 261.575 2.40931C261.522 2.50401 261.448 2.58278 261.358 2.63806C261.269 2.69333 261.167 2.72323 261.064 2.72493C260.959 2.72462 260.856 2.69393 260.766 2.63616L260.469 2.45862V6.08851L261.064 6.45347L261.659 6.08851L261.51 6.09838Z" fill="white"/>
<path d="M178.509 -18.5909L198.964 -6.06381L218.824 6.09833L178.509 -18.5909Z" fill="white"/>
<path d="M220.014 6.09837V-17.8708L219.726 -17.6834C219.635 -17.6316 219.532 -17.6045 219.429 -17.6045C219.325 -17.6045 219.223 -17.6316 219.131 -17.6834L218.834 -17.8708V6.09837L219.429 6.46332L220.014 6.09837Z" fill="white"/>
<path d="M198.667 44.5871L179.105 32.6025L198.667 20.618L218.239 32.6025L198.667 20.618L179.105 32.6025L198.667 44.5871L213.367 35.5913L198.667 44.5871Z" fill="white"/>
<path d="M231.729 15.4492L220.014 8.27823L231.729 15.4492Z" fill="white"/>
<path d="M218.824 11.1782L219.717 11.7306L220.014 11.9081V8.27826L219.122 7.72588L218.824 7.54834V11.1782Z" fill="white"/>
<path d="M219.122 22.9754L218.824 22.7979V26.4278L219.717 26.9801L220.014 27.1577V23.5278L219.122 22.9754Z" fill="white"/>
<path d="M219.717 21.9003L220.014 22.0778V18.438L219.122 17.8955L218.824 17.718V21.3479L219.717 21.8904V21.9003Z" fill="white"/>
<path d="M219.717 16.8105L220.014 16.9881V13.3582L219.122 12.8157L218.824 12.6283V16.268L219.717 16.8105Z" fill="white"/>
<path d="M220.014 32.2376V28.6077L219.122 28.0652V28.0553L218.824 27.8777V31.5175L219.717 32.06L220.014 32.2474V32.2376Z" fill="white"/>
<path d="M220.6 7.18339L232.892 14.7095L220.6 7.18339L240.162 -4.80121L259.734 7.18339L240.162 -4.80121L220.6 7.18339Z" fill="white"/>
<path d="M239.577 20.253L231.729 15.4492L239.577 20.253Z" fill="white"/>
<path d="M240.758 20.253L261.213 7.72586L240.758 20.253Z" fill="white"/>
<path d="M239.874 -4.97879C239.794 -5.02939 239.727 -5.10062 239.679 -5.18594C239.676 -5.20884 239.676 -5.23207 239.679 -5.25497C239.651 -5.32407 239.632 -5.39716 239.623 -5.47198C239.623 -5.47198 239.623 -5.47198 239.623 -5.5213V-5.88626L220.098 6.09832V6.82824L220.684 7.18335L240.209 -4.80125L239.874 -4.97879Z" fill="white"/>
<path d="M219.717 6.64086L220.014 6.82827V6.09836L219.419 6.46332L219.717 6.64086Z" fill="white"/>
<path d="M220.014 8.27823L231.729 15.4492L239.577 20.253L220.014 8.27823Z" fill="white"/>
<path d="M220.014 8.27823L219.122 7.72586L220.014 8.27823Z" fill="white"/>
<path d="M281.667 20.618L262.096 32.6025L281.667 20.618L301.23 32.6025L281.667 44.5871L262.347 32.7604L281.667 44.5871L301.23 32.6025L281.667 20.618Z" fill="white"/>
<path d="M240.758 44.2222L260.618 32.06L281.072 19.5329L240.758 44.2222Z" fill="white"/>
<path d="M261.212 7.72589L281.072 -4.43625L261.212 7.72589Z" fill="white"/>
<path d="M281.072 -5.52126C281.07 -5.61783 281.093 -5.71317 281.137 -5.79745C281.182 -5.87928 281.246 -5.94728 281.323 -5.99472L261.463 6.16742V7.25245C261.466 7.35357 261.44 7.45323 261.389 7.53848C261.34 7.63453 261.266 7.71338 261.175 7.76536L281.035 -4.39678V-5.48181L281.072 -5.52126Z" fill="white"/>
<path d="M261.212 7.72587C261.303 7.67389 261.377 7.59508 261.426 7.49902C261.377 7.59508 261.303 7.67389 261.212 7.72587Z" fill="white"/>
<path d="M261.213 6.62108C261.293 6.67168 261.36 6.7429 261.408 6.82822C261.408 6.82822 261.408 6.82823 261.408 6.90714C261.436 6.97217 261.452 7.04261 261.454 7.11428V7.16358V6.07858L260.859 6.44354L261.213 6.62108Z" fill="white"/>
<path d="M240.757 44.2221V20.2628L240.46 20.4404H240.386C240.315 20.4738 240.24 20.4939 240.162 20.4996C240.061 20.5042 239.961 20.4767 239.874 20.4206L239.577 20.2431V23.873L240.506 24.4155C240.643 24.4983 240.743 24.635 240.785 24.7958C240.827 24.9566 240.807 25.1284 240.73 25.2737C240.676 25.3692 240.599 25.4483 240.508 25.5036C240.417 25.5588 240.314 25.5884 240.209 25.5893C240.107 25.5877 240.008 25.5571 239.921 25.5006L239.623 25.323V28.9529L240.553 29.4954C240.664 29.5658 240.751 29.6729 240.8 29.8004C240.849 29.928 240.857 30.069 240.823 30.2019C240.79 30.3348 240.716 30.4524 240.613 30.5368C240.511 30.6212 240.385 30.6677 240.255 30.6692C240.155 30.6665 240.056 30.6395 239.967 30.5903L239.67 30.4029V34.0426L240.599 34.5852C240.736 34.6679 240.836 34.8046 240.878 34.9654C240.92 35.1262 240.9 35.298 240.823 35.4433C240.768 35.5376 240.691 35.6153 240.6 35.6689C240.509 35.7225 240.406 35.7501 240.302 35.7491C240.201 35.751 240.101 35.7237 240.014 35.6702L239.716 35.4926V39.1719L240.646 39.7144C240.782 39.7971 240.883 39.9338 240.924 40.0946C240.966 40.2554 240.946 40.4272 240.869 40.5725C240.815 40.668 240.739 40.7472 240.648 40.8024C240.556 40.8577 240.453 40.8872 240.348 40.8882C240.247 40.8866 240.147 40.8559 240.06 40.7994L239.763 40.6218V44.2517L240.348 44.6167L240.943 44.2517L240.757 44.2221Z" fill="white"/>
<path d="M260.961 7.80482H260.915C260.81 7.80452 260.707 7.77379 260.617 7.71602L259.688 7.17352L240.163 19.1581L240.46 19.3455C240.542 19.3934 240.61 19.4653 240.655 19.5527C240.66 19.5754 240.66 19.599 240.655 19.6217C240.684 19.6908 240.702 19.7639 240.711 19.8387V20.1938L261.166 7.66672C261.105 7.72304 261.036 7.76957 260.961 7.80482Z" fill="white"/>
<path d="M260.617 7.72586C260.707 7.78363 260.81 7.81432 260.915 7.81463C260.81 7.81432 260.707 7.78363 260.617 7.72586Z" fill="white"/>
<path d="M261.212 7.72587C261.303 7.67389 261.377 7.59508 261.426 7.49902C261.375 7.5932 261.301 7.67141 261.212 7.72587Z" fill="white"/>
<path d="M261.408 6.84802V6.92594C261.408 6.92594 261.426 6.87725 261.408 6.84802Z" fill="white"/>
<path d="M261.501 7.21239V7.16367C261.502 7.17986 261.502 7.1962 261.501 7.21239Z" fill="white"/>
<path d="M239.874 20.4305L239.577 20.2431L239.874 20.4206C239.961 20.4767 240.061 20.5042 240.162 20.4996C240.24 20.4939 240.315 20.4738 240.386 20.4404C240.315 20.4751 240.24 20.4952 240.162 20.4996C240.062 20.5045 239.963 20.4806 239.874 20.4305Z" fill="white"/>
<path d="M240.655 19.5625C240.658 19.5851 240.658 19.6081 240.655 19.6307C240.66 19.6082 240.66 19.585 240.655 19.5625Z" fill="white"/>
<path d="M281.416 19.3357C281.482 19.3055 281.55 19.2856 281.621 19.2765H281.695C281.788 19.2748 281.878 19.3023 281.956 19.3554L282.253 19.5329V15.903L281.37 15.3507C281.234 15.2683 281.135 15.132 281.094 14.972C281.053 14.812 281.074 14.6413 281.151 14.4974C281.229 14.3535 281.358 14.2483 281.508 14.2048C281.659 14.1614 281.82 14.1832 281.956 14.2656L282.253 14.453V10.8133L281.37 10.2708C281.234 10.1884 281.135 10.0522 281.094 9.89215C281.053 9.73214 281.074 9.56142 281.151 9.41753C281.229 9.27365 281.358 9.16841 281.508 9.12494C281.659 9.08147 281.82 9.10334 281.956 9.18575L282.253 9.36329V5.7334L281.37 5.19087C281.302 5.15002 281.243 5.09525 281.195 5.02976C281.148 4.96427 281.113 4.88939 281.093 4.80947C281.073 4.72956 281.069 4.64621 281.079 4.56435C281.09 4.48249 281.116 4.40374 281.156 4.33271C281.194 4.26118 281.244 4.19839 281.305 4.14807C281.366 4.09774 281.436 4.06092 281.511 4.03976C281.585 4.0186 281.663 4.01354 281.74 4.02489C281.816 4.03624 281.889 4.06379 281.956 4.10587L282.253 4.28341V0.702821L281.37 0.150447C281.234 0.0680418 281.135 -0.0681362 281.094 -0.228147C281.053 -0.388157 281.074 -0.558884 281.151 -0.702767C281.229 -0.84665 281.358 -0.951918 281.508 -0.995389C281.659 -1.03886 281.82 -1.01699 281.956 -0.934583L282.253 -0.747167V-4.38693L281.667 -4.75189L281.072 -4.38693V19.5823L281.37 19.4047L281.416 19.3357Z" fill="white"/>
<path d="M281.37 20.4305C281.289 20.3799 281.222 20.3087 281.175 20.2234V20.1543C281.147 20.0848 281.129 20.0119 281.119 19.9373C281.119 19.9373 281.119 19.9373 281.119 19.888V19.523L260.664 32.0502C260.755 31.9966 260.857 31.9685 260.961 31.9685C261.065 31.9685 261.168 31.9966 261.259 32.0502L262.142 32.5927L281.714 20.6081L281.37 20.4305Z" fill="white"/>
<path d="M281.156 19.5823C281.217 19.4735 281.308 19.3873 281.416 19.3357H281.37L281.072 19.5132V19.8782C281.072 19.8782 281.072 19.8782 281.072 19.9275C281.067 19.8061 281.096 19.6857 281.156 19.5823Z" fill="white"/>
<path d="M281.212 20.2324C281.209 20.2098 281.209 20.1869 281.212 20.1642V20.2324Z" fill="white"/>
<path d="M240.758 -9.51614L260.32 2.46846V1.01847L240.758 -10.9661V-9.51614Z" fill="white"/>
<path d="M260.617 2.67566C260.707 2.73343 260.81 2.76412 260.915 2.76443C261.019 2.76273 261.12 2.7328 261.21 2.67752C261.299 2.62225 261.374 2.54348 261.426 2.44878C261.466 2.37775 261.492 2.299 261.503 2.21714C261.514 2.13528 261.509 2.05197 261.489 1.97205C261.469 1.89214 261.435 1.81723 261.387 1.75173C261.34 1.68624 261.28 1.63147 261.212 1.59063L260.283 1.04813V2.49811L260.617 2.67566Z" fill="white"/>
<path d="M240.758 -5.5213C240.759 -5.41079 240.732 -5.30199 240.679 -5.20647C240.627 -5.11094 240.551 -5.03226 240.46 -4.97879L240.163 -4.80125L259.688 7.18335L260.273 6.82824V6.09832L240.748 -5.88626L240.758 -5.5213Z" fill="white"/>
<path d="M260.915 6.46332L260.32 6.09836V6.8184L260.915 6.46332Z" fill="white"/>
<path d="M261.501 7.21301C261.495 7.31276 261.469 7.41013 261.426 7.49907C261.478 7.41383 261.504 7.31413 261.501 7.21301Z" fill="white"/>
<path d="M261.212 6.62115C261.293 6.67175 261.36 6.74297 261.408 6.82829C261.36 6.74297 261.293 6.67175 261.212 6.62115Z" fill="white"/>
<path d="M261.426 7.49907C261.469 7.41013 261.495 7.31276 261.501 7.21301C261.495 7.31276 261.469 7.41013 261.426 7.49907Z" fill="white"/>
<path d="M261.445 6.92694C261.474 6.99157 261.49 7.06226 261.491 7.13407C261.489 7.06241 261.473 6.99196 261.445 6.92694Z" fill="white"/>
<path d="M261.213 7.73572C261.133 7.77243 261.048 7.79574 260.962 7.80477C261.048 7.79574 261.133 7.77243 261.213 7.73572Z" fill="white"/>
<path d="M260.915 7.81469H260.961C261.048 7.80565 261.133 7.78238 261.212 7.74567C261.123 7.80344 261.02 7.83413 260.915 7.83444V7.81469Z" fill="white"/>
<path d="M260.32 7.18339V6.82828L259.734 7.18339L260.664 7.72589C260.564 7.67927 260.479 7.60354 260.418 7.5075C260.357 7.41147 260.323 7.29909 260.32 7.18339Z" fill="white"/>
<path d="M260.617 7.72586C260.707 7.78363 260.81 7.81432 260.915 7.81463C260.81 7.81432 260.707 7.78363 260.617 7.72586Z" fill="white"/>
<path d="M260.32 7.18336C260.319 7.29387 260.346 7.40267 260.398 7.4982C260.45 7.59372 260.526 7.67239 260.617 7.72586C260.707 7.78434 260.81 7.81529 260.915 7.81529C261.02 7.81529 261.123 7.78434 261.212 7.72586C261.301 7.6714 261.375 7.59319 261.426 7.49901C261.469 7.41007 261.495 7.3127 261.501 7.21295C261.505 7.18682 261.505 7.16016 261.501 7.13402C261.5 7.06221 261.484 6.99152 261.454 6.92689V6.84799C261.407 6.76268 261.339 6.69143 261.259 6.64083L260.961 6.46329L260.366 6.82825L260.32 7.18336Z" fill="white"/>
<path d="M199.262 46.4021L211.805 54.0861L199.262 46.4021Z" fill="white"/>
<path d="M204.72 42.3283L219.419 33.3325L238.982 45.317L219.419 57.2918L204.72 48.2959L219.419 57.2918L238.982 45.317L219.419 33.3325L204.72 42.3283Z" fill="white"/>
<path d="M218.238 32.6026L213.366 35.5913L218.238 32.6026Z" fill="white"/>
<path d="M218.824 58.3866L211.805 54.086L218.824 58.3866Z" fill="white"/>
<path d="M199.857 45.3171L204.72 42.3283L219.419 33.3325L219.122 33.1451L218.238 32.6026L213.366 35.5913L198.667 44.5872L198.964 44.7647L199.857 45.3171Z" fill="white"/>
<path d="M218.824 58.3867L199.262 46.4021L211.805 54.0861L218.824 58.3867Z" fill="white"/>
<path d="M262.096 32.6026L262.347 32.7604L262.096 32.6026Z" fill="white"/>
<path d="M281.082 45.2678C281.09 45.193 281.109 45.1199 281.138 45.0508V44.9719C281.187 44.8944 281.25 44.8274 281.323 44.7746L281.621 44.5872L262.3 32.7505L262.049 32.5927L261.464 32.9577V33.6777L280.989 45.6623V45.3072C281.018 45.29 281.049 45.2767 281.082 45.2678Z" fill="white"/>
<path d="M261.51 32.6026V32.9675L262.096 32.6026L261.212 32.0601C261.303 32.1143 261.378 32.1932 261.431 32.2885C261.483 32.3839 261.51 32.4923 261.51 32.6026Z" fill="white"/>
<path d="M260.915 58.7516L273.197 66.2679L260.915 58.7418L249.823 65.5379L260.915 58.7516Z" fill="white"/>
<path d="M261.51 58.0217C261.511 58.1322 261.484 58.241 261.432 58.3365C261.379 58.4321 261.304 58.5108 261.212 58.5642L260.915 58.7418L273.197 66.2679L274.564 67.1063H276.935L261.51 57.6567V58.0217Z" fill="white"/>
<path d="M251.348 63.1509L260.32 57.6567L251.348 63.1509Z" fill="white"/>
<path d="M240.46 45.8498V45.8596L220.014 58.3867L260.32 33.6877L240.46 45.8498Z" fill="white"/>
<path d="M260.32 32.6026C260.322 32.4927 260.35 32.385 260.402 32.29C260.454 32.195 260.528 32.1158 260.617 32.0601L240.758 44.2222V45.3467C240.758 45.4431 240.736 45.5381 240.692 45.6229C240.638 45.7203 240.561 45.8016 240.469 45.8596L260.329 33.6876V32.6124L260.32 32.6026Z" fill="white"/>
<path d="M240.46 44.7746C240.542 44.8225 240.61 44.8944 240.655 44.9818C240.66 45.0045 240.66 45.0281 240.655 45.0508C240.684 45.1199 240.703 45.193 240.711 45.2678C240.712 45.2842 240.712 45.3007 240.711 45.3171V44.2222L240.116 44.5872L240.46 44.7746Z" fill="white"/>
<path d="M260.32 32.6026C260.321 32.4925 260.348 32.3845 260.401 32.2893C260.453 32.1941 260.528 32.1151 260.617 32.0601C260.528 32.1158 260.454 32.195 260.402 32.29C260.35 32.385 260.321 32.4927 260.32 32.6026Z" fill="white"/>
<path d="M220.014 58.3867L219.717 58.5642C219.627 58.6227 219.524 58.6536 219.419 58.6536C219.314 58.6536 219.211 58.6227 219.122 58.5642L218.824 58.3867V62.0166L219.754 62.5591C219.889 62.6434 219.987 62.7809 220.027 62.9415C220.067 63.1022 220.046 63.2731 219.968 63.4172C219.929 63.4891 219.878 63.5521 219.816 63.6025C219.754 63.6529 219.684 63.6898 219.608 63.7109C219.533 63.732 219.455 63.737 219.377 63.7255C219.3 63.7141 219.226 63.6864 219.159 63.6441L218.862 63.4665V67.1063H220.042V58.3867H220.014Z" fill="white"/>
<path d="M240.46 45.8596C240.381 45.8986 240.296 45.922 240.209 45.9286H240.163C240.062 45.9283 239.963 45.9011 239.874 45.8497L238.991 45.3072L219.466 57.2918L219.763 57.4693C219.842 57.5228 219.908 57.5934 219.959 57.6765V57.7455C219.995 57.8112 220.015 57.8862 220.014 57.9625C220.014 57.9625 220.014 57.9626 220.014 58.0119V58.3768L240.469 45.8497L240.46 45.8596Z" fill="white"/>
<path d="M239.865 45.8596C239.953 45.911 240.052 45.9381 240.153 45.9385C240.052 45.9404 239.953 45.9131 239.865 45.8596Z" fill="white"/>
<path d="M240.683 45.6229C240.629 45.7203 240.552 45.8016 240.46 45.8596C240.552 45.8016 240.629 45.7203 240.683 45.6229Z" fill="white"/>
<path d="M240.655 44.9817C240.66 45.0042 240.66 45.0274 240.655 45.0499C240.66 45.0274 240.66 45.0042 240.655 44.9817Z" fill="white"/>
<path d="M240.748 45.3461C240.749 45.3299 240.749 45.3136 240.748 45.2974V45.3461Z" fill="white"/>
<path d="M219.996 57.9724C220.01 58.0983 219.987 58.2258 219.931 58.3373C219.878 58.4341 219.801 58.5128 219.707 58.5642L220.005 58.3867V58.0217C220.005 58.0217 219.996 57.9921 219.996 57.9724Z" fill="white"/>
<path d="M218.824 58.3867L219.122 58.5642C219.212 58.622 219.314 58.6527 219.419 58.653C219.314 58.6527 219.212 58.622 219.122 58.5642L218.824 58.3867Z" fill="white"/>
<path d="M260.915 33.3325L260.32 33.6876V57.6469L260.617 57.4693C260.707 57.4109 260.81 57.3799 260.915 57.3799C261.02 57.3799 261.123 57.4109 261.212 57.4693L261.51 57.6469V33.6974L260.915 33.3325Z" fill="white"/>
<path d="M261.51 33.6876V32.9675L260.915 33.3325L261.51 33.6876Z" fill="white"/>
<path d="M260.32 32.6124V33.6876L260.915 33.3325L260.617 33.1451C260.53 33.0895 260.457 33.0117 260.405 32.9187C260.353 32.8257 260.324 32.7204 260.32 32.6124Z" fill="white"/>
<path d="M261.212 32.06C261.121 32.0065 261.019 31.9784 260.915 31.9784C260.811 31.9784 260.708 32.0065 260.617 32.06C260.528 32.115 260.453 32.1941 260.401 32.2892C260.348 32.3844 260.321 32.4924 260.32 32.6025C260.324 32.7105 260.353 32.8158 260.405 32.9088C260.457 33.0018 260.53 33.0796 260.617 33.1352L260.915 33.3226L261.51 32.9576V32.5926C261.509 32.484 261.48 32.3777 261.428 32.2842C261.376 32.1907 261.302 32.1134 261.212 32.06Z" fill="white"/>
<path d="M260.915 58.7418L260.617 58.5642C260.527 58.5092 260.453 58.4301 260.401 58.335C260.348 58.2398 260.321 58.1318 260.32 58.0217V57.6567L251.348 63.1509L244.904 67.0965H247.266L249.823 65.5281L260.915 58.7418Z" fill="white"/>
<path d="M260.617 57.4792L260.32 57.6567V58.0217C260.321 58.1318 260.348 58.2398 260.401 58.335C260.453 58.4301 260.528 58.5092 260.617 58.5642L260.915 58.7418L261.212 58.5642C261.304 58.5108 261.379 58.4321 261.432 58.3365C261.484 58.241 261.511 58.1322 261.51 58.0217V57.6567L261.212 57.4792C261.123 57.4207 261.02 57.3898 260.915 57.3898C260.81 57.3898 260.707 57.4207 260.617 57.4792Z" fill="white"/>
<path d="M281.956 66.189C281.869 66.2464 281.769 66.2772 281.667 66.2778C281.538 66.2762 281.412 66.2297 281.309 66.1453C281.207 66.061 281.133 65.9434 281.099 65.8104C281.066 65.6775 281.074 65.5365 281.123 65.409C281.172 65.2815 281.258 65.1743 281.37 65.104L282.253 64.5614V60.9315L281.956 61.1091C281.868 61.1636 281.769 61.1909 281.667 61.188C281.537 61.1909 281.409 61.1473 281.304 61.0642C281.2 60.9811 281.124 60.8632 281.09 60.7293C281.056 60.5955 281.065 60.4534 281.115 60.3256C281.166 60.1978 281.256 60.0917 281.37 60.0241L282.253 59.4816V55.8418L281.956 56.0292C281.867 56.0795 281.768 56.1065 281.667 56.1081C281.563 56.1105 281.46 56.0823 281.37 56.0266C281.28 55.971 281.206 55.8899 281.156 55.7925C281.116 55.7215 281.09 55.6427 281.079 55.5608C281.068 55.479 281.073 55.3957 281.093 55.3158C281.113 55.2358 281.148 55.1609 281.195 55.0954C281.243 55.0299 281.302 54.9752 281.37 54.9343L282.253 54.3918V50.7619L281.956 50.9394C281.869 50.9969 281.769 51.0276 281.667 51.0282C281.563 51.0285 281.461 50.9994 281.371 50.9439C281.281 50.8885 281.207 50.8086 281.156 50.7126C281.116 50.6416 281.09 50.5628 281.079 50.481C281.068 50.3991 281.073 50.3158 281.093 50.2358C281.113 50.1559 281.148 50.081 281.195 50.0156C281.243 49.9501 281.302 49.8953 281.37 49.8544L282.253 49.3119V45.6721L281.956 45.8596C281.868 45.914 281.769 45.9414 281.667 45.9385C281.564 45.9369 281.462 45.9099 281.37 45.8596L281.072 45.6721V67.1063H282.253V66.0114L281.956 66.189Z" fill="white"/>
<path d="M281.082 45.2677C281.081 45.2841 281.081 45.3006 281.082 45.317V45.6721L281.379 45.8595C281.291 45.8051 281.217 45.7268 281.165 45.6327C281.102 45.5233 281.073 45.3957 281.082 45.2677Z" fill="white"/>
<path d="M281.37 44.7646L281.361 44.7745H281.37L281.667 44.5871L281.37 44.7646Z" fill="white"/>
<path d="M282.253 45.6721L300.904 34.2498L282.253 45.6721Z" fill="white"/>
<path d="M281.138 45.0902C281.109 45.1593 281.09 45.2324 281.082 45.3072C281.09 45.2324 281.109 45.1593 281.138 45.0902Z" fill="white"/>
<path d="M281.212 44.9719C281.262 44.8943 281.325 44.8274 281.398 44.7746C281.325 44.8274 281.262 44.8943 281.212 44.9719Z" fill="white"/>
<path d="M282.253 45.6722L300.904 34.2499L301.825 33.6877L282.253 45.6722Z" fill="white"/>
<path d="M301.825 32.9675L301.23 32.6026L281.705 44.5872L281.993 44.7746C282.084 44.828 282.16 44.9067 282.212 45.0023C282.265 45.0978 282.292 45.2066 282.29 45.3171V45.6722L301.862 33.6876L301.825 32.9675Z" fill="white"/>
<path d="M282.253 45.6721L281.956 45.8596C281.867 45.911 281.768 45.9381 281.667 45.9385C281.564 45.9369 281.462 45.9099 281.37 45.8596C281.462 45.9099 281.564 45.9369 281.667 45.9385C281.768 45.9414 281.868 45.914 281.956 45.8596L282.253 45.6721Z" fill="white"/>
<path d="M281.956 45.8595L282.253 45.6721V45.317C282.255 45.2065 282.228 45.0977 282.175 45.0022C282.123 44.9067 282.047 44.828 281.956 44.7745L281.668 44.5871L281.37 44.7745C281.297 44.8273 281.234 44.8943 281.184 44.9718V45.0507C281.156 45.1198 281.137 45.1929 281.128 45.2677C281.117 45.3946 281.143 45.5222 281.203 45.6327C281.254 45.7268 281.328 45.8051 281.416 45.8595C281.509 45.9099 281.61 45.9369 281.714 45.9384C281.799 45.9305 281.881 45.9036 281.956 45.8595Z" fill="white"/>
<path d="M301.825 37.3274L282.253 49.3119V50.7619L301.825 38.7774V37.3274Z" fill="white"/>
<path d="M281.37 49.8545C281.302 49.8953 281.243 49.9501 281.195 50.0156C281.148 50.0811 281.113 50.156 281.093 50.2359C281.073 50.3158 281.068 50.3991 281.079 50.481C281.09 50.5629 281.116 50.6416 281.156 50.7126C281.207 50.8087 281.282 50.8885 281.371 50.944C281.461 50.9994 281.563 51.0285 281.667 51.0283C281.769 51.0277 281.869 50.9969 281.956 50.9395L282.253 50.7619V49.312L281.37 49.8545Z" fill="white"/>
<path d="M301.825 42.4072L282.253 54.3918V55.8418L301.825 43.8572V42.4072Z" fill="white"/>
<path d="M281.37 54.9541C281.302 54.9949 281.243 55.0497 281.195 55.1152C281.148 55.1807 281.113 55.2556 281.093 55.3355C281.073 55.4154 281.068 55.4987 281.079 55.5806C281.09 55.6625 281.116 55.7412 281.156 55.8122C281.206 55.9097 281.28 55.9907 281.37 56.0464C281.46 56.1021 281.563 56.1303 281.667 56.1279C281.768 56.1263 281.867 56.0992 281.956 56.049L282.253 55.8616V54.4116L281.37 54.9541Z" fill="white"/>
<path d="M301.825 47.497L282.253 59.4816V60.9316L301.825 48.947V47.497Z" fill="white"/>
<path d="M281.37 60.0241C281.256 60.0917 281.166 60.1978 281.115 60.3256C281.065 60.4534 281.056 60.5955 281.09 60.7294C281.124 60.8632 281.2 60.9811 281.304 61.0642C281.409 61.1473 281.537 61.1909 281.667 61.188C281.769 61.1909 281.868 61.1636 281.956 61.1091L282.253 60.9316V59.4816L281.37 60.0241Z" fill="white"/>
<path d="M282.253 64.5614V66.0114L301.825 54.0268V52.5768L282.253 64.5614Z" fill="white"/>
<path d="M199.857 45.3171L199.262 45.6722V46.4021L218.787 58.3867V58.0217C218.786 57.9112 218.813 57.8024 218.865 57.7069C218.918 57.6114 218.993 57.5327 219.085 57.4792L219.382 57.3017L204.683 48.296L199.857 45.3171Z" fill="white"/>
<path d="M219.708 58.5643C219.622 58.6232 219.521 58.6541 219.419 58.653C219.521 58.6541 219.622 58.6232 219.708 58.5643Z" fill="white"/>
<path d="M219.717 57.4792C219.795 57.5326 219.862 57.6033 219.912 57.6863C219.862 57.6033 219.795 57.5326 219.717 57.4792Z" fill="white"/>
<path d="M219.94 57.7554C219.977 57.8211 219.996 57.8961 219.996 57.9724C219.996 57.8961 219.977 57.8211 219.94 57.7554Z" fill="white"/>
<path d="M219.996 57.9724C219.996 57.8961 219.977 57.8211 219.94 57.7554V57.6864C219.89 57.6033 219.823 57.5327 219.745 57.4792L219.447 57.3017L219.15 57.4792C219.059 57.5327 218.983 57.6114 218.93 57.7069C218.878 57.8024 218.851 57.9112 218.852 58.0217V58.3867L219.15 58.5643C219.24 58.622 219.342 58.6527 219.447 58.653C219.55 58.6541 219.65 58.6232 219.736 58.5643C219.829 58.5129 219.906 58.4341 219.959 58.3374C220.006 58.2226 220.019 58.0953 219.996 57.9724Z" fill="white"/>
<path d="M218.824 62.0166L199.262 50.032V51.4819L218.824 63.4666V62.0166Z" fill="white"/>
<path d="M199.262 55.1217V56.5619L216.472 67.1063H218.824V67.0965L199.262 55.1217Z" fill="white"/>
<path d="M218.824 6.09836L198.965 -6.06378C199.056 -6.01031 199.131 -5.93163 199.184 -5.8361C199.236 -5.74058 199.263 -5.63178 199.262 -5.52127V-4.43625L218.787 7.54835V6.09836H218.824Z" fill="white"/>
<path d="M218.917 6.87759C218.968 6.79452 219.034 6.72387 219.113 6.67043L219.41 6.49289L218.815 6.12793V7.18337C218.816 7.07212 218.852 6.96436 218.917 6.87759Z" fill="white"/>
<path d="M218.917 7.51875C218.917 7.51875 218.917 7.51874 218.917 7.44969C218.888 7.38164 218.872 7.30769 218.871 7.23269C218.866 7.21667 218.866 7.1994 218.871 7.18338V7.54834L219.168 7.72588C219.065 7.68817 218.977 7.61533 218.917 7.51875Z" fill="white"/>
<path d="M218.824 7.18338C218.819 7.1992 218.819 7.21626 218.824 7.23208C218.819 7.21626 218.819 7.1992 218.824 7.18338Z" fill="white"/>
<path d="M219.373 6.62117H219.447C219.541 6.62891 219.633 6.65568 219.717 6.70006L219.419 6.52252L219.122 6.70006H219.168C219.232 6.66313 219.301 6.63655 219.373 6.62117Z" fill="white"/>
<path d="M218.833 7.15381C218.829 7.16963 218.829 7.18669 218.833 7.20251C218.831 7.18634 218.831 7.16997 218.833 7.15381Z" fill="white"/>
<path d="M218.824 11.1782L199.262 -0.796509V0.643636L218.824 12.6282V11.1782Z" fill="white"/>
<path d="M218.917 11.9575C218.956 11.8856 219.007 11.8226 219.069 11.7722C219.131 11.7218 219.201 11.6849 219.277 11.6638C219.352 11.6427 219.431 11.6377 219.508 11.6492C219.585 11.6606 219.659 11.6883 219.726 11.7306L218.796 11.1881V12.6282L219.094 12.8156C218.965 12.7249 218.875 12.5847 218.842 12.4245C218.809 12.2643 218.836 12.0969 218.917 11.9575Z" fill="white"/>
<path d="M218.824 16.268L199.262 4.28339V5.73337L218.824 17.718V16.268Z" fill="white"/>
<path d="M218.917 17.0374C218.956 16.9655 219.007 16.9025 219.069 16.8521C219.131 16.8016 219.201 16.7648 219.277 16.7436C219.352 16.7225 219.431 16.7175 219.508 16.729C219.585 16.7405 219.659 16.7682 219.726 16.8105L218.796 16.268V17.718L219.094 17.8955C218.965 17.8048 218.875 17.6645 218.842 17.5044C218.809 17.3442 218.836 17.1767 218.917 17.0374Z" fill="white"/>
<path d="M218.824 21.3479L199.262 9.36331V10.8133L218.824 22.7979V21.3479Z" fill="white"/>
<path d="M218.917 22.1272C218.995 21.9823 219.124 21.8761 219.276 21.8318C219.427 21.7874 219.589 21.8085 219.726 21.8904L218.796 21.3479V22.7979L219.094 22.9754C219.03 22.9323 218.974 22.8761 218.93 22.81C218.886 22.7439 218.855 22.6692 218.839 22.5904C218.822 22.5115 218.821 22.43 218.834 22.3505C218.848 22.2709 218.876 22.195 218.917 22.1272Z" fill="white"/>
<path d="M218.824 26.4277L199.262 14.4431V15.903L218.824 27.8777V26.4277Z" fill="white"/>
<path d="M218.917 27.2071C218.956 27.1352 219.007 27.0722 219.069 27.0218C219.131 26.9714 219.201 26.9345 219.277 26.9134C219.352 26.8922 219.431 26.8873 219.508 26.8988C219.585 26.9102 219.659 26.9379 219.726 26.9802L218.796 26.4377V27.8778L219.085 28.0554C218.958 27.9649 218.87 27.8257 218.839 27.6673C218.807 27.5088 218.836 27.3437 218.917 27.2071Z" fill="white"/>
<path d="M218.824 31.5175L199.299 19.5329V19.8979C199.299 20.0082 199.272 20.1166 199.22 20.2119C199.167 20.3073 199.092 20.3861 199.002 20.4404L198.704 20.618L218.276 32.6025L218.861 32.2376L218.824 31.5175Z" fill="white"/>
<path d="M219.122 32.06H219.168C219.232 32.0253 219.302 32.0052 219.373 32.0008H219.447C219.541 32.0086 219.633 32.0353 219.717 32.0797L218.787 31.5372V32.2671L219.122 32.06Z" fill="white"/>
<path d="M218.917 32.9379C218.917 32.9379 218.917 32.8886 218.917 32.8689C218.887 32.8008 218.872 32.7269 218.871 32.6519C218.871 32.6519 218.871 32.6519 218.871 32.6026V32.2672L218.285 32.6322L219.168 33.1747C219.064 33.125 218.976 33.0423 218.917 32.9379Z" fill="white"/>
<path d="M218.824 32.2671V32.6321C218.824 32.6321 218.824 32.6321 218.824 32.6814C218.808 32.536 218.841 32.389 218.917 32.2671C218.978 32.1612 219.07 32.0784 219.178 32.0304H219.131L218.824 32.2671Z" fill="white"/>
<path d="M232.892 14.7095L240.163 19.168L232.892 14.7095Z" fill="white"/>
<path d="M220.6 7.18338L220.014 7.54834V8.27825L239.54 20.253V19.8979C239.538 19.7874 239.565 19.6786 239.618 19.583C239.67 19.4875 239.746 19.4088 239.837 19.3554L240.125 19.168L232.864 14.7095L220.6 7.18338Z" fill="white"/>
<path d="M220.014 7.18339V7.54835L220.6 7.18339L220.014 6.82828V7.18339Z" fill="white"/>
<path d="M219.912 6.84803V6.92693C219.948 6.98955 219.967 7.061 219.968 7.13406C219.968 7.13406 219.968 7.13408 219.968 7.1834V6.82828L219.67 6.64087C219.766 6.6882 219.848 6.75929 219.912 6.84803Z" fill="white"/>
<path d="M219.717 7.72588C219.641 7.76378 219.559 7.78716 219.475 7.79494H219.429C219.324 7.79463 219.221 7.76394 219.131 7.70617L220.061 8.25854V7.52863L219.763 7.70617L219.717 7.72588Z" fill="white"/>
<path d="M220.005 7.21297C219.999 7.31272 219.974 7.41009 219.931 7.49903C219.882 7.59508 219.807 7.6739 219.717 7.72588L220.014 7.54834V7.18338C220.014 7.18338 220.005 7.20311 220.005 7.21297Z" fill="white"/>
<path d="M219.122 7.72586C219.212 7.78363 219.314 7.81432 219.419 7.81463C219.314 7.81432 219.212 7.78363 219.122 7.72586Z" fill="white"/>
<path d="M219.707 7.72587C219.798 7.67389 219.872 7.59508 219.921 7.49902C219.871 7.59441 219.797 7.673 219.707 7.72587Z" fill="white"/>
<path d="M240.46 19.3554C240.542 19.4033 240.61 19.4751 240.655 19.5625C240.61 19.4751 240.542 19.4033 240.46 19.3554Z" fill="white"/>
<path d="M240.748 19.8486C240.74 19.7738 240.721 19.7007 240.692 19.6316C240.721 19.7007 240.74 19.7738 240.748 19.8486Z" fill="white"/>
<path d="M240.748 19.8486C240.74 19.7738 240.721 19.7007 240.693 19.6316C240.696 19.6087 240.696 19.5854 240.693 19.5625C240.647 19.4752 240.58 19.4033 240.497 19.3554L240.2 19.168L239.912 19.3554C239.82 19.4089 239.745 19.4876 239.692 19.5831C239.64 19.6786 239.613 19.7874 239.614 19.8979V20.253L239.912 20.4404C239.999 20.494 240.099 20.5212 240.2 20.5193C240.277 20.515 240.353 20.4949 240.423 20.4602C240.423 20.4602 240.469 20.4602 240.497 20.4602C240.589 20.406 240.666 20.3279 240.72 20.2333C240.764 20.1105 240.774 19.977 240.748 19.8486Z" fill="white"/>
<path d="M218.917 6.86775C218.968 6.78468 219.034 6.71405 219.112 6.66061C219.034 6.71405 218.968 6.78468 218.917 6.86775Z" fill="white"/>
<path d="M218.834 7.15381C218.834 7.05626 218.86 6.96072 218.908 6.87762C218.858 6.95982 218.832 7.05596 218.834 7.15381Z" fill="white"/>
<path d="M218.917 7.51877C218.962 7.60614 219.03 7.67801 219.112 7.7259C219.03 7.67801 218.962 7.60614 218.917 7.51877Z" fill="white"/>
<path d="M218.917 7.44967C218.887 7.38162 218.872 7.30767 218.871 7.23267C218.872 7.30767 218.887 7.38162 218.917 7.44967Z" fill="white"/>
<path d="M219.122 7.7259C219.039 7.67801 218.972 7.60614 218.926 7.51877C218.972 7.60614 219.039 7.67801 219.122 7.7259Z" fill="white"/>
<path d="M218.843 7.23267C218.844 7.30767 218.86 7.38162 218.889 7.44967C218.86 7.38162 218.844 7.30767 218.843 7.23267Z" fill="white"/>
<path d="M219.373 6.62115C219.302 6.63028 219.233 6.65022 219.168 6.68034C219.233 6.65022 219.302 6.63028 219.373 6.62115Z" fill="white"/>
<path d="M219.447 6.56192C219.541 6.56836 219.633 6.59521 219.717 6.64082C219.632 6.59643 219.541 6.56966 219.447 6.56192Z" fill="white"/>
<path d="M219.94 6.92694C219.977 6.98894 219.996 7.0608 219.996 7.13407C219.995 7.06102 219.975 6.98956 219.94 6.92694Z" fill="white"/>
<path d="M219.912 6.84803C219.862 6.76496 219.795 6.69431 219.717 6.64087C219.795 6.69431 219.862 6.76496 219.912 6.84803Z" fill="white"/>
<path d="M219.708 7.73572C219.631 7.77362 219.55 7.797 219.466 7.80477C219.55 7.797 219.631 7.77362 219.708 7.73572Z" fill="white"/>
<path d="M219.122 7.72586C219.212 7.78363 219.314 7.81432 219.419 7.81463C219.314 7.81432 219.212 7.78363 219.122 7.72586Z" fill="white"/>
<path d="M220.005 7.21301C219.999 7.31276 219.974 7.41013 219.931 7.49907C219.974 7.41013 219.999 7.31276 220.005 7.21301Z" fill="white"/>
<path d="M219.419 7.81469H219.466C219.55 7.80692 219.631 7.78357 219.708 7.74567C219.62 7.79773 219.52 7.82169 219.419 7.81469Z" fill="white"/>
<path d="M219.94 6.92688V6.84798C219.89 6.76491 219.823 6.69425 219.745 6.64082C219.661 6.59521 219.569 6.56836 219.475 6.56192H219.401C219.33 6.57105 219.261 6.59098 219.196 6.6211H219.131C219.053 6.67454 218.986 6.74517 218.936 6.82823C218.888 6.91133 218.862 7.00687 218.861 7.10442C218.856 7.13043 218.856 7.15734 218.861 7.18335C218.862 7.25835 218.878 7.3323 218.908 7.40035C218.908 7.40035 218.908 7.44965 218.908 7.46938C218.953 7.55676 219.021 7.62865 219.103 7.67654C219.193 7.73431 219.296 7.765 219.401 7.76531C219.503 7.76638 219.603 7.7355 219.689 7.67654C219.782 7.62517 219.86 7.54641 219.912 7.44966C219.955 7.36072 219.98 7.26335 219.986 7.1636C219.986 7.1636 219.986 7.1143 219.986 7.0847C219.982 7.02914 219.966 6.97529 219.94 6.92688Z" fill="white"/>
<path d="M220.014 13.3581L239.577 25.3427V23.8927L220.014 11.9081V13.3581Z" fill="white"/>
<path d="M219.931 12.5888C219.878 12.6823 219.803 12.7596 219.713 12.8132C219.623 12.8668 219.522 12.8948 219.419 12.8945C219.315 12.8977 219.212 12.8704 219.122 12.8157L220.005 13.3582V11.9082L219.717 11.7306C219.785 11.7715 219.844 11.8263 219.892 11.8918C219.939 11.9573 219.974 12.0321 219.994 12.112C220.014 12.192 220.018 12.2753 220.008 12.3571C219.997 12.439 219.971 12.5177 219.931 12.5888Z" fill="white"/>
<path d="M239.874 25.5203C239.961 25.5768 240.061 25.6075 240.163 25.6091C240.268 25.6081 240.371 25.5786 240.462 25.5233C240.553 25.468 240.629 25.3889 240.683 25.2934C240.76 25.1481 240.78 24.9763 240.738 24.8155C240.697 24.6547 240.597 24.518 240.46 24.4353L239.53 23.8928V25.3625L239.874 25.5203Z" fill="white"/>
<path d="M218.917 11.9575C218.839 12.1016 218.818 12.2726 218.858 12.4332C218.898 12.5939 218.996 12.7313 219.131 12.8157C219.222 12.8705 219.325 12.8978 219.429 12.8946C219.559 12.8974 219.687 12.8539 219.792 12.7707C219.896 12.6876 219.972 12.5698 220.006 12.436C220.04 12.3021 220.031 12.16 219.981 12.0322C219.93 11.9044 219.84 11.7982 219.726 11.7307C219.659 11.6884 219.585 11.6607 219.508 11.6492C219.431 11.6377 219.352 11.6427 219.277 11.6638C219.201 11.685 219.131 11.7218 219.069 11.7723C219.007 11.8227 218.956 11.8857 218.917 11.9575Z" fill="white"/>
<path d="M220.014 18.4381L239.577 30.4227V28.9727L220.014 16.9881V18.4381Z" fill="white"/>
<path d="M219.931 17.6687C219.878 17.7634 219.803 17.8422 219.714 17.8975C219.624 17.9527 219.523 17.9826 219.419 17.9843C219.314 17.984 219.212 17.9533 219.122 17.8956L220.005 18.4381V16.9881L219.717 16.8105C219.852 16.8949 219.95 17.0324 219.99 17.193C220.03 17.3537 220.009 17.5246 219.931 17.6687Z" fill="white"/>
<path d="M239.874 30.61C239.963 30.6593 240.062 30.6862 240.163 30.6889C240.292 30.6874 240.418 30.6409 240.521 30.5565C240.623 30.4722 240.697 30.3546 240.73 30.2216C240.764 30.0887 240.756 29.9477 240.707 29.8202C240.658 29.6926 240.572 29.5855 240.46 29.5151L239.53 28.9726V30.4226L239.874 30.61Z" fill="white"/>
<path d="M219.419 17.9843C219.523 17.9826 219.624 17.9527 219.714 17.8975C219.803 17.8422 219.878 17.7634 219.931 17.6687C220.009 17.5246 220.03 17.3537 219.99 17.193C219.95 17.0324 219.852 16.8949 219.717 16.8105C219.583 16.7471 219.431 16.7385 219.292 16.7863C219.152 16.8341 219.034 16.935 218.96 17.0696C218.886 17.2042 218.862 17.363 218.892 17.5154C218.922 17.6679 219.004 17.8033 219.122 17.8956C219.211 17.9533 219.314 17.984 219.419 17.9843Z" fill="white"/>
<path d="M220.014 23.5278L239.577 35.5124V34.0525L220.014 22.0778V23.5278Z" fill="white"/>
<path d="M219.717 21.9002C219.831 21.9678 219.921 22.074 219.971 22.2018C220.022 22.3296 220.031 22.4717 219.997 22.6055C219.963 22.7394 219.887 22.8572 219.782 22.9403C219.678 23.0234 219.55 23.0671 219.419 23.0642C219.316 23.0627 219.214 23.0356 219.122 22.9853L220.005 23.5278V22.0778L219.717 21.9002Z" fill="white"/>
<path d="M239.874 35.69C239.962 35.7435 240.061 35.7707 240.163 35.7689C240.267 35.7699 240.37 35.7423 240.461 35.6887C240.552 35.6351 240.629 35.5574 240.683 35.4631C240.76 35.3178 240.78 35.146 240.738 34.9852C240.697 34.8244 240.597 34.6877 240.46 34.6049L239.53 34.0624V35.5124L239.874 35.69Z" fill="white"/>
<path d="M219.419 23.0642C219.55 23.0671 219.678 23.0234 219.782 22.9403C219.887 22.8572 219.962 22.7394 219.997 22.6055C220.031 22.4717 220.022 22.3296 219.971 22.2018C219.92 22.074 219.831 21.9678 219.717 21.9003C219.58 21.8183 219.418 21.7973 219.266 21.8416C219.115 21.886 218.986 21.9922 218.908 22.137C218.868 22.2073 218.842 22.2852 218.832 22.3664C218.821 22.4475 218.826 22.53 218.846 22.6092C218.866 22.6883 218.9 22.7623 218.948 22.8269C218.995 22.8916 219.054 22.9454 219.122 22.9853C219.214 23.0357 219.316 23.0627 219.419 23.0642Z" fill="white"/>
<path d="M220.014 28.6077L239.577 40.5923V39.1423L220.014 27.1577V28.6077Z" fill="white"/>
<path d="M219.717 26.9802C219.831 27.0477 219.921 27.1539 219.971 27.2817C220.022 27.4095 220.031 27.5516 219.997 27.6854C219.963 27.8193 219.887 27.9371 219.782 28.0203C219.678 28.1034 219.55 28.147 219.419 28.1441C219.315 28.1473 219.212 28.12 219.122 28.0652L220.005 28.6077V27.1577L219.717 26.9802Z" fill="white"/>
<path d="M239.874 40.7698C239.961 40.8263 240.061 40.857 240.163 40.8586C240.268 40.8576 240.371 40.8281 240.462 40.7729C240.553 40.7176 240.629 40.6385 240.683 40.543C240.76 40.3977 240.78 40.2258 240.738 40.0651C240.697 39.9043 240.597 39.7676 240.46 39.6848L239.53 39.1423V40.5923L239.874 40.7698Z" fill="white"/>
<path d="M219.419 28.144C219.55 28.1469 219.678 28.1033 219.783 28.0202C219.887 27.9371 219.963 27.8192 219.997 27.6854C220.031 27.5515 220.022 27.4094 219.971 27.2816C219.921 27.1538 219.831 27.0477 219.717 26.9801C219.583 26.8951 219.422 26.8702 219.27 26.9109C219.118 26.9516 218.988 27.0545 218.908 27.1971C218.828 27.3397 218.804 27.5102 218.843 27.6711C218.881 27.8321 218.978 27.9703 219.113 28.0553C219.205 28.1153 219.311 28.1461 219.419 28.144Z" fill="white"/>
<path d="M239.577 44.2222L220.052 32.2475V32.6026C220.046 32.7023 220.02 32.7997 219.977 32.8886C219.928 32.9847 219.854 33.0635 219.763 33.1155L219.466 33.3029L238.991 45.2875L239.586 44.9225L239.577 44.2222Z" fill="white"/>
<path d="M219.912 32.2672V32.3461C219.949 32.4081 219.968 32.4799 219.968 32.5532V32.2672L219.67 32.0797C219.764 32.1214 219.846 32.1856 219.912 32.2672Z" fill="white"/>
<path d="M219.466 33.2536H219.419C219.314 33.2533 219.212 33.2226 219.122 33.1648L219.419 33.3522L219.717 33.1648C219.641 33.215 219.555 33.2454 219.466 33.2536Z" fill="white"/>
<path d="M219.707 33.1451C219.798 33.0931 219.872 33.0143 219.921 32.9182C219.871 33.0136 219.797 33.0922 219.707 33.1451Z" fill="white"/>
<path d="M239.577 44.9521L240.162 44.5872L239.577 44.2222V44.9521Z" fill="white"/>
<path d="M240.748 45.3466C240.751 45.4433 240.729 45.5389 240.683 45.6228C240.727 45.5381 240.749 45.4431 240.748 45.3466Z" fill="white"/>
<path d="M240.748 45.2677C240.74 45.1929 240.721 45.1198 240.692 45.0507C240.721 45.1198 240.74 45.1929 240.748 45.2677Z" fill="white"/>
<path d="M240.46 44.7746C240.542 44.8225 240.61 44.8944 240.655 44.9817C240.61 44.8944 240.542 44.8225 240.46 44.7746Z" fill="white"/>
<path d="M240.46 45.8596C240.382 45.9019 240.296 45.9255 240.209 45.9286C240.296 45.922 240.381 45.8986 240.46 45.8596Z" fill="white"/>
<path d="M240.163 45.9385H240.209C240.296 45.9353 240.382 45.9118 240.46 45.8695C240.367 45.9164 240.265 45.94 240.163 45.9385Z" fill="white"/>
<path d="M239.577 45.3171V44.9521L238.982 45.3171L239.865 45.8596C239.778 45.8019 239.706 45.722 239.656 45.6273C239.606 45.5325 239.578 45.4259 239.577 45.3171Z" fill="white"/>
<path d="M239.874 45.8596C239.962 45.9131 240.062 45.9404 240.163 45.9385C240.062 45.9381 239.963 45.911 239.874 45.8596Z" fill="white"/>
<path d="M240.163 45.9384C240.266 45.9369 240.368 45.9099 240.46 45.8595C240.552 45.8016 240.629 45.7202 240.683 45.6228C240.729 45.5389 240.751 45.4433 240.748 45.3466V45.2677C240.74 45.1929 240.721 45.1198 240.693 45.0507C240.697 45.028 240.697 45.0044 240.693 44.9817C240.647 44.8943 240.58 44.8224 240.497 44.7745L240.2 44.5871L239.614 44.9521V45.317C239.615 45.4258 239.643 45.5324 239.693 45.6272C239.743 45.722 239.815 45.8019 239.902 45.8595C239.982 45.9064 240.071 45.9334 240.163 45.9384Z" fill="white"/>
<path d="M219.447 31.9811C219.541 31.9876 219.633 32.0145 219.717 32.0601C219.632 32.0157 219.541 31.9889 219.447 31.9811Z" fill="white"/>
<path d="M219.373 31.991C219.301 31.9953 219.232 32.0155 219.168 32.0502C219.23 32.0113 219.301 31.9908 219.373 31.991Z" fill="white"/>
<path d="M218.917 32.9379C218.965 33.0232 219.032 33.0944 219.112 33.145C219.03 33.0971 218.962 33.0252 218.917 32.9379Z" fill="white"/>
<path d="M218.843 32.6519C218.844 32.7269 218.86 32.8008 218.889 32.8689C218.86 32.8008 218.844 32.7269 218.843 32.6519Z" fill="white"/>
<path d="M220.005 32.6321C219.999 32.7319 219.974 32.8293 219.931 32.9182C219.974 32.8293 219.999 32.7319 220.005 32.6321Z" fill="white"/>
<path d="M219.94 32.3461C219.977 32.4081 219.996 32.48 219.996 32.5532C219.996 32.48 219.977 32.4081 219.94 32.3461Z" fill="white"/>
<path d="M219.912 32.2672C219.862 32.1841 219.795 32.1135 219.717 32.0601C219.795 32.1135 219.862 32.1841 219.912 32.2672Z" fill="white"/>
<path d="M219.466 33.2535C219.551 33.2469 219.634 33.2199 219.708 33.1747C219.634 33.2199 219.551 33.2469 219.466 33.2535Z" fill="white"/>
<path d="M219.419 33.2536C219.314 33.2533 219.212 33.2226 219.122 33.1648C219.212 33.2226 219.314 33.2533 219.419 33.2536Z" fill="white"/>
<path d="M219.94 32.3461V32.2672C219.89 32.1841 219.823 32.1135 219.745 32.0601C219.661 32.0145 219.569 31.9876 219.475 31.9811H219.401C219.329 31.981 219.258 32.0014 219.196 32.0403C219.088 32.0883 218.997 32.1711 218.936 32.2771C218.879 32.3886 218.856 32.5162 218.871 32.642C218.872 32.717 218.888 32.791 218.917 32.859C218.917 32.859 218.917 32.9084 218.917 32.9281C218.962 33.0155 219.03 33.0873 219.113 33.1352C219.202 33.193 219.305 33.2237 219.41 33.224H219.457C219.542 33.2173 219.624 33.1904 219.698 33.1451C219.792 33.0937 219.869 33.015 219.921 32.9182C219.964 32.8293 219.99 32.7319 219.996 32.6322C219.996 32.6322 219.996 32.5829 219.996 32.5533C219.996 32.48 219.977 32.4081 219.94 32.3461Z" fill="white"/>
<path d="M301.825 7.18339C301.826 7.07461 301.853 6.96795 301.904 6.87318C301.954 6.77841 302.026 6.69853 302.113 6.64086L302.411 6.46331L282.885 -5.52127L282.29 -5.15631V-4.43626L301.862 7.54834V7.19323L301.825 7.18339Z" fill="white"/>
<path d="M282.253 0.643636L301.825 12.6282V11.1782L282.253 -0.796509V0.643636Z" fill="white"/>
<path d="M282.253 5.73337L301.825 17.718V16.268L282.253 4.28339V5.73337Z" fill="white"/>
<path d="M281.956 4.10586C281.889 4.06379 281.816 4.03624 281.739 4.02488C281.663 4.01353 281.585 4.0186 281.511 4.03975C281.436 4.06091 281.366 4.09774 281.305 4.14806C281.244 4.19839 281.194 4.26118 281.156 4.33271C281.116 4.40373 281.09 4.48248 281.079 4.56434C281.068 4.6462 281.073 4.72955 281.093 4.80947C281.113 4.88938 281.148 4.96426 281.195 5.02975C281.243 5.09525 281.302 5.15001 281.37 5.19086L282.253 5.73339V4.2834L281.956 4.10586Z" fill="white"/>
<path d="M282.253 10.8133L301.825 22.7979V21.3479L282.253 9.36331V10.8133Z" fill="white"/>
<path d="M281.956 9.18573C281.82 9.10333 281.659 9.08146 281.508 9.12493C281.358 9.1684 281.229 9.27364 281.152 9.41752C281.074 9.5614 281.053 9.73213 281.094 9.89214C281.135 10.0522 281.234 10.1884 281.37 10.2708L282.253 10.8133V9.36328L281.956 9.18573Z" fill="white"/>
<path d="M282.253 15.903L301.825 27.8777V26.4277L282.253 14.4431V15.903Z" fill="white"/>
<path d="M281.956 14.2656C281.82 14.1832 281.659 14.1614 281.508 14.2048C281.358 14.2483 281.229 14.3535 281.152 14.4974C281.074 14.6413 281.053 14.812 281.094 14.972C281.135 15.132 281.234 15.2683 281.37 15.3507L282.253 15.903V14.453L281.956 14.2656Z" fill="white"/>
<path d="M301.825 31.5175L282.253 19.5329V19.8979C282.253 20.0082 282.226 20.1166 282.174 20.2119C282.121 20.3073 282.046 20.3861 281.956 20.4404L281.667 20.618L301.193 32.6025L301.788 32.2376L301.825 31.5175Z" fill="white"/>
<path d="M281.695 19.2765C281.787 19.277 281.877 19.3043 281.956 19.3554C281.878 19.3023 281.788 19.2748 281.695 19.2765Z" fill="white"/>
<path d="M281.621 19.2764C281.55 19.2856 281.481 19.3055 281.416 19.3356C281.481 19.3055 281.55 19.2856 281.621 19.2764Z" fill="white"/>
<path d="M281.37 20.4305C281.29 20.3799 281.222 20.3087 281.175 20.2234C281.222 20.3087 281.29 20.3799 281.37 20.4305Z" fill="white"/>
<path d="M281.138 20.1642C281.11 20.0947 281.092 20.0218 281.082 19.9472C281.092 20.0218 281.11 20.0947 281.138 20.1642Z" fill="white"/>
<path d="M282.253 19.8979V19.5329L281.956 19.3554C281.877 19.3043 281.787 19.2769 281.695 19.2764H281.621C281.55 19.2856 281.482 19.3055 281.416 19.3356C281.308 19.3873 281.217 19.4735 281.156 19.5822C281.095 19.6924 281.069 19.8202 281.082 19.9472C281.092 20.0217 281.11 20.0947 281.137 20.1642C281.134 20.1871 281.134 20.2103 281.137 20.2332C281.185 20.3185 281.252 20.3898 281.333 20.4404L281.63 20.6179L281.918 20.4404C282.016 20.3914 282.099 20.3148 282.158 20.2191C282.217 20.1234 282.25 20.0122 282.253 19.8979Z" fill="white"/>
</g>
</g>
</svg>
